GeoramaExtraCondensed-Thin.ufo
<glyph name="exclam" format="2">
  <advance width="114"/>
  <unicode hex="0021"/>
  <outline>
    <contour>
      <point x="47" y="264" type="line"/>
      <point x="67" y="264" type="line"/>
      <point x="67" y="740" type="line"/>
      <point x="47" y="740" type="line"/>
    </contour>
    <contour>
      <point x="43" y="17" type="curve" smooth="yes"/>
      <point x="43" y="1"/>
      <point x="44" y="0"/>
      <point x="57" y="0" type="curve" smooth="yes"/>
      <point x="71" y="0"/>
      <point x="71" y="1"/>
      <point x="71" y="17" type="curve" smooth="yes"/>
      <point x="71" y="33"/>
      <point x="71" y="34"/>
      <point x="57" y="34" type="curve" smooth="yes"/>
      <point x="43" y="34"/>
      <point x="43" y="33"/>
    </contour>
  </outline>
</glyph>
<glyph name="ampersand" format="2">
  <advance width="340"/>
  <unicode hex="0026"/>
  <outline>
    <contour>
      <point x="314" y="-16" type="line"/>
      <point x="332" y="-5" type="line"/>
      <point x="113" y="402" type="line" smooth="yes"/>
      <point x="81" y="462"/>
      <point x="72" y="511"/>
      <point x="72" y="559" type="curve" smooth="yes"/>
      <point x="72" y="647"/>
      <point x="100" y="690"/>
      <point x="147" y="690" type="curve" smooth="yes"/>
      <point x="194" y="690"/>
      <point x="216" y="644"/>
      <point x="216" y="568" type="curve" smooth="yes"/>
      <point x="216" y="513"/>
      <point x="208" y="467"/>
      <point x="181" y="433" type="curve"/>
      <point x="197" y="423" type="line"/>
      <point x="227" y="463"/>
      <point x="236" y="513"/>
      <point x="236" y="570" type="curve" smooth="yes"/>
      <point x="236" y="658"/>
      <point x="206" y="710"/>
      <point x="147" y="710" type="curve" smooth="yes"/>
      <point x="86" y="710"/>
      <point x="52" y="661"/>
      <point x="52" y="559" type="curve" smooth="yes"/>
      <point x="52" y="509"/>
      <point x="65" y="451"/>
      <point x="100" y="385" type="curve" smooth="yes"/>
    </contour>
    <contour>
      <point x="149" y="-10" type="curve" smooth="yes"/>
      <point x="204" y="-10"/>
      <point x="241" y="24"/>
      <point x="264" y="90" type="curve"/>
      <point x="254" y="110" type="line"/>
      <point x="230" y="44"/>
      <point x="205" y="10"/>
      <point x="149" y="10" type="curve" smooth="yes"/>
      <point x="83" y="10"/>
      <point x="44" y="81"/>
      <point x="44" y="174" type="curve" smooth="yes"/>
      <point x="44" y="267"/>
      <point x="64" y="320"/>
      <point x="115" y="383" type="curve"/>
      <point x="108" y="398" type="line"/>
      <point x="49" y="339"/>
      <point x="24" y="274"/>
      <point x="24" y="174" type="curve" smooth="yes"/>
      <point x="24" y="68"/>
      <point x="69" y="-10"/>
    </contour>
    <contour>
      <point x="270" y="100" type="line"/>
      <point x="289" y="158"/>
      <point x="300" y="235"/>
      <point x="300" y="317" type="curve" smooth="yes"/>
      <point x="300" y="341"/>
      <point x="299" y="358"/>
      <point x="296" y="376" type="curve"/>
      <point x="277" y="373" type="line"/>
      <point x="280" y="355"/>
      <point x="281" y="339"/>
      <point x="281" y="317" type="curve" smooth="yes"/>
      <point x="281" y="239"/>
      <point x="273" y="170"/>
      <point x="259" y="123" type="curve"/>
    </contour>
  </outline>
</glyph>
<glyph name="quotesingle" format="2">
  <advance width="112"/>
  <unicode hex="0027"/>
  <outline>
    <contour>
      <point x="50" y="427" type="line"/>
      <point x="62" y="427" type="line"/>
      <point x="67" y="700" type="line"/>
      <point x="45" y="700" type="line"/>
    </contour>
  </outline>
</glyph>
<glyph name="parenright" format="2">
  <advance width="171"/>
  <unicode hex="0029"/>
  <outline>
    <contour>
      <point x="5" y="-196" type="curve"/>
      <point x="5" y="-221" type="line"/>
      <point x="74" y="-195"/>
      <point x="121" y="-12"/>
      <point x="121" y="265" type="curve" smooth="yes"/>
      <point x="121" y="542"/>
      <point x="74" y="725"/>
      <point x="5" y="751" type="curve"/>
      <point x="5" y="726" type="line"/>
      <point x="62" y="692"/>
      <point x="99" y="529"/>
      <point x="99" y="265" type="curve" smooth="yes"/>
      <point x="99" y="1"/>
      <point x="62" y="-162"/>
    </contour>
  </outline>
</glyph>
<glyph name="plus" format="2">
  <advance width="370"/>
  <unicode hex="002B"/>
  <outline>
    <contour>
      <point x="175" y="72" type="line"/>
      <point x="195" y="72" type="line"/>
      <point x="195" y="279" type="line"/>
      <point x="331" y="279" type="line"/>
      <point x="331" y="299" type="line"/>
      <point x="195" y="299" type="line"/>
      <point x="195" y="506" type="line"/>
      <point x="175" y="506" type="line"/>
      <point x="175" y="299" type="line"/>
      <point x="39" y="299" type="line"/>
      <point x="39" y="279" type="line"/>
      <point x="175" y="279" type="line"/>
    </contour>
  </outline>
</glyph>
<glyph name="hyphen" format="2">
  <advance width="180"/>
  <unicode hex="002D"/>
  <outline>
    <contour>
      <point x="14" y="255" type="line"/>
      <point x="166" y="255" type="line"/>
      <point x="166" y="275" type="line"/>
      <point x="14" y="275" type="line"/>
    </contour>
  </outline>
</glyph>
<glyph name="slash" format="2">
  <advance width="190"/>
  <unicode hex="002F"/>
  <outline>
    <contour>
      <point x="2" y="-210" type="line"/>
      <point x="21" y="-210" type="line"/>
      <point x="188" y="740" type="line"/>
      <point x="169" y="740" type="line"/>
    </contour>
  </outline>
</glyph>
<glyph name="zero" format="2">
  <advance width="250"/>
  <unicode hex="0030"/>
  <outline>
    <contour>
      <point x="15" y="350" type="curve" smooth="yes"/>
      <point x="15" y="70"/>
      <point x="48" y="-10"/>
      <point x="125" y="-10" type="curve" smooth="yes"/>
      <point x="202" y="-10"/>
      <point x="235" y="70"/>
      <point x="235" y="350" type="curve" smooth="yes"/>
      <point x="235" y="631"/>
      <point x="202" y="710"/>
      <point x="125" y="710" type="curve" smooth="yes"/>
      <point x="48" y="710"/>
      <point x="15" y="631"/>
    </contour>
    <contour>
      <point x="35" y="350" type="curve" smooth="yes"/>
      <point x="35" y="615"/>
      <point x="62" y="690"/>
      <point x="125" y="690" type="curve" smooth="yes"/>
      <point x="188" y="690"/>
      <point x="215" y="615"/>
      <point x="215" y="350" type="curve" smooth="yes"/>
      <point x="215" y="86"/>
      <point x="188" y="10"/>
      <point x="125" y="10" type="curve" smooth="yes"/>
      <point x="62" y="10"/>
      <point x="35" y="86"/>
    </contour>
  </outline>
</glyph>
<glyph name="two" format="2">
  <advance width="250"/>
  <unicode hex="0032"/>
  <outline>
    <contour>
      <point x="25" y="17" type="curve"/>
      <point x="30" y="0" type="line"/>
      <point x="233" y="0" type="line"/>
      <point x="233" y="20" type="line"/>
      <point x="47" y="20" type="line"/>
      <point x="161" y="300"/>
      <point x="203" y="434"/>
      <point x="203" y="538" type="curve" smooth="yes"/>
      <point x="203" y="664"/>
      <point x="166" y="710"/>
      <point x="107" y="710" type="curve" smooth="yes"/>
      <point x="73" y="710"/>
      <point x="46" y="697"/>
      <point x="17" y="657" type="curve"/>
      <point x="30" y="645" type="line"/>
      <point x="54" y="679"/>
      <point x="76" y="691"/>
      <point x="107" y="691" type="curve" smooth="yes"/>
      <point x="153" y="691"/>
      <point x="184" y="655"/>
      <point x="184" y="542" type="curve" smooth="yes"/>
      <point x="184" y="441"/>
      <point x="147" y="304"/>
    </contour>
  </outline>
</glyph>
<glyph name="six" format="2">
  <advance width="250"/>
  <unicode hex="0036"/>
  <outline>
    <contour>
      <point x="129" y="-10" type="curve" smooth="yes"/>
      <point x="190" y="-10"/>
      <point x="232" y="73"/>
      <point x="232" y="201" type="curve" smooth="yes"/>
      <point x="232" y="324"/>
      <point x="194" y="396"/>
      <point x="130" y="396" type="curve" smooth="yes"/>
      <point x="81" y="396"/>
      <point x="37" y="347"/>
      <point x="30" y="280" type="curve"/>
      <point x="36" y="251" type="line"/>
      <point x="48" y="330"/>
      <point x="84" y="377"/>
      <point x="129" y="377" type="curve" smooth="yes"/>
      <point x="181" y="377"/>
      <point x="212" y="311"/>
      <point x="212" y="198" type="curve" smooth="yes"/>
      <point x="212" y="83"/>
      <point x="177" y="8"/>
      <point x="128" y="8" type="curve" smooth="yes"/>
      <point x="65" y="8"/>
      <point x="37" y="93"/>
      <point x="37" y="324" type="curve" smooth="yes"/>
      <point x="37" y="579"/>
      <point x="70" y="692"/>
      <point x="146" y="692" type="curve" smooth="yes"/>
      <point x="172" y="692"/>
      <point x="185" y="681"/>
      <point x="204" y="663" type="curve"/>
      <point x="217" y="677" type="line"/>
      <point x="196" y="699"/>
      <point x="177" y="710"/>
      <point x="148" y="710" type="curve" smooth="yes"/>
      <point x="57" y="710"/>
      <point x="17" y="611"/>
      <point x="17" y="327" type="curve" smooth="yes"/>
      <point x="17" y="74"/>
      <point x="48" y="-10"/>
    </contour>
  </outline>
</glyph>
<glyph name="seven" format="2">
  <advance width="250"/>
  <unicode hex="0037"/>
  <outline>
    <contour>
      <point x="95" y="0" type="curve"/>
      <point x="115" y="0" type="line"/>
      <point x="116" y="143"/>
      <point x="131" y="262"/>
      <point x="158" y="374" type="curve" smooth="yes"/>
      <point x="233" y="683" type="line"/>
      <point x="233" y="700" type="line"/>
      <point x="16" y="700" type="line"/>
      <point x="16" y="680" type="line"/>
      <point x="211" y="680" type="line"/>
      <point x="151" y="429" type="line" smooth="yes"/>
      <point x="111" y="259"/>
      <point x="95" y="139"/>
    </contour>
  </outline>
</glyph>
<glyph name="eight" format="2">
  <advance width="250"/>
  <unicode hex="0038"/>
  <outline>
    <contour>
      <point x="122" y="362" type="curve"/>
      <point x="135" y="352" type="line"/>
      <point x="203" y="404"/>
      <point x="225" y="467"/>
      <point x="225" y="548" type="curve" smooth="yes"/>
      <point x="225" y="651"/>
      <point x="188" y="710"/>
      <point x="126" y="710" type="curve" smooth="yes"/>
      <point x="64" y="710"/>
      <point x="27" y="651"/>
      <point x="27" y="548" type="curve" smooth="yes"/>
      <point x="27" y="334"/>
      <point x="216" y="385"/>
      <point x="216" y="162" type="curve" smooth="yes"/>
      <point x="216" y="65"/>
      <point x="183" y="10"/>
      <point x="126" y="10" type="curve" smooth="yes"/>
      <point x="67" y="10"/>
      <point x="35" y="67"/>
      <point x="35" y="171" type="curve" smooth="yes"/>
      <point x="35" y="263"/>
      <point x="63" y="331"/>
      <point x="125" y="375" type="curve"/>
      <point x="111" y="387" type="line"/>
      <point x="42" y="332"/>
      <point x="15" y="259"/>
      <point x="15" y="168" type="curve" smooth="yes"/>
      <point x="15" y="54"/>
      <point x="54" y="-10"/>
      <point x="125" y="-10" type="curve" smooth="yes"/>
      <point x="195" y="-10"/>
      <point x="236" y="53"/>
      <point x="236" y="161" type="curve" smooth="yes"/>
      <point x="236" y="396"/>
      <point x="47" y="348"/>
      <point x="47" y="552" type="curve" smooth="yes"/>
      <point x="47" y="640"/>
      <point x="77" y="691"/>
      <point x="126" y="691" type="curve" smooth="yes"/>
      <point x="176" y="691"/>
      <point x="205" y="640"/>
      <point x="205" y="547" type="curve" smooth="yes"/>
      <point x="205" y="469"/>
      <point x="187" y="411"/>
    </contour>
  </outline>
</glyph>
<glyph name="less" format="2">
  <advance width="370"/>
  <unicode hex="003C"/>
  <outline>
    <contour>
      <point x="330" y="89" type="line"/>
      <point x="330" y="113" type="line"/>
      <point x="60" y="290" type="line"/>
      <point x="330" y="468" type="line"/>
      <point x="330" y="490" type="line"/>
      <point x="40" y="300" type="line"/>
      <point x="40" y="280" type="line"/>
    </contour>
  </outline>
</glyph>
<glyph name="greater" format="2">
  <advance width="370"/>
  <unicode hex="003E"/>
  <outline>
    <contour>
      <point x="330" y="279" type="line"/>
      <point x="330" y="299" type="line"/>
      <point x="40" y="490" type="line"/>
      <point x="40" y="466" type="line"/>
      <point x="310" y="289" type="line"/>
      <point x="40" y="111" type="line"/>
      <point x="40" y="89" type="line"/>
    </contour>
  </outline>
</glyph>
<glyph name="at" format="2">
  <advance width="371"/>
  <unicode hex="0040"/>
  <outline>
    <contour>
      <point x="199" y="-123" type="curve" smooth="yes"/>
      <point x="255" y="-123"/>
      <point x="299" y="-90"/>
      <point x="314" y="-58" type="curve"/>
      <point x="300" y="-49" type="line"/>
      <point x="282" y="-80"/>
      <point x="247" y="-105"/>
      <point x="199" y="-105" type="curve" smooth="yes"/>
      <point x="83" y="-105"/>
      <point x="38" y="-20"/>
      <point x="38" y="268" type="curve" smooth="yes"/>
      <point x="38" y="514"/>
      <point x="61" y="693"/>
      <point x="196" y="693" type="curve" smooth="yes"/>
      <point x="320" y="693"/>
      <point x="333" y="586"/>
      <point x="333" y="354" type="curve" smooth="yes"/>
      <point x="333" y="207"/>
      <point x="331" y="75"/>
      <point x="288" y="75" type="curve" smooth="yes"/>
      <point x="270" y="75"/>
      <point x="244" y="93"/>
      <point x="251" y="246" type="curve" smooth="yes"/>
      <point x="264" y="520" type="line"/>
      <point x="239" y="531"/>
      <point x="218" y="538"/>
      <point x="201" y="538" type="curve" smooth="yes"/>
      <point x="123" y="538"/>
      <point x="107" y="409"/>
      <point x="107" y="270" type="curve" smooth="yes"/>
      <point x="107" y="106"/>
      <point x="128" y="58"/>
      <point x="172" y="58" type="curve" smooth="yes"/>
      <point x="225" y="58"/>
      <point x="228" y="118"/>
      <point x="235" y="197" type="curve"/>
      <point x="235" y="74"/>
      <point x="254" y="55"/>
      <point x="288" y="55" type="curve" smooth="yes"/>
      <point x="348" y="55"/>
      <point x="353" y="197"/>
      <point x="353" y="354" type="curve" smooth="yes"/>
      <point x="353" y="608"/>
      <point x="333" y="710"/>
      <point x="196" y="710" type="curve" smooth="yes"/>
      <point x="48" y="710"/>
      <point x="18" y="524"/>
      <point x="18" y="268" type="curve" smooth="yes"/>
      <point x="18" y="-32"/>
      <point x="72" y="-123"/>
    </contour>
    <contour>
      <point x="174" y="78" type="curve" smooth="yes"/>
      <point x="147" y="78"/>
      <point x="127" y="118"/>
      <point x="127" y="270" type="curve" smooth="yes"/>
      <point x="127" y="389"/>
      <point x="143" y="519"/>
      <point x="200" y="519" type="curve" smooth="yes"/>
      <point x="213" y="519"/>
      <point x="226" y="515"/>
      <point x="244" y="506" type="curve"/>
      <point x="239" y="423" type="line" smooth="yes"/>
      <point x="220" y="105"/>
      <point x="210" y="78"/>
    </contour>
  </outline>
</glyph>
<glyph name="A" format="2">
  <advance width="284"/>
  <unicode hex="0041"/>
  <anchor x="264" y="0" name="ogonek"/>
  <anchor x="143" y="0" name="bottom"/>
  <anchor x="143" y="700" name="top"/>
  <outline>
    <contour>
      <point x="20" y="0" type="line"/>
      <point x="40" y="0" type="line"/>
      <point x="75" y="221" type="line"/>
      <point x="210" y="221" type="line"/>
      <point x="244" y="0" type="line"/>
      <point x="264" y="0" type="line"/>
      <point x="151" y="710" type="line"/>
      <point x="135" y="710" type="line"/>
    </contour>
    <contour>
      <point x="78" y="240" type="line"/>
      <point x="143" y="655" type="line"/>
      <point x="207" y="240" type="line"/>
    </contour>
  </outline>
</glyph>
<glyph name="C" format="2">
  <advance width="240"/>
  <unicode hex="0043"/>
  <anchor x="152" y="700" name="top"/>
  <anchor x="151" y="0" name="bottom"/>
  <outline>
    <contour>
      <point x="28" y="336" type="curve" smooth="yes"/>
      <point x="28" y="54"/>
      <point x="82" y="-10"/>
      <point x="161" y="-10" type="curve" smooth="yes"/>
      <point x="178" y="-10"/>
      <point x="209" y="-8"/>
      <point x="227" y="-2" type="curve"/>
      <point x="223" y="17" type="line"/>
      <point x="209" y="12"/>
      <point x="175" y="8"/>
      <point x="162" y="8" type="curve" smooth="yes"/>
      <point x="94" y="8"/>
      <point x="48" y="75"/>
      <point x="48" y="336" type="curve" smooth="yes"/>
      <point x="48" y="624"/>
      <point x="94" y="691"/>
      <point x="166" y="691" type="curve" smooth="yes"/>
      <point x="182" y="691"/>
      <point x="198" y="689"/>
      <point x="217" y="683" type="curve"/>
      <point x="221" y="701" type="line"/>
      <point x="200" y="708"/>
      <point x="181" y="710"/>
      <point x="165" y="710" type="curve" smooth="yes"/>
      <point x="74" y="710"/>
      <point x="28" y="622"/>
    </contour>
  </outline>
</glyph>
<glyph name="E" format="2">
  <advance width="239"/>
  <unicode hex="0045"/>
  <anchor x="228" y="0" name="ogonek"/>
  <anchor x="136" y="0" name="bottom"/>
  <anchor x="131" y="700" name="top"/>
  <outline>
    <contour>
      <point x="43" y="0" type="line"/>
      <point x="228" y="0" type="line"/>
      <point x="228" y="20" type="line"/>
      <point x="63" y="20" type="line"/>
      <point x="63" y="354" type="line"/>
      <point x="203" y="354" type="line"/>
      <point x="203" y="373" type="line"/>
      <point x="63" y="373" type="line"/>
      <point x="63" y="680" type="line"/>
      <point x="218" y="680" type="line"/>
      <point x="218" y="700" type="line"/>
      <point x="43" y="700" type="line"/>
    </contour>
  </outline>
</glyph>
<glyph name="F" format="2">
  <advance width="222"/>
  <unicode hex="0046"/>
  <outline>
    <contour>
      <point x="43" y="0" type="line"/>
      <point x="63" y="0" type="line"/>
      <point x="63" y="350" type="line"/>
      <point x="184" y="350" type="line"/>
      <point x="184" y="369" type="line"/>
      <point x="63" y="369" type="line"/>
      <point x="63" y="680" type="line"/>
      <point x="218" y="680" type="line"/>
      <point x="218" y="700" type="line"/>
      <point x="43" y="700" type="line"/>
    </contour>
  </outline>
</glyph>
<glyph name="I" format="2">
  <advance width="106"/>
  <unicode hex="0049"/>
  <anchor x="63" y="0" name="ogonek"/>
  <anchor x="53" y="0" name="bottom"/>
  <anchor x="53" y="700" name="top"/>
  <outline>
    <contour>
      <point x="43" y="0" type="line"/>
      <point x="63" y="0" type="line"/>
      <point x="63" y="700" type="line"/>
      <point x="43" y="700" type="line"/>
    </contour>
  </outline>
</glyph>
<glyph name="J" format="2">
  <advance width="202"/>
  <unicode hex="004A"/>
  <anchor x="95" y="700" name="top"/>
  <outline>
    <contour>
      <point x="5" y="-3" type="line"/>
      <point x="24" y="-8"/>
      <point x="44" y="-10"/>
      <point x="59" y="-10" type="curve" smooth="yes"/>
      <point x="149" y="-10"/>
      <point x="164" y="43"/>
      <point x="164" y="108" type="curve" smooth="yes"/>
      <point x="164" y="700" type="line"/>
      <point x="15" y="700" type="line"/>
      <point x="15" y="681" type="line"/>
      <point x="144" y="681" type="line"/>
      <point x="144" y="105" type="line" smooth="yes"/>
      <point x="144" y="35"/>
      <point x="117" y="9"/>
      <point x="59" y="9" type="curve" smooth="yes"/>
      <point x="44" y="9"/>
      <point x="27" y="10"/>
      <point x="10" y="15" type="curve"/>
    </contour>
  </outline>
</glyph>
<glyph name="K" format="2">
  <advance width="255"/>
  <unicode hex="004B"/>
  <anchor x="128" y="700" name="top"/>
  <anchor x="142" y="0" name="bottom"/>
  <outline>
    <contour>
      <point x="247" y="-10" type="curve" smooth="yes"/>
      <point x="250" y="-10"/>
      <point x="254" y="-10"/>
      <point x="260" y="-8" type="curve"/>
      <point x="260" y="13" type="line"/>
      <point x="258" y="12"/>
      <point x="255" y="12"/>
      <point x="253" y="12" type="curve" smooth="yes"/>
      <point x="239" y="12"/>
      <point x="231" y="21"/>
      <point x="191" y="113" type="curve" smooth="yes"/>
      <point x="63" y="408" type="line"/>
      <point x="63" y="700" type="line"/>
      <point x="43" y="700" type="line"/>
      <point x="43" y="0" type="line"/>
      <point x="63" y="0" type="line"/>
      <point x="63" y="362" type="line"/>
      <point x="174" y="104" type="line" smooth="yes"/>
      <point x="208" y="25"/>
      <point x="223" y="-10"/>
    </contour>
    <contour>
      <point x="99" y="298" type="line"/>
      <point x="142" y="374"/>
      <point x="204" y="508"/>
      <point x="233" y="698" type="curve"/>
      <point x="214" y="702" type="line"/>
      <point x="185" y="517"/>
      <point x="132" y="396"/>
      <point x="89" y="319" type="curve"/>
    </contour>
  </outline>
</glyph>
<glyph name="O" format="2">
  <advance width="299"/>
  <unicode hex="004F"/>
  <anchor x="173" y="0" name="ogonek"/>
  <anchor x="149" y="700" name="top"/>
  <anchor x="210" y="690" name="topright"/>
  <anchor x="149" y="0" name="bottom"/>
  <outline>
    <contour>
      <point x="149" y="8" type="curve" smooth="yes"/>
      <point x="78" y="8"/>
      <point x="48" y="77"/>
      <point x="48" y="349" type="curve" smooth="yes"/>
      <point x="48" y="623"/>
      <point x="78" y="692"/>
      <point x="149" y="692" type="curve" smooth="yes"/>
      <point x="221" y="692"/>
      <point x="251" y="623"/>
      <point x="251" y="349" type="curve" smooth="yes"/>
      <point x="251" y="77"/>
      <point x="221" y="8"/>
    </contour>
    <contour>
      <point x="149" y="-10" type="curve" smooth="yes"/>
      <point x="235" y="-10"/>
      <point x="271" y="61"/>
      <point x="271" y="349" type="curve" smooth="yes"/>
      <point x="271" y="639"/>
      <point x="235" y="710"/>
      <point x="149" y="710" type="curve" smooth="yes"/>
      <point x="64" y="710"/>
      <point x="28" y="639"/>
      <point x="28" y="349" type="curve" smooth="yes"/>
      <point x="28" y="61"/>
      <point x="64" y="-10"/>
    </contour>
  </outline>
</glyph>
<glyph name="R" format="2">
  <advance width="263"/>
  <unicode hex="0052"/>
  <anchor x="128" y="700" name="top"/>
  <anchor x="136" y="0" name="bottom"/>
  <outline>
    <contour>
      <point x="249" y="-10" type="curve" smooth="yes"/>
      <point x="255" y="-10"/>
      <point x="260" y="-7"/>
      <point x="263" y="-5" type="curve"/>
      <point x="259" y="12" type="line"/>
      <point x="256" y="11"/>
      <point x="251" y="10"/>
      <point x="249" y="10" type="curve" smooth="yes"/>
      <point x="234" y="10"/>
      <point x="222" y="25"/>
      <point x="154" y="313" type="curve"/>
      <point x="204" y="335"/>
      <point x="232" y="397"/>
      <point x="232" y="517" type="curve" smooth="yes"/>
      <point x="232" y="664"/>
      <point x="193" y="710"/>
      <point x="107" y="710" type="curve" smooth="yes"/>
      <point x="88" y="710"/>
      <point x="67" y="708"/>
      <point x="43" y="704" type="curve"/>
      <point x="43" y="0" type="line"/>
      <point x="63" y="0" type="line"/>
      <point x="63" y="305" type="line"/>
      <point x="73" y="304"/>
      <point x="88" y="304"/>
      <point x="104" y="304" type="curve" smooth="yes"/>
      <point x="115" y="304"/>
      <point x="125" y="305"/>
      <point x="135" y="307" type="curve"/>
      <point x="207" y="5"/>
      <point x="212" y="-10"/>
    </contour>
    <contour>
      <point x="105" y="324" type="curve" smooth="yes"/>
      <point x="89" y="324"/>
      <point x="76" y="324"/>
      <point x="63" y="325" type="curve"/>
      <point x="63" y="688" type="line"/>
      <point x="79" y="691"/>
      <point x="94" y="692"/>
      <point x="108" y="692" type="curve" smooth="yes"/>
      <point x="185" y="692"/>
      <point x="212" y="641"/>
      <point x="212" y="514" type="curve" smooth="yes"/>
      <point x="212" y="373"/>
      <point x="172" y="324"/>
    </contour>
  </outline>
</glyph>
<glyph name="T" format="2">
  <advance width="234"/>
  <unicode hex="0054"/>
  <anchor x="117" y="700" name="top"/>
  <anchor x="117" y="0" name="bottom"/>
  <outline>
    <contour>
      <point x="229" y="681" type="line"/>
      <point x="229" y="700" type="line"/>
      <point x="5" y="700" type="line"/>
      <point x="5" y="681" type="line"/>
      <point x="107" y="681" type="line"/>
      <point x="107" y="0" type="line"/>
      <point x="127" y="0" type="line"/>
      <point x="127" y="681" type="line"/>
    </contour>
  </outline>
</glyph>
<glyph name="W" format="2">
  <advance width="356"/>
  <unicode hex="0057"/>
  <anchor x="178" y="700" name="top"/>
  <anchor x="178" y="0" name="bottom"/>
  <outline>
    <contour>
      <point x="278" y="0" type="line"/>
      <point x="347" y="699" type="line"/>
      <point x="327" y="702" type="line"/>
      <point x="264" y="55" type="line"/>
      <point x="191" y="700" type="line"/>
      <point x="165" y="700" type="line"/>
      <point x="92" y="55" type="line"/>
      <point x="29" y="702" type="line"/>
      <point x="9" y="699" type="line"/>
      <point x="79" y="0" type="line"/>
      <point x="102" y="0" type="line"/>
      <point x="177" y="648" type="line"/>
      <point x="253" y="0" type="line"/>
    </contour>
  </outline>
</glyph>
<glyph name="X" format="2">
  <advance width="266"/>
  <unicode hex="0058"/>
  <outline>
    <contour>
      <point x="25" y="2" type="line"/>
      <point x="43" y="-4" type="line"/>
      <point x="131" y="331" type="line"/>
      <point x="222" y="-4" type="line"/>
      <point x="240" y="2" type="line"/>
      <point x="143" y="358" type="line"/>
      <point x="234" y="697" type="line"/>
      <point x="216" y="703" type="line"/>
      <point x="134" y="391" type="line"/>
      <point x="49" y="703" type="line"/>
      <point x="31" y="697" type="line"/>
      <point x="123" y="361" type="line"/>
    </contour>
  </outline>
</glyph>
<glyph name="Y" format="2">
  <advance width="250"/>
  <unicode hex="0059"/>
  <anchor x="126" y="700" name="top"/>
  <anchor x="125" y="0" name="bottom"/>
  <outline>
    <contour>
      <point x="116" y="0" type="line"/>
      <point x="136" y="0" type="line"/>
      <point x="136" y="315" type="line"/>
      <point x="237" y="697" type="line"/>
      <point x="219" y="703" type="line"/>
      <point x="126" y="344" type="line"/>
      <point x="27" y="703" type="line"/>
      <point x="9" y="697" type="line"/>
      <point x="116" y="315" type="line"/>
    </contour>
  </outline>
</glyph>
<glyph name="asciicircum" format="2">
  <advance width="370"/>
  <unicode hex="005E"/>
  <outline>
    <contour>
      <point x="33" y="279" type="line"/>
      <point x="54" y="279" type="line"/>
      <point x="185" y="688" type="line"/>
      <point x="316" y="279" type="line"/>
      <point x="337" y="279" type="line"/>
      <point x="195" y="710" type="line"/>
      <point x="175" y="710" type="line"/>
    </contour>
  </outline>
</glyph>
<glyph name="e" format="2">
  <advance width="243"/>
  <unicode hex="0065"/>
  <anchor x="189" y="0" name="ogonek"/>
  <anchor x="134" y="0" name="bottom"/>
  <anchor x="130" y="530" name="top"/>
  <outline>
    <contour>
      <point x="136" y="-10" type="curve" smooth="yes"/>
      <point x="157" y="-10"/>
      <point x="183" y="-5"/>
      <point x="209" y="6" type="curve"/>
      <point x="204" y="24" type="line"/>
      <point x="177" y="13"/>
      <point x="156" y="9"/>
      <point x="137" y="9" type="curve" smooth="yes"/>
      <point x="73" y="9"/>
      <point x="49" y="62"/>
      <point x="49" y="265" type="curve" smooth="yes"/>
      <point x="49" y="272"/>
      <point x="49" y="280"/>
      <point x="49" y="287" type="curve"/>
      <point x="132" y="287"/>
      <point x="185" y="296"/>
      <point x="219" y="302" type="curve"/>
      <point x="219" y="305"/>
      <point x="220" y="319"/>
      <point x="220" y="325" type="curve" smooth="yes"/>
      <point x="220" y="480"/>
      <point x="191" y="540"/>
      <point x="135" y="540" type="curve" smooth="yes"/>
      <point x="72" y="540"/>
      <point x="29" y="484"/>
      <point x="29" y="250" type="curve" smooth="yes"/>
      <point x="29" y="55"/>
      <point x="57" y="-10"/>
    </contour>
    <contour>
      <point x="49" y="305" type="curve"/>
      <point x="56" y="484"/>
      <point x="90" y="522"/>
      <point x="135" y="522" type="curve" smooth="yes"/>
      <point x="178" y="522"/>
      <point x="200" y="470"/>
      <point x="200" y="318" type="curve"/>
      <point x="179" y="312"/>
      <point x="108" y="305"/>
    </contour>
  </outline>
</glyph>
<glyph name="g" format="2">
  <advance width="254"/>
  <unicode hex="0067"/>
  <anchor x="135" y="530" name="top"/>
  <anchor x="138" y="-210" name="bottom"/>
  <outline>
    <contour>
      <point x="141" y="-220" type="curve" smooth="yes"/>
      <point x="208" y="-220"/>
      <point x="249" y="-166"/>
      <point x="249" y="-78" type="curve" smooth="yes"/>
      <point x="249" y="4"/>
      <point x="213" y="50"/>
      <point x="147" y="50" type="curve" smooth="yes"/>
      <point x="115" y="50" type="line" smooth="yes"/>
      <point x="69" y="50"/>
      <point x="58" y="79"/>
      <point x="58" y="115" type="curve" smooth="yes"/>
      <point x="58" y="154"/>
      <point x="73" y="188"/>
      <point x="101" y="213" type="curve"/>
      <point x="90" y="223" type="line"/>
      <point x="56" y="193"/>
      <point x="39" y="155"/>
      <point x="39" y="114" type="curve" smooth="yes"/>
      <point x="39" y="64"/>
      <point x="56" y="31"/>
      <point x="115" y="31" type="curve" smooth="yes"/>
      <point x="148" y="31" type="line" smooth="yes"/>
      <point x="199" y="31"/>
      <point x="229" y="-10"/>
      <point x="229" y="-78" type="curve" smooth="yes"/>
      <point x="229" y="-156"/>
      <point x="197" y="-201"/>
      <point x="141" y="-201" type="curve" smooth="yes"/>
      <point x="80" y="-201"/>
      <point x="49" y="-159"/>
      <point x="49" y="-78" type="curve" smooth="yes"/>
      <point x="49" y="-26"/>
      <point x="60" y="13"/>
      <point x="86" y="45" type="curve"/>
      <point x="72" y="52" type="line"/>
      <point x="41" y="16"/>
      <point x="29" y="-24"/>
      <point x="29" y="-78" type="curve" smooth="yes"/>
      <point x="29" y="-170"/>
      <point x="68" y="-220"/>
    </contour>
    <contour>
      <point x="130" y="203" type="curve" smooth="yes"/>
      <point x="187" y="203"/>
      <point x="216" y="259"/>
      <point x="216" y="371" type="curve" smooth="yes"/>
      <point x="216" y="483"/>
      <point x="187" y="540"/>
      <point x="130" y="540" type="curve" smooth="yes"/>
      <point x="73" y="540"/>
      <point x="44" y="483"/>
      <point x="44" y="371" type="curve" smooth="yes"/>
      <point x="44" y="259"/>
      <point x="73" y="203"/>
    </contour>
    <contour>
      <point x="130" y="222" type="curve" smooth="yes"/>
      <point x="85" y="222"/>
      <point x="64" y="269"/>
      <point x="64" y="371" type="curve" smooth="yes"/>
      <point x="64" y="474"/>
      <point x="85" y="521"/>
      <point x="130" y="521" type="curve" smooth="yes"/>
      <point x="175" y="521"/>
      <point x="196" y="474"/>
      <point x="196" y="371" type="curve" smooth="yes"/>
      <point x="196" y="269"/>
      <point x="175" y="222"/>
    </contour>
    <contour>
      <point x="196" y="479" type="line"/>
      <point x="211" y="510"/>
      <point x="224" y="523"/>
      <point x="240" y="523" type="curve" smooth="yes"/>
      <point x="245" y="523"/>
      <point x="246" y="523"/>
      <point x="247" y="522" type="curve"/>
      <point x="248" y="542" type="line"/>
      <point x="247" y="543"/>
      <point x="246" y="543"/>
      <point x="240" y="543" type="curve" smooth="yes"/>
      <point x="218" y="543"/>
      <point x="196" y="525"/>
      <point x="186" y="499" type="curve"/>
    </contour>
  </outline>
</glyph>
<glyph name="h" format="2">
  <advance width="261"/>
  <unicode hex="0068"/>
  <anchor x="131" y="395" name="center"/>
  <anchor x="131" y="0" name="bottom"/>
  <anchor x="135" y="740" name="top"/>
  <outline>
    <contour>
      <point x="44" y="0" type="line"/>
      <point x="64" y="0" type="line"/>
      <point x="64" y="496" type="line"/>
      <point x="82" y="511"/>
      <point x="115" y="522"/>
      <point x="135" y="522" type="curve" smooth="yes"/>
      <point x="177" y="522"/>
      <point x="197" y="495"/>
      <point x="197" y="446" type="curve" smooth="yes"/>
      <point x="197" y="0" type="line"/>
      <point x="217" y="0" type="line"/>
      <point x="217" y="446" type="line" smooth="yes"/>
      <point x="217" y="516"/>
      <point x="182" y="540"/>
      <point x="142" y="540" type="curve" smooth="yes"/>
      <point x="115" y="540"/>
      <point x="84" y="530"/>
      <point x="64" y="517" type="curve"/>
      <point x="64" y="740" type="line"/>
      <point x="44" y="740" type="line"/>
    </contour>
  </outline>
</glyph>
<glyph name="k" format="2">
  <advance width="240"/>
  <unicode hex="006B"/>
  <anchor x="54" y="740" name="top"/>
  <anchor x="142" y="0" name="bottom"/>
  <outline>
    <contour>
      <point x="238" y="-6" type="curve" smooth="yes"/>
      <point x="244" y="-6"/>
      <point x="250" y="-4"/>
      <point x="254" y="-2" type="curve"/>
      <point x="252" y="17" type="line"/>
      <point x="248" y="16"/>
      <point x="243" y="15"/>
      <point x="239" y="15" type="curve" smooth="yes"/>
      <point x="224" y="15"/>
      <point x="220" y="19"/>
      <point x="163" y="132" type="curve" smooth="yes"/>
      <point x="64" y="327" type="line"/>
      <point x="64" y="740" type="line"/>
      <point x="44" y="740" type="line"/>
      <point x="44" y="0" type="line"/>
      <point x="64" y="0" type="line"/>
      <point x="64" y="286" type="line"/>
      <point x="149" y="119" type="line" smooth="yes"/>
      <point x="209" y="3"/>
      <point x="214" y="-6"/>
    </contour>
    <contour>
      <point x="98" y="236" type="line"/>
      <point x="143" y="309"/>
      <point x="202" y="404"/>
      <point x="224" y="532" type="curve"/>
      <point x="206" y="539" type="line"/>
      <point x="183" y="404"/>
      <point x="128" y="322"/>
      <point x="88" y="256" type="curve"/>
    </contour>
  </outline>
</glyph>
<glyph name="l" format="2">
  <advance width="133"/>
  <unicode hex="006C"/>
  <anchor x="67" y="395" name="center"/>
  <anchor x="54" y="740" name="top"/>
  <anchor x="127" y="740" name="topright"/>
  <anchor x="88" y="0" name="bottom"/>
  <outline>
    <contour>
      <point x="64" y="740" type="line"/>
      <point x="44" y="740" type="line"/>
      <point x="44" y="85" type="line" smooth="yes"/>
      <point x="44" y="6"/>
      <point x="61" y="-10"/>
      <point x="98" y="-10" type="curve" smooth="yes"/>
      <point x="107" y="-10"/>
      <point x="119" y="-8"/>
      <point x="131" y="-3" type="curve"/>
      <point x="127" y="16" type="line"/>
      <point x="112" y="11"/>
      <point x="104" y="10"/>
      <point x="98" y="10" type="curve" smooth="yes"/>
      <point x="76" y="10"/>
      <point x="64" y="22"/>
      <point x="64" y="85" type="curve" smooth="yes"/>
    </contour>
  </outline>
</glyph>
<glyph name="m" format="2">
  <advance width="402"/>
  <unicode hex="006D"/>
  <outline>
    <contour>
      <point x="44" y="0" type="line"/>
      <point x="64" y="0" type="line"/>
      <point x="64" y="500" type="line"/>
      <point x="82" y="513"/>
      <point x="111" y="522"/>
      <point x="129" y="522" type="curve" smooth="yes"/>
      <point x="171" y="522"/>
      <point x="191" y="495"/>
      <point x="191" y="446" type="curve" smooth="yes"/>
      <point x="191" y="0" type="line"/>
      <point x="211" y="0" type="line"/>
      <point x="211" y="446" type="line" smooth="yes"/>
      <point x="211" y="466"/>
      <point x="208" y="482"/>
      <point x="203" y="495" type="curve"/>
      <point x="227" y="513"/>
      <point x="256" y="522"/>
      <point x="276" y="522" type="curve" smooth="yes"/>
      <point x="318" y="522"/>
      <point x="338" y="495"/>
      <point x="338" y="446" type="curve" smooth="yes"/>
      <point x="338" y="0" type="line"/>
      <point x="358" y="0" type="line"/>
      <point x="358" y="446" type="line" smooth="yes"/>
      <point x="358" y="516"/>
      <point x="323" y="540"/>
      <point x="283" y="540" type="curve" smooth="yes"/>
      <point x="245" y="540"/>
      <point x="212" y="523"/>
      <point x="195" y="510" type="curve"/>
      <point x="181" y="531"/>
      <point x="159" y="540"/>
      <point x="136" y="540" type="curve" smooth="yes"/>
      <point x="111" y="540"/>
      <point x="84" y="531"/>
      <point x="64" y="520" type="curve"/>
      <point x="64" y="530" type="line"/>
      <point x="44" y="530" type="line"/>
    </contour>
  </outline>
</glyph>
<glyph name="n" format="2">
  <advance width="261"/>
  <unicode hex="006E"/>
  <anchor x="133" y="530" name="top"/>
  <anchor x="135" y="0" name="bottom"/>
  <outline>
    <contour>
      <point x="44" y="0" type="line"/>
      <point x="64" y="0" type="line"/>
      <point x="64" y="496" type="line"/>
      <point x="82" y="511"/>
      <point x="115" y="522"/>
      <point x="135" y="522" type="curve" smooth="yes"/>
      <point x="177" y="522"/>
      <point x="197" y="495"/>
      <point x="197" y="446" type="curve" smooth="yes"/>
      <point x="197" y="0" type="line"/>
      <point x="217" y="0" type="line"/>
      <point x="217" y="446" type="line" smooth="yes"/>
      <point x="217" y="516"/>
      <point x="182" y="540"/>
      <point x="142" y="540" type="curve" smooth="yes"/>
      <point x="115" y="540"/>
      <point x="84" y="530"/>
      <point x="64" y="517" type="curve"/>
      <point x="64" y="530" type="line"/>
      <point x="44" y="530" type="line"/>
    </contour>
  </outline>
</glyph>
<glyph name="o" format="2">
  <advance width="252"/>
  <unicode hex="006F"/>
  <anchor x="153" y="0" name="ogonek"/>
  <anchor x="126" y="530" name="top"/>
  <anchor x="182" y="520" name="topright"/>
  <anchor x="126" y="0" name="bottom"/>
  <outline>
    <contour>
      <point x="29" y="265" type="curve" smooth="yes"/>
      <point x="29" y="44"/>
      <point x="57" y="-10"/>
      <point x="126" y="-10" type="curve" smooth="yes"/>
      <point x="195" y="-10"/>
      <point x="223" y="44"/>
      <point x="223" y="265" type="curve" smooth="yes"/>
      <point x="223" y="486"/>
      <point x="195" y="540"/>
      <point x="126" y="540" type="curve" smooth="yes"/>
      <point x="57" y="540"/>
      <point x="29" y="486"/>
    </contour>
    <contour>
      <point x="49" y="265" type="curve" smooth="yes"/>
      <point x="49" y="470"/>
      <point x="71" y="522"/>
      <point x="126" y="522" type="curve" smooth="yes"/>
      <point x="181" y="522"/>
      <point x="203" y="470"/>
      <point x="203" y="265" type="curve" smooth="yes"/>
      <point x="203" y="60"/>
      <point x="181" y="8"/>
      <point x="126" y="8" type="curve" smooth="yes"/>
      <point x="71" y="8"/>
      <point x="49" y="60"/>
    </contour>
  </outline>
</glyph>
<glyph name="r" format="2">
  <advance width="186"/>
  <unicode hex="0072"/>
  <anchor x="114" y="530" name="top"/>
  <anchor x="54" y="0" name="bottom"/>
  <outline>
    <contour>
      <point x="64" y="530" type="line"/>
      <point x="44" y="530" type="line"/>
      <point x="44" y="0" type="line"/>
      <point x="64" y="0" type="line"/>
      <point x="64" y="470" type="line"/>
      <point x="92" y="507"/>
      <point x="118" y="522"/>
      <point x="147" y="522" type="curve" smooth="yes"/>
      <point x="159" y="522"/>
      <point x="171" y="520"/>
      <point x="184" y="516" type="curve"/>
      <point x="189" y="533" type="line"/>
      <point x="175" y="538"/>
      <point x="161" y="540"/>
      <point x="147" y="540" type="curve" smooth="yes"/>
      <point x="115" y="540"/>
      <point x="83" y="523"/>
      <point x="64" y="497" type="curve"/>
    </contour>
  </outline>
</glyph>
<glyph name="u" format="2">
  <advance width="269"/>
  <unicode hex="0075"/>
  <anchor x="271" y="-1" name="ogonek"/>
  <anchor x="130" y="530" name="top"/>
  <anchor x="217" y="530" name="topright"/>
  <anchor x="135" y="0" name="bottom"/>
  <outline>
    <contour>
      <point x="119" y="-10" type="curve" smooth="yes"/>
      <point x="146" y="-10"/>
      <point x="177" y="0"/>
      <point x="200" y="15" type="curve"/>
      <point x="203" y="0"/>
      <point x="218" y="-10"/>
      <point x="236" y="-10" type="curve" smooth="yes"/>
      <point x="246" y="-10"/>
      <point x="257" y="-8"/>
      <point x="271" y="-1" type="curve"/>
      <point x="264" y="16" type="line"/>
      <point x="254" y="11"/>
      <point x="245" y="9"/>
      <point x="236" y="9" type="curve" smooth="yes"/>
      <point x="223" y="9"/>
      <point x="217" y="17"/>
      <point x="217" y="34" type="curve" smooth="yes"/>
      <point x="217" y="530" type="line"/>
      <point x="197" y="530" type="line"/>
      <point x="197" y="34" type="line"/>
      <point x="179" y="19"/>
      <point x="146" y="8"/>
      <point x="126" y="8" type="curve" smooth="yes"/>
      <point x="84" y="8"/>
      <point x="64" y="35"/>
      <point x="64" y="84" type="curve" smooth="yes"/>
      <point x="64" y="530" type="line"/>
      <point x="44" y="530" type="line"/>
      <point x="44" y="84" type="line" smooth="yes"/>
      <point x="44" y="14"/>
      <point x="79" y="-10"/>
    </contour>
  </outline>
</glyph>
<glyph name="w" format="2">
  <advance width="350"/>
  <unicode hex="0077"/>
  <anchor x="175" y="530" name="top"/>
  <anchor x="175" y="0" name="bottom"/>
  <outline>
    <contour>
      <point x="89" y="0" type="line"/>
      <point x="106" y="0" type="line"/>
      <point x="175" y="479" type="line"/>
      <point x="245" y="0" type="line"/>
      <point x="262" y="0" type="line"/>
      <point x="340" y="527" type="line"/>
      <point x="320" y="531" type="line"/>
      <point x="254" y="48" type="line"/>
      <point x="185" y="530" type="line"/>
      <point x="165" y="530" type="line"/>
      <point x="97" y="48" type="line"/>
      <point x="30" y="531" type="line"/>
      <point x="10" y="527" type="line"/>
    </contour>
  </outline>
</glyph>
<glyph name="z" format="2">
  <advance width="233"/>
  <unicode hex="007A"/>
  <anchor x="116" y="530" name="top"/>
  <outline>
    <contour>
      <point x="19" y="0" type="line"/>
      <point x="221" y="0" type="line"/>
      <point x="221" y="19" type="line"/>
      <point x="41" y="19" type="line"/>
      <point x="206" y="512" type="line"/>
      <point x="206" y="530" type="line"/>
      <point x="25" y="530" type="line"/>
      <point x="25" y="511" type="line"/>
      <point x="185" y="511" type="line"/>
      <point x="19" y="18" type="line"/>
    </contour>
  </outline>
</glyph>
<glyph name="braceright" format="2">
  <advance width="194"/>
  <unicode hex="007D"/>
  <outline>
    <contour>
      <point x="29" y="-190" type="line"/>
      <point x="29" y="-210" type="line"/>
      <point x="50" y="-210" type="line" smooth="yes"/>
      <point x="104" y="-210"/>
      <point x="126" y="-146"/>
      <point x="126" y="-73" type="curve" smooth="yes"/>
      <point x="126" y="20"/>
      <point x="93" y="83"/>
      <point x="93" y="170" type="curve" smooth="yes"/>
      <point x="93" y="208"/>
      <point x="103" y="255"/>
      <point x="124" y="255" type="curve" smooth="yes"/>
      <point x="144" y="255" type="line"/>
      <point x="144" y="275" type="line"/>
      <point x="124" y="275" type="line" smooth="yes"/>
      <point x="102" y="275"/>
      <point x="93" y="323"/>
      <point x="93" y="360" type="curve" smooth="yes"/>
      <point x="93" y="444"/>
      <point x="126" y="503"/>
      <point x="126" y="603" type="curve" smooth="yes"/>
      <point x="126" y="676"/>
      <point x="104" y="740"/>
      <point x="50" y="740" type="curve" smooth="yes"/>
      <point x="29" y="740" type="line"/>
      <point x="29" y="720" type="line"/>
      <point x="50" y="720" type="line" smooth="yes"/>
      <point x="89" y="720"/>
      <point x="106" y="666"/>
      <point x="106" y="603" type="curve" smooth="yes"/>
      <point x="106" y="509"/>
      <point x="73" y="445"/>
      <point x="73" y="360" type="curve" smooth="yes"/>
      <point x="73" y="327"/>
      <point x="82" y="286"/>
      <point x="107" y="265" type="curve"/>
      <point x="82" y="249"/>
      <point x="73" y="203"/>
      <point x="73" y="170" type="curve" smooth="yes"/>
      <point x="73" y="78"/>
      <point x="106" y="14"/>
      <point x="106" y="-73" type="curve" smooth="yes"/>
      <point x="106" y="-136"/>
      <point x="89" y="-190"/>
      <point x="50" y="-190" type="curve" smooth="yes"/>
    </contour>
  </outline>
</glyph>
<glyph name="asciitilde" format="2">
  <advance width="370"/>
  <unicode hex="007E"/>
  <outline>
    <contour>
      <point x="316" y="251" type="curve"/>
      <point x="316" y="276" type="line"/>
      <point x="299" y="250"/>
      <point x="286" y="239"/>
      <point x="265" y="239" type="curve" smooth="yes"/>
      <point x="206" y="239"/>
      <point x="171" y="360"/>
      <point x="107" y="360" type="curve" smooth="yes"/>
      <point x="83" y="360"/>
      <point x="70" y="351"/>
      <point x="55" y="328" type="curve"/>
      <point x="55" y="303" type="line"/>
      <point x="72" y="329"/>
      <point x="85" y="340"/>
      <point x="106" y="340" type="curve" smooth="yes"/>
      <point x="159" y="340"/>
      <point x="195" y="219"/>
      <point x="264" y="219" type="curve" smooth="yes"/>
      <point x="288" y="219"/>
      <point x="301" y="228"/>
    </contour>
  </outline>
</glyph>
<glyph name="cent" format="2">
  <advance width="250"/>
  <unicode hex="00A2"/>
  <outline>
    <contour>
      <point x="153" y="-10" type="curve" smooth="yes"/>
      <point x="164" y="-10"/>
      <point x="175" y="-8"/>
      <point x="191" y="-3" type="curve"/>
      <point x="187" y="14" type="line"/>
      <point x="172" y="10"/>
      <point x="164" y="9"/>
      <point x="153" y="9" type="curve" smooth="yes"/>
      <point x="100" y="9"/>
      <point x="80" y="84"/>
      <point x="80" y="254" type="curve" smooth="yes"/>
      <point x="80" y="440"/>
      <point x="104" y="521"/>
      <point x="152" y="521" type="curve" smooth="yes"/>
      <point x="163" y="521"/>
      <point x="173" y="519"/>
      <point x="181" y="516" type="curve"/>
      <point x="186" y="533" type="line"/>
      <point x="174" y="538"/>
      <point x="162" y="540"/>
      <point x="152" y="540" type="curve" smooth="yes"/>
      <point x="86" y="540"/>
      <point x="60" y="448"/>
      <point x="60" y="254" type="curve" smooth="yes"/>
      <point x="60" y="73"/>
      <point x="85" y="-10"/>
    </contour>
    <contour>
      <point x="130" y="-105" type="line"/>
      <point x="150" y="-105" type="line"/>
      <point x="150" y="-5" type="line"/>
      <point x="130" y="-2" type="line"/>
    </contour>
    <contour>
      <point x="130" y="531" type="line"/>
      <point x="150" y="535" type="line"/>
      <point x="150" y="635" type="line"/>
      <point x="130" y="635" type="line"/>
    </contour>
  </outline>
</glyph>
<glyph name="currency" format="2">
  <advance width="415"/>
  <unicode hex="00A4"/>
  <outline>
    <contour>
      <point x="32" y="451" type="line"/>
      <point x="106" y="376" type="line"/>
      <point x="87" y="353"/>
      <point x="75" y="323"/>
      <point x="75" y="289" type="curve" smooth="yes"/>
      <point x="75" y="255"/>
      <point x="87" y="225"/>
      <point x="107" y="202" type="curve"/>
      <point x="32" y="127" type="line"/>
      <point x="46" y="113" type="line"/>
      <point x="121" y="188" type="line"/>
      <point x="144" y="168"/>
      <point x="174" y="157"/>
      <point x="207" y="157" type="curve" smooth="yes"/>
      <point x="240" y="157"/>
      <point x="271" y="168"/>
      <point x="294" y="188" type="curve"/>
      <point x="369" y="113" type="line"/>
      <point x="383" y="127" type="line"/>
      <point x="308" y="202" type="line"/>
      <point x="328" y="225"/>
      <point x="340" y="255"/>
      <point x="340" y="289" type="curve" smooth="yes"/>
      <point x="340" y="323"/>
      <point x="328" y="353"/>
      <point x="308" y="376" type="curve"/>
      <point x="383" y="451" type="line"/>
      <point x="369" y="465" type="line"/>
      <point x="294" y="390" type="line"/>
      <point x="271" y="410"/>
      <point x="241" y="422"/>
      <point x="207" y="422" type="curve" smooth="yes"/>
      <point x="173" y="422"/>
      <point x="143" y="410"/>
      <point x="120" y="390" type="curve"/>
      <point x="46" y="465" type="line"/>
    </contour>
    <contour>
      <point x="207" y="177" type="curve" smooth="yes"/>
      <point x="145" y="177"/>
      <point x="95" y="227"/>
      <point x="95" y="289" type="curve" smooth="yes"/>
      <point x="95" y="352"/>
      <point x="145" y="402"/>
      <point x="207" y="402" type="curve" smooth="yes"/>
      <point x="270" y="402"/>
      <point x="320" y="352"/>
      <point x="320" y="289" type="curve" smooth="yes"/>
      <point x="320" y="227"/>
      <point x="270" y="177"/>
    </contour>
  </outline>
</glyph>
<glyph name="yen" format="2">
  <advance width="250"/>
  <unicode hex="00A5"/>
  <outline>
    <contour>
      <point x="48" y="366" type="line"/>
      <point x="118" y="366" type="line"/>
      <point x="118" y="228" type="line"/>
      <point x="48" y="228" type="line"/>
      <point x="48" y="208" type="line"/>
      <point x="118" y="208" type="line"/>
      <point x="118" y="0" type="line"/>
      <point x="138" y="0" type="line"/>
      <point x="138" y="208" type="line"/>
      <point x="208" y="208" type="line"/>
      <point x="208" y="228" type="line"/>
      <point x="138" y="228" type="line"/>
      <point x="138" y="366" type="line"/>
      <point x="208" y="366" type="line"/>
      <point x="208" y="386" type="line"/>
      <point x="138" y="386" type="line"/>
      <point x="211" y="697" type="line"/>
      <point x="191" y="703" type="line"/>
      <point x="128" y="418" type="line"/>
      <point x="59" y="703" type="line"/>
      <point x="39" y="697" type="line"/>
      <point x="118" y="386" type="line"/>
      <point x="48" y="386" type="line"/>
    </contour>
  </outline>
</glyph>
<glyph name="ordfeminine" format="2">
  <advance width="189"/>
  <unicode hex="00AA"/>
  <outline>
    <contour>
      <point x="23" y="302" type="line"/>
      <point x="169" y="302" type="line"/>
      <point x="169" y="320" type="line"/>
      <point x="23" y="320" type="line"/>
    </contour>
    <component base="a.superior" xOffset="12"/>
  </outline>
</glyph>
<glyph name="logicalnot" format="2">
  <advance width="370"/>
  <unicode hex="00AC"/>
  <outline>
    <contour>
      <point x="43" y="384" type="line"/>
      <point x="308" y="384" type="line"/>
      <point x="308" y="177" type="line"/>
      <point x="328" y="177" type="line"/>
      <point x="328" y="404" type="line"/>
      <point x="43" y="404" type="line"/>
    </contour>
  </outline>
</glyph>
<glyph name="registered" format="2">
  <advance width="275"/>
  <unicode hex="00AE"/>
  <outline>
    <contour>
      <point x="138" y="208" type="curve" smooth="yes"/>
      <point x="211" y="208"/>
      <point x="242" y="284"/>
      <point x="242" y="550" type="curve" smooth="yes"/>
      <point x="242" y="817"/>
      <point x="211" y="892"/>
      <point x="138" y="892" type="curve" smooth="yes"/>
      <point x="65" y="892"/>
      <point x="33" y="817"/>
      <point x="33" y="550" type="curve" smooth="yes"/>
      <point x="33" y="284"/>
      <point x="65" y="208"/>
    </contour>
    <contour>
      <point x="138" y="224" type="curve" smooth="yes"/>
      <point x="78" y="224"/>
      <point x="50" y="299"/>
      <point x="50" y="550" type="curve" smooth="yes"/>
      <point x="50" y="802"/>
      <point x="78" y="876"/>
      <point x="138" y="876" type="curve" smooth="yes"/>
      <point x="198" y="876"/>
      <point x="226" y="802"/>
      <point x="226" y="550" type="curve" smooth="yes"/>
      <point x="226" y="299"/>
      <point x="198" y="224"/>
    </contour>
    <contour>
      <point x="194" y="401" type="curve" smooth="yes"/>
      <point x="197" y="401"/>
      <point x="198" y="401"/>
      <point x="203" y="402" type="curve"/>
      <point x="200" y="420" type="line"/>
      <point x="198" y="419"/>
      <point x="197" y="419"/>
      <point x="195" y="419" type="curve" smooth="yes"/>
      <point x="183" y="419"/>
      <point x="180" y="448"/>
      <point x="159" y="540" type="curve"/>
      <point x="185" y="556"/>
      <point x="188" y="591"/>
      <point x="188" y="632" type="curve" smooth="yes"/>
      <point x="188" y="692"/>
      <point x="171" y="716"/>
      <point x="131" y="716" type="curve" smooth="yes"/>
      <point x="120" y="716"/>
      <point x="106" y="714"/>
      <point x="90" y="710" type="curve"/>
      <point x="90" y="403" type="line"/>
      <point x="109" y="403" type="line"/>
      <point x="109" y="536" type="line"/>
      <point x="116" y="535"/>
      <point x="123" y="534"/>
      <point x="129" y="534" type="curve" smooth="yes"/>
      <point x="133" y="534"/>
      <point x="137" y="534"/>
      <point x="141" y="535" type="curve"/>
      <point x="169" y="415"/>
      <point x="172" y="401"/>
    </contour>
    <contour>
      <point x="125" y="552" type="curve" smooth="yes"/>
      <point x="120" y="552"/>
      <point x="114" y="552"/>
      <point x="109" y="553" type="curve"/>
      <point x="109" y="695" type="line"/>
      <point x="118" y="697"/>
      <point x="126" y="698"/>
      <point x="132" y="698" type="curve" smooth="yes"/>
      <point x="169" y="698"/>
      <point x="169" y="667"/>
      <point x="169" y="630" type="curve" smooth="yes"/>
      <point x="169" y="589"/>
      <point x="169" y="552"/>
    </contour>
  </outline>
</glyph>
<glyph name="degree" format="2">
  <advance width="218"/>
  <unicode hex="00B0"/>
  <outline>
    <contour>
      <point x="108" y="520" type="curve" smooth="yes"/>
      <point x="160" y="520"/>
      <point x="188" y="566"/>
      <point x="188" y="623" type="curve" smooth="yes"/>
      <point x="188" y="680"/>
      <point x="160" y="728"/>
      <point x="108" y="728" type="curve" smooth="yes"/>
      <point x="56" y="728"/>
      <point x="30" y="680"/>
      <point x="30" y="623" type="curve" smooth="yes"/>
      <point x="30" y="566"/>
      <point x="56" y="520"/>
    </contour>
    <contour>
      <point x="108" y="540" type="curve" smooth="yes"/>
      <point x="67" y="540"/>
      <point x="50" y="577"/>
      <point x="50" y="623" type="curve" smooth="yes"/>
      <point x="50" y="669"/>
      <point x="67" y="708"/>
      <point x="108" y="708" type="curve" smooth="yes"/>
      <point x="149" y="708"/>
      <point x="168" y="669"/>
      <point x="168" y="623" type="curve" smooth="yes"/>
      <point x="168" y="577"/>
      <point x="149" y="540"/>
    </contour>
  </outline>
</glyph>
<glyph name="plusminus" format="2">
  <advance width="402"/>
  <unicode hex="00B1"/>
  <outline>
    <contour>
      <point x="39" y="72" type="line"/>
      <point x="363" y="72" type="line"/>
      <point x="363" y="92" type="line"/>
      <point x="211" y="92" type="line"/>
      <point x="211" y="298" type="line"/>
      <point x="363" y="298" type="line"/>
      <point x="363" y="318" type="line"/>
      <point x="211" y="318" type="line"/>
      <point x="211" y="502" type="line"/>
      <point x="191" y="502" type="line"/>
      <point x="191" y="318" type="line"/>
      <point x="39" y="318" type="line"/>
      <point x="39" y="298" type="line"/>
      <point x="191" y="298" type="line"/>
      <point x="191" y="92" type="line"/>
      <point x="39" y="92" type="line"/>
    </contour>
  </outline>
</glyph>
<glyph name="uni00B2" format="2">
  <advance width="220"/>
  <unicode hex="00B2"/>
  <outline>
    <contour>
      <point x="53" y="370" type="line"/>
      <point x="175" y="370" type="line"/>
      <point x="175" y="386" type="line"/>
      <point x="69" y="386" type="line"/>
      <point x="131" y="536"/>
      <point x="157" y="617"/>
      <point x="157" y="676" type="curve" smooth="yes"/>
      <point x="157" y="739"/>
      <point x="136" y="776"/>
      <point x="99" y="776" type="curve" smooth="yes"/>
      <point x="79" y="776"/>
      <point x="61" y="770"/>
      <point x="45" y="746" type="curve"/>
      <point x="53" y="734" type="line"/>
      <point x="68" y="757"/>
      <point x="81" y="760"/>
      <point x="98" y="760" type="curve" smooth="yes"/>
      <point x="123" y="760"/>
      <point x="139" y="726"/>
      <point x="139" y="673" type="curve" smooth="yes"/>
      <point x="139" y="618"/>
      <point x="111" y="526"/>
      <point x="50" y="384" type="curve"/>
    </contour>
  </outline>
</glyph>
<glyph name="uni00B5" format="2">
  <advance width="269"/>
  <unicode hex="00B5"/>
  <outline>
    <contour>
      <point x="44" y="-210" type="line"/>
      <point x="64" y="-210" type="line"/>
      <point x="64" y="18" type="line"/>
      <point x="78" y="-4"/>
      <point x="98" y="-10"/>
      <point x="119" y="-10" type="curve" smooth="yes"/>
      <point x="146" y="-10"/>
      <point x="177" y="0"/>
      <point x="200" y="15" type="curve"/>
      <point x="203" y="0"/>
      <point x="218" y="-10"/>
      <point x="236" y="-10" type="curve" smooth="yes"/>
      <point x="246" y="-10"/>
      <point x="257" y="-8"/>
      <point x="271" y="-1" type="curve"/>
      <point x="264" y="16" type="line"/>
      <point x="254" y="11"/>
      <point x="245" y="9"/>
      <point x="236" y="9" type="curve" smooth="yes"/>
      <point x="223" y="9"/>
      <point x="217" y="17"/>
      <point x="217" y="34" type="curve" smooth="yes"/>
      <point x="217" y="530" type="line"/>
      <point x="197" y="530" type="line"/>
      <point x="197" y="34" type="line"/>
      <point x="179" y="19"/>
      <point x="146" y="8"/>
      <point x="126" y="8" type="curve" smooth="yes"/>
      <point x="84" y="8"/>
      <point x="64" y="35"/>
      <point x="64" y="84" type="curve" smooth="yes"/>
      <point x="64" y="530" type="line"/>
      <point x="44" y="530" type="line"/>
    </contour>
  </outline>
</glyph>
<glyph name="uni00B9" format="2">
  <advance width="207"/>
  <unicode hex="00B9"/>
  <outline>
    <contour>
      <point x="28" y="370" type="line"/>
      <point x="179" y="370" type="line"/>
      <point x="179" y="387" type="line"/>
      <point x="116" y="387" type="line"/>
      <point x="116" y="770" type="line"/>
      <point x="106" y="770" type="line"/>
      <point x="28" y="701" type="line"/>
      <point x="36" y="686" type="line"/>
      <point x="97" y="742" type="line"/>
      <point x="97" y="387" type="line"/>
      <point x="28" y="387" type="line"/>
    </contour>
  </outline>
</glyph>
<glyph name="AE" format="2">
  <advance width="436"/>
  <unicode hex="00C6"/>
  <anchor x="250" y="700" name="top"/>
  <outline>
    <contour>
      <point x="20" y="0" type="line"/>
      <point x="40" y="-1" type="line"/>
      <point x="136" y="326" type="line"/>
      <point x="240" y="326" type="line"/>
      <point x="240" y="0" type="line"/>
      <point x="425" y="0" type="line"/>
      <point x="425" y="20" type="line"/>
      <point x="260" y="20" type="line"/>
      <point x="260" y="325" type="line"/>
      <point x="400" y="325" type="line"/>
      <point x="400" y="345" type="line"/>
      <point x="260" y="345" type="line"/>
      <point x="260" y="680" type="line"/>
      <point x="415" y="680" type="line"/>
      <point x="415" y="700" type="line"/>
      <point x="226" y="700" type="line"/>
    </contour>
    <contour>
      <point x="141" y="345" type="line"/>
      <point x="240" y="681" type="line"/>
      <point x="240" y="345" type="line"/>
    </contour>
  </outline>
</glyph>
<glyph name="multiply" format="2">
  <advance width="350"/>
  <unicode hex="00D7"/>
  <outline>
    <contour>
      <point x="72" y="76" type="line"/>
      <point x="174" y="267" type="line"/>
      <point x="278" y="77" type="line"/>
      <point x="296" y="86" type="line"/>
      <point x="186" y="288" type="line"/>
      <point x="295" y="492" type="line"/>
      <point x="277" y="501" type="line"/>
      <point x="174" y="310" type="line"/>
      <point x="72" y="501" type="line"/>
      <point x="54" y="492" type="line"/>
      <point x="163" y="288" type="line"/>
      <point x="54" y="85" type="line"/>
    </contour>
  </outline>
</glyph>
<glyph name="Thorn" format="2">
  <advance width="248"/>
  <unicode hex="00DE"/>
  <outline>
    <contour>
      <point x="43" y="0" type="line"/>
      <point x="63" y="0" type="line"/>
      <point x="63" y="187" type="line"/>
      <point x="73" y="186"/>
      <point x="88" y="186"/>
      <point x="104" y="186" type="curve" smooth="yes"/>
      <point x="188" y="186"/>
      <point x="232" y="248"/>
      <point x="232" y="404" type="curve" smooth="yes"/>
      <point x="232" y="555"/>
      <point x="202" y="602"/>
      <point x="107" y="602" type="curve" smooth="yes"/>
      <point x="93" y="602"/>
      <point x="79" y="601"/>
      <point x="63" y="599" type="curve"/>
      <point x="63" y="700" type="line"/>
      <point x="43" y="700" type="line"/>
    </contour>
    <contour>
      <point x="105" y="206" type="curve" smooth="yes"/>
      <point x="89" y="206"/>
      <point x="76" y="206"/>
      <point x="63" y="207" type="curve"/>
      <point x="63" y="580" type="line"/>
      <point x="79" y="583"/>
      <point x="94" y="584"/>
      <point x="108" y="584" type="curve" smooth="yes"/>
      <point x="193" y="584"/>
      <point x="212" y="533"/>
      <point x="212" y="401" type="curve" smooth="yes"/>
      <point x="212" y="260"/>
      <point x="176" y="206"/>
    </contour>
  </outline>
</glyph>
<glyph name="ae" format="2">
  <advance width="399"/>
  <unicode hex="00E6"/>
  <anchor x="200" y="530" name="top"/>
  <outline>
    <contour>
      <point x="95" y="-10" type="curve" smooth="yes"/>
      <point x="131" y="-10"/>
      <point x="167" y="14"/>
      <point x="201" y="62" type="curve"/>
      <point x="202" y="62" type="line"/>
      <point x="219" y="13"/>
      <point x="246" y="-10"/>
      <point x="288" y="-10" type="curve" smooth="yes"/>
      <point x="317" y="-10"/>
      <point x="343" y="-5"/>
      <point x="365" y="6" type="curve"/>
      <point x="360" y="24" type="line"/>
      <point x="337" y="14"/>
      <point x="312" y="9"/>
      <point x="289" y="9" type="curve" smooth="yes"/>
      <point x="225" y="9"/>
      <point x="200" y="67"/>
      <point x="200" y="265" type="curve" smooth="yes"/>
      <point x="200" y="271"/>
      <point x="200" y="277"/>
      <point x="200" y="283" type="curve"/>
      <point x="285" y="283"/>
      <point x="340" y="296"/>
      <point x="375" y="302" type="curve"/>
      <point x="375" y="305"/>
      <point x="376" y="309"/>
      <point x="376" y="325" type="curve" smooth="yes"/>
      <point x="376" y="468"/>
      <point x="345" y="540"/>
      <point x="281" y="540" type="curve" smooth="yes"/>
      <point x="234" y="540"/>
      <point x="206" y="500"/>
      <point x="195" y="434" type="curve"/>
      <point x="194" y="434" type="line"/>
      <point x="195" y="502"/>
      <point x="166" y="540"/>
      <point x="111" y="540" type="curve" smooth="yes"/>
      <point x="86" y="540"/>
      <point x="61" y="535"/>
      <point x="35" y="524" type="curve"/>
      <point x="42" y="507" type="line"/>
      <point x="64" y="516"/>
      <point x="87" y="520"/>
      <point x="111" y="520" type="curve" smooth="yes"/>
      <point x="157" y="520"/>
      <point x="181" y="488"/>
      <point x="181" y="421" type="curve" smooth="yes"/>
      <point x="181" y="295" type="line"/>
      <point x="56" y="252"/>
      <point x="9" y="201"/>
      <point x="9" y="106" type="curve" smooth="yes"/>
      <point x="9" y="33"/>
      <point x="41" y="-10"/>
    </contour>
    <contour>
      <point x="97" y="9" type="curve" smooth="yes"/>
      <point x="54" y="9"/>
      <point x="29" y="47"/>
      <point x="29" y="111" type="curve" smooth="yes"/>
      <point x="29" y="192"/>
      <point x="78" y="244"/>
      <point x="181" y="276" type="curve"/>
      <point x="181" y="267"/>
      <point x="181" y="259"/>
      <point x="181" y="250" type="curve" smooth="yes"/>
      <point x="181" y="178"/>
      <point x="188" y="122"/>
      <point x="195" y="83" type="curve"/>
      <point x="167" y="38"/>
      <point x="129" y="9"/>
    </contour>
    <contour>
      <point x="200" y="301" type="curve"/>
      <point x="200" y="456"/>
      <point x="227" y="522"/>
      <point x="280" y="522" type="curve" smooth="yes"/>
      <point x="331" y="522"/>
      <point x="356" y="454"/>
      <point x="356" y="318" type="curve"/>
      <point x="326" y="309"/>
      <point x="249" y="301"/>
    </contour>
  </outline>
</glyph>
<glyph name="oslash" format="2">
  <advance width="252"/>
  <unicode hex="00F8"/>
  <anchor x="126" y="530" name="top"/>
  <outline>
    <contour>
      <point x="126" y="-10" type="curve" smooth="yes"/>
      <point x="57" y="-10"/>
      <point x="29" y="44"/>
      <point x="29" y="265" type="curve" smooth="yes"/>
      <point x="29" y="486"/>
      <point x="57" y="540"/>
      <point x="126" y="540" type="curve" smooth="yes"/>
      <point x="195" y="540"/>
      <point x="223" y="486"/>
      <point x="223" y="265" type="curve" smooth="yes"/>
      <point x="223" y="44"/>
      <point x="195" y="-10"/>
    </contour>
    <contour>
      <point x="126" y="8" type="curve" smooth="yes"/>
      <point x="181" y="8"/>
      <point x="203" y="60"/>
      <point x="203" y="265" type="curve" smooth="yes"/>
      <point x="203" y="470"/>
      <point x="181" y="522"/>
      <point x="126" y="522" type="curve" smooth="yes"/>
      <point x="71" y="522"/>
      <point x="49" y="470"/>
      <point x="49" y="265" type="curve" smooth="yes"/>
      <point x="49" y="60"/>
      <point x="71" y="8"/>
    </contour>
    <contour>
      <point x="27" y="-10" type="line"/>
      <point x="50" y="63" type="line"/>
      <point x="52" y="63" type="line"/>
      <point x="188" y="492" type="line"/>
      <point x="190" y="492" type="line"/>
      <point x="205" y="540" type="line"/>
      <point x="225" y="540" type="line"/>
      <point x="201" y="464" type="line"/>
      <point x="199" y="464" type="line"/>
      <point x="64" y="38" type="line"/>
      <point x="62" y="38" type="line"/>
      <point x="47" y="-10" type="line"/>
    </contour>
  </outline>
</glyph>
<glyph name="Dcroat" format="2">
  <advance width="294"/>
  <unicode hex="0110"/>
  <outline>
    <contour>
      <point x="7" y="350" type="line"/>
      <point x="173" y="350" type="line"/>
      <point x="173" y="370" type="line"/>
      <point x="7" y="370" type="line"/>
    </contour>
    <component base="D" xOffset="7"/>
  </outline>
</glyph>
<glyph name="Hbar" format="2">
  <advance width="308"/>
  <unicode hex="0126"/>
  <outline>
    <contour>
      <point x="13" y="502" type="line"/>
      <point x="43" y="502" type="line"/>
      <point x="43" y="0" type="line"/>
      <point x="63" y="0" type="line"/>
      <point x="63" y="291" type="line"/>
      <point x="245" y="291" type="line"/>
      <point x="245" y="0" type="line"/>
      <point x="265" y="0" type="line"/>
      <point x="265" y="502" type="line"/>
      <point x="295" y="502" type="line"/>
      <point x="295" y="519" type="line"/>
      <point x="265" y="519" type="line"/>
      <point x="265" y="700" type="line"/>
      <point x="245" y="700" type="line"/>
      <point x="245" y="519" type="line"/>
      <point x="63" y="519" type="line"/>
      <point x="63" y="700" type="line"/>
      <point x="43" y="700" type="line"/>
      <point x="43" y="519" type="line"/>
      <point x="13" y="519" type="line"/>
    </contour>
    <contour>
      <point x="63" y="310" type="line"/>
      <point x="63" y="502" type="line"/>
      <point x="245" y="502" type="line"/>
      <point x="245" y="310" type="line"/>
    </contour>
  </outline>
</glyph>
<glyph name="hbar" format="2">
  <advance width="261"/>
  <unicode hex="0127"/>
  <outline>
    <contour>
      <point x="3" y="618" type="line"/>
      <point x="143" y="618" type="line"/>
      <point x="143" y="636" type="line"/>
      <point x="3" y="636" type="line"/>
    </contour>
    <component base="h"/>
  </outline>
</glyph>
<glyph name="Ldot" format="2">
  <advance width="208"/>
  <unicode hex="013F"/>
  <outline>
    <contour>
      <point x="144" y="357" type="curve" smooth="yes"/>
      <point x="144" y="341"/>
      <point x="145" y="340"/>
      <point x="158" y="340" type="curve" smooth="yes"/>
      <point x="172" y="340"/>
      <point x="172" y="341"/>
      <point x="172" y="357" type="curve" smooth="yes"/>
      <point x="172" y="373"/>
      <point x="172" y="374"/>
      <point x="158" y="374" type="curve" smooth="yes"/>
      <point x="144" y="374"/>
      <point x="144" y="373"/>
    </contour>
    <component base="L"/>
  </outline>
</glyph>
<glyph name="ldot" format="2">
  <advance width="133"/>
  <unicode hex="0140"/>
  <outline>
    <contour>
      <point x="119" y="340" type="curve" smooth="yes"/>
      <point x="133" y="340"/>
      <point x="133" y="341"/>
      <point x="133" y="357" type="curve" smooth="yes"/>
      <point x="133" y="373"/>
      <point x="133" y="374"/>
      <point x="119" y="374" type="curve" smooth="yes"/>
      <point x="105" y="374"/>
      <point x="105" y="373"/>
      <point x="105" y="357" type="curve" smooth="yes"/>
      <point x="105" y="341"/>
      <point x="106" y="340"/>
    </contour>
    <component base="l"/>
  </outline>
</glyph>
<glyph name="Lslash" format="2">
  <advance width="232"/>
  <unicode hex="0141"/>
  <outline>
    <contour>
      <point x="24" y="214" type="line"/>
      <point x="67" y="258" type="line"/>
      <point x="67" y="0" type="line"/>
      <point x="228" y="0" type="line"/>
      <point x="228" y="19" type="line"/>
      <point x="87" y="19" type="line"/>
      <point x="87" y="276" type="line"/>
      <point x="205" y="396" type="line"/>
      <point x="205" y="422" type="line"/>
      <point x="87" y="303" type="line"/>
      <point x="87" y="700" type="line"/>
      <point x="67" y="700" type="line"/>
      <point x="67" y="285" type="line"/>
      <point x="24" y="241" type="line"/>
    </contour>
  </outline>
</glyph>
<glyph name="OE" format="2">
  <advance width="420"/>
  <unicode hex="0152"/>
  <outline>
    <contour>
      <point x="409" y="0" type="line"/>
      <point x="409" y="20" type="line"/>
      <point x="244" y="20" type="line"/>
      <point x="244" y="353" type="line"/>
      <point x="384" y="353" type="line"/>
      <point x="384" y="373" type="line"/>
      <point x="244" y="373" type="line"/>
      <point x="244" y="680" type="line"/>
      <point x="399" y="680" type="line"/>
      <point x="399" y="700" type="line"/>
      <point x="244" y="700" type="line"/>
      <point x="225" y="703"/>
      <point x="200" y="704"/>
      <point x="173" y="704" type="curve" smooth="yes"/>
      <point x="86" y="704"/>
      <point x="28" y="661"/>
      <point x="28" y="350" type="curve" smooth="yes"/>
      <point x="28" y="66"/>
      <point x="76" y="-6"/>
      <point x="169" y="-6" type="curve" smooth="yes"/>
      <point x="191" y="-6"/>
      <point x="216" y="-4"/>
      <point x="244" y="0" type="curve"/>
    </contour>
    <contour>
      <point x="224" y="16" type="line"/>
      <point x="209" y="14"/>
      <point x="192" y="13"/>
      <point x="179" y="13" type="curve" smooth="yes"/>
      <point x="92" y="13"/>
      <point x="49" y="63"/>
      <point x="49" y="350" type="curve" smooth="yes"/>
      <point x="49" y="642"/>
      <point x="94" y="686"/>
      <point x="185" y="686" type="curve" smooth="yes"/>
      <point x="197" y="686"/>
      <point x="209" y="685"/>
      <point x="224" y="683" type="curve"/>
    </contour>
  </outline>
</glyph>
<glyph name="uogonek" format="2">
  <advance width="269"/>
  <unicode hex="0173"/>
  <outline>
    <contour>
      <point x="252" y="-221" type="curve" smooth="yes"/>
      <point x="262" y="-221"/>
      <point x="270" y="-218"/>
      <point x="278" y="-213" type="curve"/>
      <point x="272" y="-199" type="line"/>
      <point x="266" y="-203"/>
      <point x="261" y="-204"/>
      <point x="255" y="-204" type="curve" smooth="yes"/>
      <point x="241" y="-204"/>
      <point x="229" y="-195"/>
      <point x="229" y="-160" type="curve" smooth="yes"/>
      <point x="229" y="-111"/>
      <point x="242" y="-61"/>
      <point x="271" y="-1" type="curve"/>
      <point x="264" y="16" type="line"/>
      <point x="254" y="11"/>
      <point x="245" y="9"/>
      <point x="236" y="9" type="curve" smooth="yes"/>
      <point x="223" y="9"/>
      <point x="217" y="17"/>
      <point x="217" y="34" type="curve" smooth="yes"/>
      <point x="217" y="530" type="line"/>
      <point x="197" y="530" type="line"/>
      <point x="197" y="34" type="line"/>
      <point x="179" y="19"/>
      <point x="146" y="8"/>
      <point x="126" y="8" type="curve" smooth="yes"/>
      <point x="84" y="8"/>
      <point x="64" y="35"/>
      <point x="64" y="84" type="curve" smooth="yes"/>
      <point x="64" y="530" type="line"/>
      <point x="44" y="530" type="line"/>
      <point x="44" y="84" type="line" smooth="yes"/>
      <point x="44" y="14"/>
      <point x="79" y="-10"/>
      <point x="119" y="-10" type="curve" smooth="yes"/>
      <point x="146" y="-10"/>
      <point x="177" y="0"/>
      <point x="200" y="15" type="curve"/>
      <point x="203" y="0"/>
      <point x="218" y="-10"/>
      <point x="236" y="-10" type="curve" smooth="yes"/>
      <point x="242" y="-10"/>
      <point x="249" y="-9"/>
      <point x="257" y="-7" type="curve"/>
      <point x="256" y="6" type="line"/>
      <point x="224" y="-65"/>
      <point x="211" y="-119"/>
      <point x="211" y="-161" type="curve" smooth="yes"/>
      <point x="211" y="-205"/>
      <point x="228" y="-221"/>
    </contour>
  </outline>
</glyph>
<glyph name="longs" format="2">
  <advance width="160"/>
  <unicode hex="017F"/>
  <outline>
    <contour>
      <point x="91" y="486" type="line"/>
      <point x="91" y="696"/>
      <point x="128" y="731"/>
      <point x="182" y="731" type="curve" smooth="yes"/>
      <point x="195" y="731"/>
      <point x="208" y="730"/>
      <point x="223" y="725" type="curve"/>
      <point x="227" y="743" type="line"/>
      <point x="210" y="748"/>
      <point x="195" y="750"/>
      <point x="182" y="750" type="curve" smooth="yes"/>
      <point x="84" y="750"/>
      <point x="71" y="640"/>
      <point x="71" y="486" type="curve" smooth="yes"/>
      <point x="71" y="484" type="line"/>
      <point x="11" y="478" type="line"/>
      <point x="11" y="465" type="line"/>
      <point x="71" y="465" type="line"/>
      <point x="71" y="0" type="line"/>
      <point x="91" y="0" type="line"/>
    </contour>
  </outline>
</glyph>
<glyph name="uni0306" format="2">
  <unicode hex="0306"/>
  <anchor x="-126" y="696" name="top"/>
  <anchor x="-126" y="530" name="_top"/>
  <outline>
    <contour>
      <point x="-126" y="604" type="curve" smooth="yes"/>
      <point x="-74" y="604"/>
      <point x="-43" y="635"/>
      <point x="-43" y="712" type="curve" smooth="yes"/>
      <point x="-43" y="716"/>
      <point x="-43" y="719"/>
      <point x="-43" y="723" type="curve"/>
      <point x="-61" y="725" type="line"/>
      <point x="-61" y="721"/>
      <point x="-61" y="716"/>
      <point x="-61" y="713" type="curve" smooth="yes"/>
      <point x="-61" y="646"/>
      <point x="-87" y="622"/>
      <point x="-126" y="622" type="curve" smooth="yes"/>
      <point x="-165" y="622"/>
      <point x="-191" y="646"/>
      <point x="-191" y="713" type="curve" smooth="yes"/>
      <point x="-191" y="716"/>
      <point x="-191" y="721"/>
      <point x="-191" y="725" type="curve"/>
      <point x="-209" y="723" type="line"/>
      <point x="-209" y="719"/>
      <point x="-209" y="716"/>
      <point x="-209" y="712" type="curve" smooth="yes"/>
      <point x="-209" y="635"/>
      <point x="-178" y="604"/>
    </contour>
  </outline>
</glyph>
<glyph name="uni0307" format="2">
  <unicode hex="0307"/>
  <anchor x="-126" y="632" name="top"/>
  <anchor x="-126" y="530" name="_top"/>
  <outline>
    <contour>
      <point x="-126" y="676" type="curve" smooth="yes"/>
      <point x="-114" y="676"/>
      <point x="-112" y="684"/>
      <point x="-112" y="694" type="curve" smooth="yes"/>
      <point x="-112" y="704"/>
      <point x="-114" y="712"/>
      <point x="-126" y="712" type="curve" smooth="yes"/>
      <point x="-136" y="712"/>
      <point x="-140" y="704"/>
      <point x="-140" y="694" type="curve" smooth="yes"/>
      <point x="-140" y="684"/>
      <point x="-136" y="676"/>
    </contour>
  </outline>
</glyph>
<glyph name="uni0308" format="2">
  <unicode hex="0308"/>
  <anchor x="-126" y="632" name="top"/>
  <anchor x="-126" y="530" name="_top"/>
  <outline>
    <contour>
      <point x="-74" y="676" type="curve" smooth="yes"/>
      <point x="-63" y="676"/>
      <point x="-61" y="684"/>
      <point x="-61" y="694" type="curve" smooth="yes"/>
      <point x="-61" y="704"/>
      <point x="-63" y="712"/>
      <point x="-74" y="712" type="curve" smooth="yes"/>
      <point x="-85" y="712"/>
      <point x="-87" y="704"/>
      <point x="-87" y="694" type="curve" smooth="yes"/>
      <point x="-87" y="684"/>
      <point x="-85" y="676"/>
    </contour>
    <contour>
      <point x="-178" y="676" type="curve" smooth="yes"/>
      <point x="-167" y="676"/>
      <point x="-165" y="684"/>
      <point x="-165" y="694" type="curve" smooth="yes"/>
      <point x="-165" y="704"/>
      <point x="-167" y="712"/>
      <point x="-178" y="712" type="curve" smooth="yes"/>
      <point x="-189" y="712"/>
      <point x="-191" y="704"/>
      <point x="-191" y="694" type="curve" smooth="yes"/>
      <point x="-191" y="684"/>
      <point x="-189" y="676"/>
    </contour>
  </outline>
</glyph>
<glyph name="uni030F" format="2">
  <unicode hex="030F"/>
  <anchor x="-162" y="790" name="top"/>
  <anchor x="-126" y="530" name="_top"/>
  <outline>
    <contour>
      <point x="-168" y="596" type="line"/>
      <point x="-149" y="596" type="line"/>
      <point x="-228" y="790" type="line"/>
      <point x="-250" y="790" type="line"/>
    </contour>
    <contour>
      <point x="-93" y="596" type="line"/>
      <point x="-74" y="596" type="line"/>
      <point x="-153" y="790" type="line"/>
      <point x="-175" y="790" type="line"/>
    </contour>
  </outline>
</glyph>
<glyph name="uni031B" format="2">
  <unicode hex="031B"/>
  <anchor x="-79" y="530" name="_topright"/>
  <anchor x="15" y="685" name="topright"/>
  <outline>
    <contour>
      <point x="-89" y="513" type="line"/>
      <point x="-83" y="513" type="line" smooth="yes"/>
      <point x="-31" y="513"/>
      <point x="7" y="589"/>
      <point x="-32" y="684" type="curve"/>
      <point x="-50" y="676" type="line"/>
      <point x="-14" y="590"/>
      <point x="-47" y="530"/>
      <point x="-86" y="530" type="curve" smooth="yes"/>
      <point x="-89" y="530" type="line"/>
    </contour>
  </outline>
</glyph>
<glyph name="uni0327" format="2">
  <unicode hex="0327"/>
  <anchor x="-126" y="0" name="_bottom"/>
  <anchor x="-135" y="-220" name="bottom"/>
  <outline>
    <contour>
      <point x="-165" y="-195" type="curve"/>
      <point x="-172" y="-210" type="line"/>
      <point x="-159" y="-218"/>
      <point x="-145" y="-220"/>
      <point x="-135" y="-220" type="curve" smooth="yes"/>
      <point x="-101" y="-220"/>
      <point x="-88" y="-184"/>
      <point x="-88" y="-146" type="curve" smooth="yes"/>
      <point x="-88" y="-104"/>
      <point x="-106" y="-46"/>
      <point x="-126" y="0" type="curve"/>
      <point x="-142" y="0" type="line"/>
      <point x="-119" y="-58"/>
      <point x="-106" y="-109"/>
      <point x="-106" y="-146" type="curve" smooth="yes"/>
      <point x="-106" y="-182"/>
      <point x="-118" y="-203"/>
      <point x="-139" y="-203" type="curve" smooth="yes"/>
      <point x="-148" y="-203"/>
      <point x="-157" y="-200"/>
    </contour>
  </outline>
</glyph>
<glyph name="uni0335" format="2">
  <unicode hex="0335"/>
  <anchor x="-53" y="350" name="_center"/>
  <outline>
    <contour>
      <point x="-147" y="340" type="line"/>
      <point x="41" y="340" type="line"/>
      <point x="41" y="360" type="line"/>
      <point x="-147" y="360" type="line"/>
    </contour>
  </outline>
</glyph>
<glyph name="endash" format="2">
  <advance width="300"/>
  <unicode hex="2013"/>
  <outline>
    <contour>
      <point x="8" y="255" type="line"/>
      <point x="292" y="255" type="line"/>
      <point x="292" y="275" type="line"/>
      <point x="8" y="275" type="line"/>
    </contour>
  </outline>
</glyph>
<glyph name="emdash" format="2">
  <advance width="608"/>
  <unicode hex="2014"/>
  <outline>
    <contour>
      <point x="0" y="255" type="line"/>
      <point x="608" y="255" type="line"/>
      <point x="608" y="275" type="line"/>
      <point x="0" y="275" type="line"/>
    </contour>
  </outline>
</glyph>
<glyph name="quoteleft" format="2">
  <advance width="102"/>
  <unicode hex="2018"/>
  <outline>
    <contour>
      <point x="25" y="430" type="curve"/>
      <point x="43" y="430" type="line"/>
      <point x="43" y="442"/>
      <point x="43" y="454"/>
      <point x="43" y="466" type="curve" smooth="yes"/>
      <point x="43" y="566"/>
      <point x="59" y="632"/>
      <point x="93" y="700" type="curve"/>
      <point x="74" y="700" type="line"/>
      <point x="39" y="632"/>
      <point x="24" y="566"/>
      <point x="24" y="466" type="curve" smooth="yes"/>
      <point x="24" y="454"/>
      <point x="24" y="442"/>
    </contour>
  </outline>
</glyph>
<glyph name="guilsinglleft" format="2">
  <advance width="121"/>
  <unicode hex="2039"/>
  <outline>
    <contour>
      <point x="19" y="267" type="line"/>
      <point x="87" y="62" type="line"/>
      <point x="104" y="69" type="line"/>
      <point x="40" y="270" type="line"/>
      <point x="104" y="471" type="line"/>
      <point x="87" y="478" type="line"/>
      <point x="19" y="273" type="line"/>
    </contour>
  </outline>
</glyph>
<glyph name="guilsinglright" format="2">
  <advance width="121"/>
  <unicode hex="203A"/>
  <outline>
    <contour>
      <point x="102" y="273" type="line"/>
      <point x="34" y="478" type="line"/>
      <point x="17" y="471" type="line"/>
      <point x="81" y="270" type="line"/>
      <point x="17" y="69" type="line"/>
      <point x="34" y="62" type="line"/>
      <point x="102" y="267" type="line"/>
    </contour>
  </outline>
</glyph>
<glyph name="uni2074" format="2">
  <advance width="214"/>
  <unicode hex="2074"/>
  <outline>
    <contour>
      <point x="44" y="476" type="line"/>
      <point x="126" y="476" type="line"/>
      <point x="126" y="370" type="line"/>
      <point x="144" y="370" type="line"/>
      <point x="144" y="476" type="line"/>
      <point x="177" y="476" type="line"/>
      <point x="177" y="492" type="line"/>
      <point x="144" y="492" type="line"/>
      <point x="144" y="771" type="line"/>
      <point x="125" y="773" type="line"/>
      <point x="37" y="491" type="line"/>
    </contour>
    <contour>
      <point x="53" y="492" type="line"/>
      <point x="126" y="726" type="line"/>
      <point x="126" y="492" type="line"/>
    </contour>
  </outline>
</glyph>
<glyph name="uni2076" format="2">
  <advance width="208"/>
  <unicode hex="2076"/>
  <outline>
    <contour>
      <point x="109" y="360" type="curve" smooth="yes"/>
      <point x="150" y="360"/>
      <point x="173" y="408"/>
      <point x="173" y="481" type="curve" smooth="yes"/>
      <point x="173" y="552"/>
      <point x="152" y="595"/>
      <point x="113" y="595" type="curve" smooth="yes"/>
      <point x="89" y="595"/>
      <point x="62" y="569"/>
      <point x="58" y="538" type="curve"/>
      <point x="59" y="511" type="line"/>
      <point x="63" y="551"/>
      <point x="88" y="580"/>
      <point x="111" y="580" type="curve" smooth="yes"/>
      <point x="140" y="580"/>
      <point x="155" y="543"/>
      <point x="155" y="479" type="curve" smooth="yes"/>
      <point x="155" y="405"/>
      <point x="133" y="375"/>
      <point x="108" y="375" type="curve" smooth="yes"/>
      <point x="79" y="375"/>
      <point x="60" y="411"/>
      <point x="60" y="552" type="curve" smooth="yes"/>
      <point x="60" y="720"/>
      <point x="87" y="759"/>
      <point x="121" y="759" type="curve" smooth="yes"/>
      <point x="133" y="759"/>
      <point x="144" y="752"/>
      <point x="155" y="742" type="curve"/>
      <point x="163" y="755" type="line"/>
      <point x="150" y="767"/>
      <point x="136" y="774"/>
      <point x="122" y="774" type="curve" smooth="yes"/>
      <point x="79" y="774"/>
      <point x="43" y="736"/>
      <point x="43" y="552" type="curve" smooth="yes"/>
      <point x="43" y="397"/>
      <point x="67" y="360"/>
    </contour>
  </outline>
</glyph>
<glyph name="uni2077" format="2">
  <advance width="215"/>
  <unicode hex="2077"/>
  <outline>
    <contour>
      <point x="79" y="370" type="curve"/>
      <point x="98" y="370" type="line"/>
      <point x="98" y="445"/>
      <point x="107" y="510"/>
      <point x="129" y="605" type="curve" smooth="yes"/>
      <point x="164" y="750" type="line"/>
      <point x="164" y="764" type="line"/>
      <point x="36" y="764" type="line"/>
      <point x="36" y="747" type="line"/>
      <point x="145" y="747" type="line"/>
      <point x="114" y="620" type="line" smooth="yes"/>
      <point x="85" y="501"/>
      <point x="79" y="440"/>
    </contour>
  </outline>
</glyph>
<glyph name="uni207A" format="2">
  <advance width="170"/>
  <unicode hex="207A"/>
  <outline>
    <contour>
      <point x="77" y="406" type="line"/>
      <point x="94" y="406" type="line"/>
      <point x="94" y="524" type="line"/>
      <point x="170" y="524" type="line"/>
      <point x="170" y="541" type="line"/>
      <point x="94" y="541" type="line"/>
      <point x="94" y="660" type="line"/>
      <point x="77" y="660" type="line"/>
      <point x="77" y="541" type="line"/>
      <point x="0" y="541" type="line"/>
      <point x="0" y="524" type="line"/>
      <point x="77" y="524" type="line"/>
    </contour>
  </outline>
</glyph>
<glyph name="uni207B" format="2">
  <advance width="170"/>
  <unicode hex="207B"/>
  <outline>
    <contour>
      <point x="-1" y="523" type="line"/>
      <point x="171" y="523" type="line"/>
      <point x="171" y="540" type="line"/>
      <point x="-1" y="540" type="line"/>
    </contour>
  </outline>
</glyph>
<glyph name="uni207C" format="2">
  <advance width="178"/>
  <unicode hex="207C"/>
  <outline>
    <contour>
      <point x="175" y="483" type="line"/>
      <point x="3" y="483" type="line"/>
      <point x="3" y="466" type="line"/>
      <point x="175" y="466" type="line"/>
    </contour>
    <contour>
      <point x="175" y="600" type="line"/>
      <point x="3" y="600" type="line"/>
      <point x="3" y="583" type="line"/>
      <point x="175" y="583" type="line"/>
    </contour>
  </outline>
</glyph>
<glyph name="uni207D" format="2">
  <advance width="110"/>
  <unicode hex="207D"/>
  <outline>
    <contour>
      <point x="39" y="561" type="curve" smooth="yes"/>
      <point x="39" y="401"/>
      <point x="67" y="295"/>
      <point x="110" y="279" type="curve"/>
      <point x="110" y="300" type="line"/>
      <point x="78" y="320"/>
      <point x="57" y="412"/>
      <point x="57" y="561" type="curve" smooth="yes"/>
      <point x="57" y="710"/>
      <point x="78" y="801"/>
      <point x="110" y="821" type="curve"/>
      <point x="110" y="842" type="line"/>
      <point x="67" y="825"/>
      <point x="39" y="719"/>
    </contour>
  </outline>
</glyph>
<glyph name="uni207E" format="2">
  <advance width="110"/>
  <unicode hex="207E"/>
  <outline>
    <contour>
      <point x="0" y="279" type="line"/>
      <point x="43" y="296"/>
      <point x="71" y="402"/>
      <point x="71" y="561" type="curve" smooth="yes"/>
      <point x="71" y="719"/>
      <point x="43" y="825"/>
      <point x="0" y="843" type="curve"/>
      <point x="0" y="821" type="line"/>
      <point x="32" y="801"/>
      <point x="54" y="710"/>
      <point x="54" y="561" type="curve" smooth="yes"/>
      <point x="54" y="412"/>
      <point x="32" y="321"/>
      <point x="0" y="298" type="curve"/>
    </contour>
  </outline>
</glyph>
<glyph name="n.superior" format="2">
  <advance width="186"/>
  <unicode hex="207F"/>
  <outline>
    <contour>
      <point x="40" y="370" type="line"/>
      <point x="59" y="370" type="line"/>
      <point x="59" y="645" type="line"/>
      <point x="68" y="653"/>
      <point x="87" y="659"/>
      <point x="97" y="659" type="curve" smooth="yes"/>
      <point x="119" y="659"/>
      <point x="129" y="646"/>
      <point x="129" y="618" type="curve" smooth="yes"/>
      <point x="129" y="370" type="line"/>
      <point x="148" y="370" type="line"/>
      <point x="148" y="619" type="line" smooth="yes"/>
      <point x="148" y="661"/>
      <point x="128" y="675"/>
      <point x="105" y="675" type="curve" smooth="yes"/>
      <point x="88" y="675"/>
      <point x="71" y="669"/>
      <point x="58" y="660" type="curve"/>
      <point x="58" y="670" type="line"/>
      <point x="40" y="670" type="line"/>
    </contour>
  </outline>
</glyph>
<glyph name="colonmonetary" format="2">
  <advance width="250"/>
  <unicode hex="20A1"/>
  <outline>
    <contour>
      <point x="168" y="-10" type="curve" smooth="yes"/>
      <point x="185" y="-10"/>
      <point x="216" y="-8"/>
      <point x="234" y="-2" type="curve"/>
      <point x="230" y="17" type="line"/>
      <point x="216" y="12"/>
      <point x="182" y="8"/>
      <point x="169" y="8" type="curve" smooth="yes"/>
      <point x="111" y="8"/>
      <point x="65" y="75"/>
      <point x="65" y="336" type="curve" smooth="yes"/>
      <point x="65" y="624"/>
      <point x="111" y="691"/>
      <point x="173" y="691" type="curve" smooth="yes"/>
      <point x="189" y="691"/>
      <point x="205" y="689"/>
      <point x="224" y="683" type="curve"/>
      <point x="228" y="701" type="line"/>
      <point x="207" y="708"/>
      <point x="188" y="710"/>
      <point x="172" y="710" type="curve" smooth="yes"/>
      <point x="91" y="710"/>
      <point x="45" y="622"/>
      <point x="45" y="336" type="curve" smooth="yes"/>
      <point x="45" y="54"/>
      <point x="99" y="-10"/>
    </contour>
    <contour>
      <point x="145" y="693" type="line"/>
      <point x="165" y="695" type="line"/>
      <point x="174" y="805" type="line"/>
      <point x="154" y="805" type="line"/>
    </contour>
    <contour>
      <point x="192" y="696" type="line"/>
      <point x="212" y="698" type="line"/>
      <point x="221" y="805" type="line"/>
      <point x="201" y="805" type="line"/>
    </contour>
    <contour>
      <point x="109" y="-105" type="line"/>
      <point x="129" y="-105" type="line"/>
      <point x="139" y="10" type="line"/>
      <point x="119" y="17" type="line"/>
    </contour>
    <contour>
      <point x="159" y="-105" type="line"/>
      <point x="179" y="-105" type="line"/>
      <point x="188" y="1" type="line"/>
      <point x="168" y="1" type="line"/>
    </contour>
  </outline>
</glyph>
<glyph name="Euro" format="2">
  <advance width="250"/>
  <unicode hex="20AC"/>
  <outline>
    <contour>
      <point x="54" y="345" type="curve" smooth="yes"/>
      <point x="54" y="80"/>
      <point x="94" y="-10"/>
      <point x="189" y="-10" type="curve" smooth="yes"/>
      <point x="205" y="-10"/>
      <point x="224" y="-8"/>
      <point x="245" y="-1" type="curve"/>
      <point x="241" y="17" type="line"/>
      <point x="222" y="11"/>
      <point x="206" y="9"/>
      <point x="190" y="9" type="curve" smooth="yes"/>
      <point x="113" y="9"/>
      <point x="74" y="77"/>
      <point x="74" y="345" type="curve" smooth="yes"/>
      <point x="74" y="586"/>
      <point x="116" y="691"/>
      <point x="190" y="691" type="curve" smooth="yes"/>
      <point x="206" y="691"/>
      <point x="222" y="689"/>
      <point x="241" y="683" type="curve"/>
      <point x="245" y="701" type="line"/>
      <point x="224" y="708"/>
      <point x="205" y="710"/>
      <point x="189" y="710" type="curve" smooth="yes"/>
      <point x="92" y="710"/>
      <point x="54" y="583"/>
    </contour>
    <contour>
      <point x="194" y="419" type="line"/>
      <point x="194" y="439" type="line"/>
      <point x="14" y="439" type="line"/>
      <point x="14" y="419" type="line"/>
    </contour>
    <contour>
      <point x="194" y="261" type="line"/>
      <point x="194" y="281" type="line"/>
      <point x="14" y="281" type="line"/>
      <point x="14" y="261" type="line"/>
    </contour>
  </outline>
</glyph>
<glyph name="uni20B1" format="2">
  <advance width="250"/>
  <unicode hex="20B1"/>
  <outline>
    <contour>
      <point x="47" y="0" type="line"/>
      <point x="67" y="0" type="line"/>
      <point x="67" y="295" type="line"/>
      <point x="77" y="294"/>
      <point x="92" y="294"/>
      <point x="108" y="294" type="curve" smooth="yes"/>
      <point x="172" y="294"/>
      <point x="206" y="346"/>
      <point x="206" y="502" type="curve" smooth="yes"/>
      <point x="206" y="656"/>
      <point x="181" y="710"/>
      <point x="111" y="710" type="curve" smooth="yes"/>
      <point x="92" y="710"/>
      <point x="71" y="708"/>
      <point x="47" y="704" type="curve"/>
    </contour>
    <contour>
      <point x="4" y="529" type="line"/>
      <point x="57" y="529" type="line"/>
      <point x="57" y="549" type="line"/>
      <point x="4" y="549" type="line"/>
    </contour>
    <contour>
      <point x="109" y="314" type="curve" smooth="yes"/>
      <point x="93" y="314"/>
      <point x="80" y="314"/>
      <point x="67" y="315" type="curve"/>
      <point x="67" y="688" type="line"/>
      <point x="83" y="691"/>
      <point x="98" y="692"/>
      <point x="112" y="692" type="curve" smooth="yes"/>
      <point x="168" y="692"/>
      <point x="186" y="645"/>
      <point x="186" y="499" type="curve" smooth="yes"/>
      <point x="186" y="358"/>
      <point x="160" y="314"/>
    </contour>
    <contour>
      <point x="200" y="529" type="line"/>
      <point x="250" y="529" type="line"/>
      <point x="250" y="549" type="line"/>
      <point x="200" y="549" type="line"/>
    </contour>
    <contour>
      <point x="4" y="445" type="line"/>
      <point x="57" y="445" type="line"/>
      <point x="57" y="465" type="line"/>
      <point x="4" y="465" type="line"/>
    </contour>
    <contour>
      <point x="200" y="445" type="line"/>
      <point x="250" y="445" type="line"/>
      <point x="250" y="465" type="line"/>
      <point x="200" y="465" type="line"/>
    </contour>
  </outline>
</glyph>
<glyph name="uni20B9" format="2">
  <advance width="250"/>
  <unicode hex="20B9"/>
  <outline>
    <contour>
      <point x="208" y="0" type="line"/>
      <point x="230" y="0" type="line"/>
      <point x="42" y="345" type="line"/>
      <point x="42" y="345" type="line"/>
      <point x="53" y="345" type="line"/>
      <point x="153" y="345"/>
      <point x="198" y="413"/>
      <point x="197" y="534" type="curve" smooth="yes"/>
      <point x="198" y="635"/>
      <point x="163" y="674"/>
      <point x="139" y="680" type="curve"/>
      <point x="232" y="680" type="line"/>
      <point x="232" y="700" type="line"/>
      <point x="17" y="700" type="line"/>
      <point x="17" y="680" type="line"/>
      <point x="59" y="680" type="line" smooth="yes"/>
      <point x="144" y="680"/>
      <point x="177" y="639"/>
      <point x="177" y="534" type="curve" smooth="yes"/>
      <point x="177" y="418"/>
      <point x="137" y="365"/>
      <point x="51" y="365" type="curve" smooth="yes"/>
      <point x="17" y="365" type="line"/>
      <point x="17" y="345" type="line"/>
    </contour>
    <contour>
      <point x="17" y="519" type="line"/>
      <point x="232" y="519" type="line"/>
      <point x="232" y="539" type="line"/>
      <point x="17" y="539" type="line"/>
    </contour>
  </outline>
</glyph>
<glyph name="uni20BC" format="2">
  <advance width="250"/>
  <unicode hex="20BC"/>
  <outline>
    <contour>
      <point x="25" y="0" type="curve"/>
      <point x="45" y="0" type="line"/>
      <point x="45" y="10"/>
      <point x="45" y="19"/>
      <point x="45" y="29" type="curve" smooth="yes"/>
      <point x="45" y="571"/>
      <point x="69" y="640"/>
      <point x="125" y="640" type="curve" smooth="yes"/>
      <point x="181" y="640"/>
      <point x="205" y="571"/>
      <point x="205" y="29" type="curve" smooth="yes"/>
      <point x="205" y="19"/>
      <point x="205" y="10"/>
      <point x="205" y="0" type="curve"/>
      <point x="225" y="0" type="line"/>
      <point x="225" y="10"/>
      <point x="225" y="19"/>
      <point x="225" y="29" type="curve" smooth="yes"/>
      <point x="225" y="587"/>
      <point x="195" y="660"/>
      <point x="125" y="660" type="curve" smooth="yes"/>
      <point x="55" y="660"/>
      <point x="25" y="587"/>
      <point x="25" y="29" type="curve" smooth="yes"/>
      <point x="25" y="19"/>
      <point x="25" y="10"/>
    </contour>
    <contour>
      <point x="115" y="88" type="line"/>
      <point x="135" y="88" type="line"/>
      <point x="135" y="710" type="line"/>
      <point x="115" y="710" type="line"/>
    </contour>
  </outline>
</glyph>
<glyph name="uni20BD" format="2">
  <advance width="250"/>
  <unicode hex="20BD"/>
  <outline>
    <contour>
      <point x="65" y="0" type="line"/>
      <point x="85" y="0" type="line"/>
      <point x="85" y="295" type="line"/>
      <point x="97" y="295" type="line" smooth="yes"/>
      <point x="193" y="295"/>
      <point x="234" y="360"/>
      <point x="234" y="512" type="curve" smooth="yes"/>
      <point x="234" y="663"/>
      <point x="204" y="710"/>
      <point x="129" y="710" type="curve" smooth="yes"/>
      <point x="110" y="710"/>
      <point x="89" y="708"/>
      <point x="65" y="704" type="curve"/>
    </contour>
    <contour>
      <point x="85" y="315" type="line"/>
      <point x="85" y="688" type="line"/>
      <point x="101" y="691"/>
      <point x="116" y="692"/>
      <point x="130" y="692" type="curve" smooth="yes"/>
      <point x="195" y="692"/>
      <point x="214" y="641"/>
      <point x="214" y="509" type="curve" smooth="yes"/>
      <point x="214" y="371"/>
      <point x="181" y="315"/>
      <point x="98" y="315" type="curve" smooth="yes"/>
    </contour>
    <contour>
      <point x="12" y="295" type="line"/>
      <point x="75" y="295" type="line"/>
      <point x="75" y="315" type="line"/>
      <point x="12" y="315" type="line"/>
    </contour>
    <contour>
      <point x="12" y="195" type="line"/>
      <point x="187" y="195" type="line"/>
      <point x="187" y="215" type="line"/>
      <point x="12" y="215" type="line"/>
    </contour>
  </outline>
</glyph>
<glyph name="uni2113" format="2">
  <advance width="220"/>
  <unicode hex="2113"/>
  <outline>
    <contour>
      <point x="140" y="-6" type="curve" smooth="yes"/>
      <point x="163" y="-6"/>
      <point x="190" y="6"/>
      <point x="224" y="30" type="curve"/>
      <point x="214" y="44" type="line"/>
      <point x="178" y="20"/>
      <point x="161" y="12"/>
      <point x="140" y="12" type="curve" smooth="yes"/>
      <point x="67" y="12"/>
      <point x="67" y="155"/>
      <point x="67" y="342" type="curve" smooth="yes"/>
      <point x="67" y="542"/>
      <point x="69" y="692"/>
      <point x="117" y="692" type="curve" smooth="yes"/>
      <point x="157" y="692"/>
      <point x="164" y="591"/>
      <point x="164" y="498" type="curve" smooth="yes"/>
      <point x="164" y="352"/>
      <point x="142" y="223"/>
      <point x="65" y="187" type="curve"/>
      <point x="66" y="167" type="line"/>
      <point x="151" y="202"/>
      <point x="184" y="335"/>
      <point x="184" y="498" type="curve" smooth="yes"/>
      <point x="184" y="616"/>
      <point x="175" y="710"/>
      <point x="117" y="710" type="curve" smooth="yes"/>
      <point x="51" y="710"/>
      <point x="47" y="574"/>
      <point x="47" y="342" type="curve" smooth="yes"/>
      <point x="47" y="154"/>
      <point x="47" y="-6"/>
    </contour>
    <contour>
      <point x="5" y="156" type="line"/>
      <point x="23" y="156"/>
      <point x="40" y="158"/>
      <point x="55" y="163" type="curve"/>
      <point x="55" y="183" type="line"/>
      <point x="39" y="178"/>
      <point x="23" y="176"/>
      <point x="5" y="176" type="curve"/>
    </contour>
  </outline>
</glyph>
<glyph name="uni2117" format="2">
  <advance width="286"/>
  <unicode hex="2117"/>
  <outline>
    <contour>
      <point x="94" y="181" type="line"/>
      <point x="114" y="181" type="line"/>
      <point x="114" y="310" type="line"/>
      <point x="122" y="309"/>
      <point x="129" y="308"/>
      <point x="135" y="308" type="curve" smooth="yes"/>
      <point x="193" y="308"/>
      <point x="197" y="355"/>
      <point x="197" y="422" type="curve" smooth="yes"/>
      <point x="197" y="485"/>
      <point x="180" y="510"/>
      <point x="138" y="510" type="curve" smooth="yes"/>
      <point x="126" y="510"/>
      <point x="111" y="508"/>
      <point x="94" y="504" type="curve"/>
    </contour>
    <contour>
      <point x="114" y="488" type="line"/>
      <point x="124" y="490"/>
      <point x="132" y="491"/>
      <point x="139" y="491" type="curve" smooth="yes"/>
      <point x="177" y="491"/>
      <point x="177" y="458"/>
      <point x="177" y="419" type="curve" smooth="yes"/>
      <point x="177" y="361"/>
      <point x="177" y="327"/>
      <point x="131" y="327" type="curve" smooth="yes"/>
      <point x="126" y="327"/>
      <point x="120" y="327"/>
      <point x="114" y="328" type="curve"/>
    </contour>
    <contour>
      <point x="33" y="350" type="curve" smooth="yes"/>
      <point x="33" y="70"/>
      <point x="66" y="-10"/>
      <point x="143" y="-10" type="curve" smooth="yes"/>
      <point x="220" y="-10"/>
      <point x="253" y="70"/>
      <point x="253" y="350" type="curve" smooth="yes"/>
      <point x="253" y="631"/>
      <point x="220" y="710"/>
      <point x="143" y="710" type="curve" smooth="yes"/>
      <point x="66" y="710"/>
      <point x="33" y="631"/>
    </contour>
    <contour>
      <point x="50" y="350" type="curve" smooth="yes"/>
      <point x="50" y="615"/>
      <point x="80" y="693"/>
      <point x="143" y="693" type="curve" smooth="yes"/>
      <point x="206" y="693"/>
      <point x="236" y="615"/>
      <point x="236" y="350" type="curve" smooth="yes"/>
      <point x="236" y="86"/>
      <point x="206" y="7"/>
      <point x="143" y="7" type="curve" smooth="yes"/>
      <point x="80" y="7"/>
      <point x="50" y="86"/>
    </contour>
  </outline>
</glyph>
<glyph name="uni2120" format="2">
  <advance width="293"/>
  <unicode hex="2120"/>
  <outline>
    <contour>
      <point x="108" y="695" type="line"/>
      <point x="97" y="700"/>
      <point x="85" y="703"/>
      <point x="74" y="703" type="curve" smooth="yes"/>
      <point x="45" y="703"/>
      <point x="24" y="677"/>
      <point x="24" y="640" type="curve" smooth="yes"/>
      <point x="24" y="609"/>
      <point x="33" y="585"/>
      <point x="61" y="537" type="curve" smooth="yes"/>
      <point x="89" y="490"/>
      <point x="96" y="470"/>
      <point x="96" y="442" type="curve" smooth="yes"/>
      <point x="96" y="414"/>
      <point x="80" y="396"/>
      <point x="55" y="396" type="curve" smooth="yes"/>
      <point x="45" y="396"/>
      <point x="37" y="398"/>
      <point x="21" y="404" type="curve"/>
      <point x="16" y="387" type="line"/>
      <point x="24" y="381"/>
      <point x="40" y="378"/>
      <point x="56" y="378" type="curve" smooth="yes"/>
      <point x="90" y="378"/>
      <point x="115" y="405"/>
      <point x="115" y="441" type="curve" smooth="yes"/>
      <point x="115" y="472"/>
      <point x="108" y="493"/>
      <point x="78" y="544" type="curve" smooth="yes"/>
      <point x="49" y="597"/>
      <point x="42" y="615"/>
      <point x="42" y="640" type="curve" smooth="yes"/>
      <point x="42" y="670"/>
      <point x="53" y="685"/>
      <point x="73" y="685" type="curve" smooth="yes"/>
      <point x="81" y="685"/>
      <point x="87" y="683"/>
      <point x="100" y="678" type="curve"/>
    </contour>
    <contour>
      <point x="142" y="381" type="line"/>
      <point x="162" y="381" type="line"/>
      <point x="162" y="636" type="line"/>
      <point x="199" y="502" type="line"/>
      <point x="213" y="502" type="line"/>
      <point x="253" y="635" type="line"/>
      <point x="253" y="381" type="line"/>
      <point x="273" y="381" type="line"/>
      <point x="273" y="700" type="line"/>
      <point x="256" y="700" type="line"/>
      <point x="207" y="537" type="line"/>
      <point x="160" y="700" type="line"/>
      <point x="142" y="700" type="line"/>
    </contour>
  </outline>
</glyph>
<glyph name="estimated" format="2">
  <advance width="833"/>
  <unicode hex="212E"/>
  <outline>
    <contour>
      <point x="172" y="114" type="curve"/>
      <point x="172" y="339" type="line"/>
      <point x="777" y="339" type="line"/>
      <point x="777" y="343"/>
      <point x="777" y="346"/>
      <point x="777" y="350" type="curve" smooth="yes"/>
      <point x="777" y="548"/>
      <point x="615" y="710"/>
      <point x="417" y="710" type="curve" smooth="yes"/>
      <point x="218" y="710"/>
      <point x="57" y="548"/>
      <point x="57" y="350" type="curve" smooth="yes"/>
      <point x="57" y="151"/>
      <point x="218" y="-10"/>
      <point x="417" y="-10" type="curve" smooth="yes"/>
      <point x="570" y="-10"/>
      <point x="695" y="84"/>
      <point x="749" y="212" type="curve"/>
      <point x="727" y="212" type="line"/>
      <point x="675" y="95"/>
      <point x="559" y="10"/>
      <point x="417" y="10" type="curve" smooth="yes"/>
      <point x="320" y="10"/>
      <point x="234" y="50"/>
    </contour>
    <contour>
      <point x="172" y="359" type="line"/>
      <point x="172" y="585" type="line"/>
      <point x="234" y="649"/>
      <point x="320" y="690"/>
      <point x="417" y="690" type="curve" smooth="yes"/>
      <point x="519" y="690"/>
      <point x="610" y="644"/>
      <point x="673" y="573" type="curve"/>
      <point x="673" y="359" type="line"/>
    </contour>
  </outline>
</glyph>
<glyph name="arrowdown" format="2">
  <advance width="400"/>
  <unicode hex="2193"/>
  <outline>
    <contour>
      <point x="190" y="469" type="line"/>
      <point x="190" y="146" type="line"/>
      <point x="7" y="339" type="line"/>
      <point x="-6" y="327" type="line"/>
      <point x="200" y="110" type="line"/>
      <point x="406" y="327" type="line"/>
      <point x="393" y="339" type="line"/>
      <point x="210" y="146" type="line"/>
      <point x="210" y="469" type="line"/>
    </contour>
  </outline>
</glyph>
<glyph name="uni2196" format="2">
  <advance width="400"/>
  <unicode hex="2196"/>
  <outline>
    <contour>
      <point x="375" y="398" type="line"/>
      <point x="376" y="416" type="line"/>
      <point x="76" y="416" type="line"/>
      <point x="76" y="116" type="line"/>
      <point x="94" y="117" type="line"/>
      <point x="94" y="384" type="line"/>
      <point x="323" y="155" type="line"/>
      <point x="337" y="169" type="line"/>
      <point x="108" y="398" type="line"/>
    </contour>
  </outline>
</glyph>
<glyph name="uni2199" format="2">
  <advance width="400"/>
  <unicode hex="2199"/>
  <outline>
    <contour>
      <point x="108" y="173" type="line"/>
      <point x="337" y="402" type="line"/>
      <point x="323" y="416" type="line"/>
      <point x="94" y="187" type="line"/>
      <point x="94" y="454" type="line"/>
      <point x="76" y="455" type="line"/>
      <point x="76" y="155" type="line"/>
      <point x="376" y="155" type="line"/>
      <point x="375" y="173" type="line"/>
    </contour>
  </outline>
</glyph>
<glyph name="partialdiff" format="2">
  <advance width="259"/>
  <unicode hex="2202"/>
  <outline>
    <contour>
      <point x="134" y="-10" type="curve" smooth="yes"/>
      <point x="195" y="-10"/>
      <point x="224" y="96"/>
      <point x="224" y="318" type="curve" smooth="yes"/>
      <point x="224" y="613"/>
      <point x="197" y="710"/>
      <point x="122" y="710" type="curve" smooth="yes"/>
      <point x="101" y="710"/>
      <point x="83" y="704"/>
      <point x="66" y="692" type="curve"/>
      <point x="76" y="675" type="line"/>
      <point x="94" y="686"/>
      <point x="108" y="689"/>
      <point x="122" y="689" type="curve" smooth="yes"/>
      <point x="178" y="689"/>
      <point x="202" y="587"/>
      <point x="204" y="335" type="curve" smooth="yes"/>
      <point x="205" y="129"/>
      <point x="179" y="8"/>
      <point x="134" y="8" type="curve" smooth="yes"/>
      <point x="89" y="8"/>
      <point x="61" y="80"/>
      <point x="61" y="196" type="curve" smooth="yes"/>
      <point x="61" y="346"/>
      <point x="85" y="422"/>
      <point x="131" y="422" type="curve" smooth="yes"/>
      <point x="160" y="422"/>
      <point x="191" y="387"/>
      <point x="207" y="285" type="curve"/>
      <point x="211" y="337" type="line"/>
      <point x="196" y="402"/>
      <point x="171" y="440"/>
      <point x="131" y="440" type="curve" smooth="yes"/>
      <point x="72" y="440"/>
      <point x="41" y="365"/>
      <point x="41" y="196" type="curve" smooth="yes"/>
      <point x="41" y="66"/>
      <point x="75" y="-10"/>
    </contour>
  </outline>
</glyph>
<glyph name="product" format="2">
  <advance width="360"/>
  <unicode hex="220F"/>
  <outline>
    <contour>
      <point x="50" y="-210" type="line"/>
      <point x="70" y="-210" type="line"/>
      <point x="70" y="682" type="line"/>
      <point x="290" y="682" type="line"/>
      <point x="290" y="-210" type="line"/>
      <point x="310" y="-210" type="line"/>
      <point x="310" y="700" type="line"/>
      <point x="50" y="700" type="line"/>
    </contour>
  </outline>
</glyph>
<glyph name="summation" format="2">
  <advance width="239"/>
  <unicode hex="2211"/>
  <outline>
    <contour>
      <point x="27" y="-210" type="line"/>
      <point x="212" y="-210" type="line"/>
      <point x="212" y="-190" type="line"/>
      <point x="47" y="-190" type="line"/>
      <point x="180" y="287" type="line"/>
      <point x="180" y="293" type="line"/>
      <point x="49" y="680" type="line"/>
      <point x="206" y="680" type="line"/>
      <point x="206" y="700" type="line"/>
      <point x="27" y="700" type="line"/>
      <point x="27" y="680" type="line"/>
      <point x="160" y="289" type="line"/>
      <point x="27" y="-190" type="line"/>
    </contour>
  </outline>
</glyph>
<glyph name="minus" format="2">
  <advance width="370"/>
  <unicode hex="2212"/>
  <outline>
    <contour>
      <point x="39" y="279" type="line"/>
      <point x="331" y="279" type="line"/>
      <point x="331" y="299" type="line"/>
      <point x="39" y="299" type="line"/>
    </contour>
  </outline>
</glyph>
<glyph name="radical" format="2">
  <advance width="304"/>
  <unicode hex="221A"/>
  <outline>
    <contour>
      <point x="32" y="510" type="line"/>
      <point x="93" y="510" type="line"/>
      <point x="159" y="-10" type="line"/>
      <point x="173" y="-10" type="line"/>
      <point x="282" y="750" type="line"/>
      <point x="261" y="750" type="line"/>
      <point x="166" y="64" type="line"/>
      <point x="112" y="530" type="line"/>
      <point x="32" y="530" type="line"/>
    </contour>
  </outline>
</glyph>
<glyph name="greaterequal" format="2">
  <advance width="370"/>
  <unicode hex="2265"/>
  <outline>
    <contour>
      <point x="347" y="298" type="line"/>
      <point x="347" y="318" type="line"/>
      <point x="23" y="509" type="line"/>
      <point x="23" y="487" type="line"/>
      <point x="325" y="308" type="line"/>
      <point x="23" y="129" type="line"/>
      <point x="23" y="108" type="line"/>
    </contour>
    <contour>
      <point x="347" y="92" type="line"/>
      <point x="23" y="92" type="line"/>
      <point x="23" y="72" type="line"/>
      <point x="347" y="72" type="line"/>
    </contour>
  </outline>
</glyph>
<glyph name="triagup" format="2">
  <advance width="347"/>
  <unicode hex="25B2"/>
  <outline>
    <contour>
      <point x="56" y="171" type="line"/>
      <point x="291" y="171" type="line"/>
      <point x="174" y="428" type="line"/>
    </contour>
  </outline>
</glyph>
<glyph name="uni25B3" format="2">
  <advance width="347"/>
  <unicode hex="25B3"/>
  <outline>
    <contour>
      <point x="56" y="171" type="line"/>
      <point x="291" y="171" type="line"/>
      <point x="174" y="428" type="line"/>
    </contour>
    <contour>
      <point x="87" y="191" type="line"/>
      <point x="173" y="381" type="line"/>
      <point x="260" y="191" type="line"/>
    </contour>
  </outline>
</glyph>
<glyph name="uni25C1" format="2">
  <advance width="347"/>
  <unicode hex="25C1"/>
  <outline>
    <contour>
      <point x="30" y="299" type="line"/>
      <point x="287" y="182" type="line"/>
      <point x="287" y="417" type="line"/>
    </contour>
    <contour>
      <point x="77" y="299" type="line"/>
      <point x="267" y="386" type="line"/>
      <point x="267" y="213" type="line"/>
    </contour>
  </outline>
</glyph>
<glyph name="uni25C6" format="2">
  <advance width="347"/>
  <unicode hex="25C6"/>
  <outline>
    <contour>
      <point x="26" y="313" type="line"/>
      <point x="173" y="165" type="line"/>
      <point x="321" y="313" type="line"/>
      <point x="173" y="460" type="line"/>
    </contour>
  </outline>
</glyph>
<glyph name="uni25C7" format="2">
  <advance width="347"/>
  <unicode hex="25C7"/>
  <outline>
    <contour>
      <point x="26" y="313" type="line"/>
      <point x="173" y="165" type="line"/>
      <point x="321" y="313" type="line"/>
      <point x="173" y="460" type="line"/>
    </contour>
    <contour>
      <point x="54" y="313" type="line"/>
      <point x="173" y="432" type="line"/>
      <point x="293" y="313" type="line"/>
      <point x="173" y="193" type="line"/>
    </contour>
  </outline>
</glyph>
<glyph name="lozenge" format="2">
  <advance width="300"/>
  <unicode hex="25CA"/>
  <outline>
    <contour>
      <point x="150" y="688" type="line"/>
      <point x="260" y="350" type="line"/>
      <point x="150" y="12" type="line"/>
      <point x="40" y="350" type="line"/>
    </contour>
    <contour>
      <point x="160" y="710" type="line"/>
      <point x="140" y="710" type="line"/>
      <point x="19" y="350" type="line"/>
      <point x="140" y="-10" type="line"/>
      <point x="160" y="-10" type="line"/>
      <point x="281" y="350" type="line"/>
    </contour>
  </outline>
</glyph>
<glyph name="uni2661" format="2">
  <advance width="764"/>
  <unicode hex="2661"/>
  <outline>
    <contour>
      <point x="377" y="0" type="curve"/>
      <point x="387" y="0" type="line"/>
      <point x="448" y="187"/>
      <point x="729" y="242"/>
      <point x="729" y="463" type="curve" smooth="yes"/>
      <point x="729" y="587"/>
      <point x="646" y="650"/>
      <point x="550" y="650" type="curve" smooth="yes"/>
      <point x="481" y="650"/>
      <point x="415" y="617"/>
      <point x="382" y="531" type="curve"/>
      <point x="349" y="617"/>
      <point x="283" y="650"/>
      <point x="214" y="650" type="curve" smooth="yes"/>
      <point x="118" y="650"/>
      <point x="35" y="587"/>
      <point x="35" y="463" type="curve" smooth="yes"/>
      <point x="35" y="242"/>
      <point x="316" y="187"/>
    </contour>
    <contour>
      <point x="382" y="39" type="curve"/>
      <point x="302" y="207"/>
      <point x="55" y="265"/>
      <point x="55" y="463" type="curve" smooth="yes"/>
      <point x="55" y="575"/>
      <point x="129" y="632"/>
      <point x="214" y="632" type="curve" smooth="yes"/>
      <point x="281" y="632"/>
      <point x="346" y="594"/>
      <point x="376" y="491" type="curve"/>
      <point x="388" y="491" type="line"/>
      <point x="418" y="594"/>
      <point x="483" y="632"/>
      <point x="550" y="632" type="curve" smooth="yes"/>
      <point x="635" y="632"/>
      <point x="709" y="575"/>
      <point x="709" y="463" type="curve" smooth="yes"/>
      <point x="709" y="265"/>
      <point x="462" y="207"/>
    </contour>
  </outline>
</glyph>
<glyph name="uni2780" format="2">
  <advance width="286"/>
  <unicode hex="2780"/>
  <outline>
    <contour>
      <point x="71" y="160" type="line"/>
      <point x="222" y="160" type="line"/>
      <point x="222" y="177" type="line"/>
      <point x="159" y="177" type="line"/>
      <point x="159" y="556" type="line"/>
      <point x="149" y="556" type="line"/>
      <point x="71" y="488" type="line"/>
      <point x="79" y="473" type="line"/>
      <point x="140" y="528" type="line"/>
      <point x="140" y="177" type="line"/>
      <point x="71" y="177" type="line"/>
    </contour>
    <contour>
      <point x="143" y="-10" type="curve" smooth="yes"/>
      <point x="220" y="-10"/>
      <point x="253" y="70"/>
      <point x="253" y="350" type="curve" smooth="yes"/>
      <point x="253" y="631"/>
      <point x="220" y="710"/>
      <point x="143" y="710" type="curve" smooth="yes"/>
      <point x="66" y="710"/>
      <point x="33" y="631"/>
      <point x="33" y="350" type="curve" smooth="yes"/>
      <point x="33" y="70"/>
      <point x="66" y="-10"/>
    </contour>
    <contour>
      <point x="143" y="693" type="curve" smooth="yes"/>
      <point x="206" y="693"/>
      <point x="236" y="615"/>
      <point x="236" y="350" type="curve" smooth="yes"/>
      <point x="236" y="86"/>
      <point x="206" y="7"/>
      <point x="143" y="7" type="curve" smooth="yes"/>
      <point x="80" y="7"/>
      <point x="50" y="86"/>
      <point x="50" y="350" type="curve" smooth="yes"/>
      <point x="50" y="615"/>
      <point x="80" y="693"/>
    </contour>
  </outline>
</glyph>
<glyph name="uni2785" format="2">
  <advance width="286"/>
  <unicode hex="2785"/>
  <outline>
    <contour>
      <point x="94" y="338" type="curve"/>
      <point x="95" y="481"/>
      <point x="112" y="543"/>
      <point x="152" y="543" type="curve" smooth="yes"/>
      <point x="164" y="543"/>
      <point x="178" y="536"/>
      <point x="189" y="526" type="curve"/>
      <point x="197" y="539" type="line"/>
      <point x="184" y="551"/>
      <point x="167" y="558"/>
      <point x="153" y="558" type="curve" smooth="yes"/>
      <point x="100" y="558"/>
      <point x="77" y="491"/>
      <point x="77" y="338" type="curve" smooth="yes"/>
      <point x="77" y="205"/>
      <point x="97" y="148"/>
      <point x="143" y="148" type="curve" smooth="yes"/>
      <point x="183" y="148"/>
      <point x="207" y="194"/>
      <point x="207" y="268" type="curve" smooth="yes"/>
      <point x="207" y="337"/>
      <point x="184" y="381"/>
      <point x="148" y="381" type="curve" smooth="yes"/>
      <point x="123" y="381"/>
      <point x="101" y="359"/>
    </contour>
    <contour>
      <point x="146" y="366" type="curve" smooth="yes"/>
      <point x="172" y="366"/>
      <point x="189" y="328"/>
      <point x="189" y="266" type="curve" smooth="yes"/>
      <point x="189" y="202"/>
      <point x="171" y="163"/>
      <point x="142" y="163" type="curve" smooth="yes"/>
      <point x="112" y="163"/>
      <point x="98" y="206"/>
      <point x="95" y="305" type="curve"/>
      <point x="103" y="343"/>
      <point x="124" y="366"/>
    </contour>
    <contour>
      <point x="143" y="-10" type="curve" smooth="yes"/>
      <point x="220" y="-10"/>
      <point x="253" y="70"/>
      <point x="253" y="350" type="curve" smooth="yes"/>
      <point x="253" y="631"/>
      <point x="220" y="710"/>
      <point x="143" y="710" type="curve" smooth="yes"/>
      <point x="66" y="710"/>
      <point x="33" y="631"/>
      <point x="33" y="350" type="curve" smooth="yes"/>
      <point x="33" y="70"/>
      <point x="66" y="-10"/>
    </contour>
    <contour>
      <point x="143" y="693" type="curve" smooth="yes"/>
      <point x="206" y="693"/>
      <point x="236" y="615"/>
      <point x="236" y="350" type="curve" smooth="yes"/>
      <point x="236" y="86"/>
      <point x="206" y="7"/>
      <point x="143" y="7" type="curve" smooth="yes"/>
      <point x="80" y="7"/>
      <point x="50" y="86"/>
      <point x="50" y="350" type="curve" smooth="yes"/>
      <point x="50" y="615"/>
      <point x="80" y="693"/>
    </contour>
  </outline>
</glyph>
<glyph name="uni2786" format="2">
  <advance width="286"/>
  <unicode hex="2786"/>
  <outline>
    <contour>
      <point x="124" y="160" type="curve"/>
      <point x="140" y="160" type="line"/>
      <point x="140" y="252"/>
      <point x="148" y="314"/>
      <point x="170" y="398" type="curve" smooth="yes"/>
      <point x="207" y="536" type="line"/>
      <point x="207" y="550" type="line"/>
      <point x="79" y="550" type="line"/>
      <point x="79" y="533" type="line"/>
      <point x="190" y="533" type="line"/>
      <point x="156" y="406" type="line" smooth="yes"/>
      <point x="132" y="319"/>
      <point x="124" y="256"/>
    </contour>
    <contour>
      <point x="143" y="-10" type="curve" smooth="yes"/>
      <point x="220" y="-10"/>
      <point x="253" y="70"/>
      <point x="253" y="350" type="curve" smooth="yes"/>
      <point x="253" y="631"/>
      <point x="220" y="710"/>
      <point x="143" y="710" type="curve" smooth="yes"/>
      <point x="66" y="710"/>
      <point x="33" y="631"/>
      <point x="33" y="350" type="curve" smooth="yes"/>
      <point x="33" y="70"/>
      <point x="66" y="-10"/>
    </contour>
    <contour>
      <point x="143" y="693" type="curve" smooth="yes"/>
      <point x="206" y="693"/>
      <point x="236" y="615"/>
      <point x="236" y="350" type="curve" smooth="yes"/>
      <point x="236" y="86"/>
      <point x="206" y="7"/>
      <point x="143" y="7" type="curve" smooth="yes"/>
      <point x="80" y="7"/>
      <point x="50" y="86"/>
      <point x="50" y="350" type="curve" smooth="yes"/>
      <point x="50" y="615"/>
      <point x="80" y="693"/>
    </contour>
  </outline>
</glyph>
<glyph name="uni2787" format="2">
  <advance width="286"/>
  <unicode hex="2787"/>
  <outline>
    <contour>
      <point x="144" y="149" type="curve" smooth="yes"/>
      <point x="186" y="149"/>
      <point x="211" y="185"/>
      <point x="211" y="245" type="curve" smooth="yes"/>
      <point x="211" y="381"/>
      <point x="102" y="350"/>
      <point x="102" y="465" type="curve" smooth="yes"/>
      <point x="102" y="514"/>
      <point x="118" y="543"/>
      <point x="145" y="543" type="curve" smooth="yes"/>
      <point x="173" y="543"/>
      <point x="188" y="515"/>
      <point x="188" y="463" type="curve" smooth="yes"/>
      <point x="188" y="419"/>
      <point x="175" y="388"/>
      <point x="141" y="360" type="curve"/>
      <point x="151" y="351" type="line"/>
      <point x="189" y="383"/>
      <point x="204" y="417"/>
      <point x="204" y="465" type="curve" smooth="yes"/>
      <point x="204" y="522"/>
      <point x="181" y="559"/>
      <point x="145" y="559" type="curve" smooth="yes"/>
      <point x="107" y="559"/>
      <point x="85" y="523"/>
      <point x="85" y="460" type="curve" smooth="yes"/>
      <point x="85" y="343"/>
      <point x="194" y="372"/>
      <point x="194" y="245" type="curve" smooth="yes"/>
      <point x="194" y="193"/>
      <point x="176" y="164"/>
      <point x="145" y="164" type="curve" smooth="yes"/>
      <point x="113" y="164"/>
      <point x="95" y="196"/>
      <point x="95" y="253" type="curve" smooth="yes"/>
      <point x="95" y="305"/>
      <point x="111" y="342"/>
      <point x="145" y="366" type="curve"/>
      <point x="135" y="376" type="line"/>
      <point x="95" y="346"/>
      <point x="77" y="305"/>
      <point x="77" y="251" type="curve" smooth="yes"/>
      <point x="77" y="185"/>
      <point x="101" y="149"/>
    </contour>
    <contour>
      <point x="143" y="-10" type="curve" smooth="yes"/>
      <point x="220" y="-10"/>
      <point x="253" y="70"/>
      <point x="253" y="350" type="curve" smooth="yes"/>
      <point x="253" y="631"/>
      <point x="220" y="710"/>
      <point x="143" y="710" type="curve" smooth="yes"/>
      <point x="66" y="710"/>
      <point x="33" y="631"/>
      <point x="33" y="350" type="curve" smooth="yes"/>
      <point x="33" y="70"/>
      <point x="66" y="-10"/>
    </contour>
    <contour>
      <point x="143" y="693" type="curve" smooth="yes"/>
      <point x="206" y="693"/>
      <point x="236" y="615"/>
      <point x="236" y="350" type="curve" smooth="yes"/>
      <point x="236" y="86"/>
      <point x="206" y="7"/>
      <point x="143" y="7" type="curve" smooth="yes"/>
      <point x="80" y="7"/>
      <point x="50" y="86"/>
      <point x="50" y="350" type="curve" smooth="yes"/>
      <point x="50" y="615"/>
      <point x="80" y="693"/>
    </contour>
  </outline>
</glyph>
<glyph name="uni278D" format="2">
  <advance width="286"/>
  <unicode hex="278D"/>
  <outline>
    <contour>
      <point x="143" y="-10" type="curve" smooth="yes"/>
      <point x="220" y="-10"/>
      <point x="253" y="70"/>
      <point x="253" y="350" type="curve" smooth="yes"/>
      <point x="253" y="631"/>
      <point x="220" y="710"/>
      <point x="143" y="710" type="curve" smooth="yes"/>
      <point x="66" y="710"/>
      <point x="33" y="631"/>
      <point x="33" y="350" type="curve" smooth="yes"/>
      <point x="33" y="70"/>
      <point x="66" y="-10"/>
    </contour>
    <contour>
      <point x="87" y="281" type="line"/>
      <point x="159" y="281" type="line"/>
      <point x="159" y="510" type="line"/>
    </contour>
    <contour>
      <point x="159" y="160" type="line"/>
      <point x="159" y="265" type="line"/>
      <point x="77" y="265" type="line"/>
      <point x="70" y="280" type="line"/>
      <point x="158" y="559" type="line"/>
      <point x="177" y="557" type="line"/>
      <point x="177" y="281" type="line"/>
      <point x="210" y="281" type="line"/>
      <point x="210" y="265" type="line"/>
      <point x="177" y="265" type="line"/>
      <point x="177" y="160" type="line"/>
    </contour>
  </outline>
</glyph>
<glyph name="uni278F" format="2">
  <advance width="286"/>
  <unicode hex="278F"/>
  <outline>
    <contour>
      <point x="143" y="-10" type="curve" smooth="yes"/>
      <point x="220" y="-10"/>
      <point x="253" y="70"/>
      <point x="253" y="350" type="curve" smooth="yes"/>
      <point x="253" y="631"/>
      <point x="220" y="710"/>
      <point x="143" y="710" type="curve" smooth="yes"/>
      <point x="66" y="710"/>
      <point x="33" y="631"/>
      <point x="33" y="350" type="curve" smooth="yes"/>
      <point x="33" y="70"/>
      <point x="66" y="-10"/>
    </contour>
    <contour>
      <point x="142" y="163" type="curve" smooth="yes"/>
      <point x="171" y="163"/>
      <point x="189" y="202"/>
      <point x="189" y="266" type="curve" smooth="yes"/>
      <point x="189" y="328"/>
      <point x="172" y="366"/>
      <point x="146" y="366" type="curve" smooth="yes"/>
      <point x="124" y="366"/>
      <point x="103" y="343"/>
      <point x="95" y="305" type="curve"/>
      <point x="98" y="206"/>
      <point x="112" y="163"/>
    </contour>
    <contour>
      <point x="143" y="148" type="curve" smooth="yes"/>
      <point x="97" y="148"/>
      <point x="77" y="205"/>
      <point x="77" y="338" type="curve" smooth="yes"/>
      <point x="77" y="491"/>
      <point x="100" y="558"/>
      <point x="153" y="558" type="curve" smooth="yes"/>
      <point x="167" y="558"/>
      <point x="184" y="551"/>
      <point x="197" y="539" type="curve"/>
      <point x="189" y="526" type="line"/>
      <point x="178" y="536"/>
      <point x="164" y="543"/>
      <point x="152" y="543" type="curve" smooth="yes"/>
      <point x="112" y="543"/>
      <point x="95" y="481"/>
      <point x="94" y="338" type="curve"/>
      <point x="101" y="359"/>
      <point x="123" y="381"/>
      <point x="148" y="381" type="curve" smooth="yes"/>
      <point x="184" y="381"/>
      <point x="207" y="337"/>
      <point x="207" y="268" type="curve" smooth="yes"/>
      <point x="207" y="194"/>
      <point x="183" y="148"/>
    </contour>
  </outline>
</glyph>
<glyph name="uni2793" format="2">
  <advance width="286"/>
  <unicode hex="2793"/>
  <outline>
    <contour>
      <point x="143" y="-10" type="curve" smooth="yes"/>
      <point x="220" y="-10"/>
      <point x="253" y="70"/>
      <point x="253" y="350" type="curve" smooth="yes"/>
      <point x="253" y="631"/>
      <point x="220" y="710"/>
      <point x="143" y="710" type="curve" smooth="yes"/>
      <point x="66" y="710"/>
      <point x="33" y="631"/>
      <point x="33" y="350" type="curve" smooth="yes"/>
      <point x="33" y="70"/>
      <point x="66" y="-10"/>
    </contour>
    <contour>
      <point x="66" y="160" type="line"/>
      <point x="66" y="173" type="line"/>
      <point x="99" y="173" type="line"/>
      <point x="99" y="519" type="line"/>
      <point x="68" y="468" type="line"/>
      <point x="55" y="477" type="line"/>
      <point x="106" y="556" type="line"/>
      <point x="114" y="556" type="line"/>
      <point x="114" y="173" type="line"/>
      <point x="146" y="173" type="line"/>
      <point x="146" y="160" type="line"/>
    </contour>
    <contour>
      <point x="180" y="157" type="curve" smooth="yes"/>
      <point x="148" y="157"/>
      <point x="133" y="195"/>
      <point x="133" y="355" type="curve" smooth="yes"/>
      <point x="133" y="514"/>
      <point x="148" y="558"/>
      <point x="180" y="558" type="curve" smooth="yes"/>
      <point x="213" y="558"/>
      <point x="228" y="514"/>
      <point x="228" y="355" type="curve" smooth="yes"/>
      <point x="228" y="195"/>
      <point x="213" y="157"/>
    </contour>
    <contour>
      <point x="180" y="175" type="curve" smooth="yes"/>
      <point x="205" y="175"/>
      <point x="215" y="208"/>
      <point x="215" y="355" type="curve" smooth="yes"/>
      <point x="215" y="501"/>
      <point x="205" y="540"/>
      <point x="180" y="540" type="curve" smooth="yes"/>
      <point x="157" y="540"/>
      <point x="148" y="501"/>
      <point x="148" y="355" type="curve" smooth="yes"/>
      <point x="148" y="208"/>
      <point x="157" y="175"/>
    </contour>
  </outline>
</glyph>
<glyph name="fi" format="2">
  <advance width="290"/>
  <unicode hex="FB01"/>
  <outline>
    <contour>
      <point x="71" y="0" type="line"/>
      <point x="91" y="0" type="line"/>
      <point x="91" y="511" type="line"/>
      <point x="226" y="511" type="line"/>
      <point x="226" y="0" type="line"/>
      <point x="246" y="0" type="line"/>
      <point x="246" y="530" type="line"/>
      <point x="91" y="530" type="line"/>
      <point x="91" y="532" type="line" smooth="yes"/>
      <point x="91" y="667"/>
      <point x="121" y="731"/>
      <point x="183" y="731" type="curve" smooth="yes"/>
      <point x="207" y="731"/>
      <point x="223" y="727"/>
      <point x="242" y="716" type="curve"/>
      <point x="250" y="731" type="line"/>
      <point x="234" y="744"/>
      <point x="211" y="750"/>
      <point x="183" y="750" type="curve" smooth="yes"/>
      <point x="109" y="750"/>
      <point x="71" y="678"/>
      <point x="71" y="532" type="curve" smooth="yes"/>
      <point x="71" y="530" type="line"/>
      <point x="11" y="524" type="line"/>
      <point x="11" y="511" type="line"/>
      <point x="71" y="511" type="line"/>
    </contour>
  </outline>
</glyph>
<glyph name="Euro.tosf" format="2">
  <advance width="250"/>
  <outline>
    <contour>
      <point x="50" y="259" type="curve" smooth="yes"/>
      <point x="50" y="34"/>
      <point x="99" y="-9"/>
      <point x="175" y="-10" type="curve" smooth="yes"/>
      <point x="191" y="-10"/>
      <point x="210" y="-8"/>
      <point x="231" y="-1" type="curve"/>
      <point x="227" y="17" type="line"/>
      <point x="208" y="11"/>
      <point x="192" y="9"/>
      <point x="176" y="9" type="curve" smooth="yes"/>
      <point x="116" y="9"/>
      <point x="70" y="39"/>
      <point x="70" y="259" type="curve" smooth="yes"/>
      <point x="70" y="500"/>
      <point x="122" y="522"/>
      <point x="176" y="522" type="curve" smooth="yes"/>
      <point x="192" y="522"/>
      <point x="208" y="519"/>
      <point x="227" y="513" type="curve"/>
      <point x="231" y="531" type="line"/>
      <point x="210" y="538"/>
      <point x="191" y="540"/>
      <point x="175" y="540" type="curve" smooth="yes"/>
      <point x="100" y="540"/>
      <point x="50" y="497"/>
    </contour>
    <contour>
      <point x="180" y="323" type="line"/>
      <point x="180" y="343" type="line"/>
      <point x="20" y="343" type="line"/>
      <point x="20" y="323" type="line"/>
    </contour>
    <contour>
      <point x="180" y="185" type="line"/>
      <point x="180" y="205" type="line"/>
      <point x="20" y="205" type="line"/>
      <point x="20" y="185" type="line"/>
    </contour>
  </outline>
</glyph>
<glyph name="T_h.liga" format="2">
  <advance width="466"/>
  <outline>
    <contour>
      <point x="249" y="0" type="line"/>
      <point x="269" y="0" type="line"/>
      <point x="269" y="496" type="line"/>
      <point x="287" y="511"/>
      <point x="320" y="522"/>
      <point x="340" y="522" type="curve" smooth="yes"/>
      <point x="382" y="522"/>
      <point x="402" y="495"/>
      <point x="402" y="446" type="curve" smooth="yes"/>
      <point x="402" y="0" type="line"/>
      <point x="422" y="0" type="line"/>
      <point x="422" y="446" type="line" smooth="yes"/>
      <point x="422" y="516"/>
      <point x="387" y="540"/>
      <point x="347" y="540" type="curve" smooth="yes"/>
      <point x="320" y="540"/>
      <point x="289" y="530"/>
      <point x="269" y="517" type="curve"/>
      <point x="269" y="700" type="line"/>
      <point x="5" y="700" type="line"/>
      <point x="5" y="681" type="line"/>
      <point x="107" y="681" type="line"/>
      <point x="107" y="0" type="line"/>
      <point x="127" y="0" type="line"/>
      <point x="127" y="681" type="line"/>
      <point x="249" y="681" type="line"/>
    </contour>
  </outline>
</glyph>
<glyph name="a.sc" format="2">
  <advance width="275"/>
  <anchor x="254" y="0" name="ogonek"/>
  <anchor x="138" y="0" name="bottom"/>
  <anchor x="139" y="600" name="top"/>
  <outline>
    <contour>
      <point x="21" y="0" type="line"/>
      <point x="41" y="0" type="line"/>
      <point x="74" y="193" type="line"/>
      <point x="202" y="193" type="line"/>
      <point x="234" y="0" type="line"/>
      <point x="254" y="0" type="line"/>
      <point x="147" y="624" type="line"/>
      <point x="130" y="624" type="line"/>
    </contour>
    <contour>
      <point x="77" y="211" type="line"/>
      <point x="139" y="575" type="line"/>
      <point x="199" y="211" type="line"/>
    </contour>
  </outline>
</glyph>
<glyph name="acutecomb.case" format="2">
  <anchor x="-124" y="855" name="top"/>
  <anchor x="-150" y="700" name="_top"/>
  <outline>
    <contour>
      <point x="-166" y="736" type="line"/>
      <point x="-148" y="736" type="line"/>
      <point x="-83" y="885" type="line"/>
      <point x="-103" y="885" type="line"/>
    </contour>
  </outline>
</glyph>
<glyph name="ampersand.sc" format="2">
  <advance width="296"/>
  <outline>
    <contour>
      <point x="280" y="-16" type="line"/>
      <point x="298" y="-6" type="line"/>
      <point x="105" y="352" type="line" smooth="yes"/>
      <point x="77" y="405"/>
      <point x="69" y="448"/>
      <point x="69" y="491" type="curve" smooth="yes"/>
      <point x="69" y="567"/>
      <point x="93" y="604"/>
      <point x="135" y="604" type="curve" smooth="yes"/>
      <point x="175" y="604"/>
      <point x="194" y="564"/>
      <point x="194" y="499" type="curve" smooth="yes"/>
      <point x="194" y="450"/>
      <point x="187" y="410"/>
      <point x="164" y="380" type="curve"/>
      <point x="179" y="371" type="line"/>
      <point x="205" y="406"/>
      <point x="213" y="450"/>
      <point x="213" y="500" type="curve" smooth="yes"/>
      <point x="213" y="578"/>
      <point x="187" y="624"/>
      <point x="135" y="624" type="curve" smooth="yes"/>
      <point x="80" y="624"/>
      <point x="50" y="581"/>
      <point x="50" y="491" type="curve" smooth="yes"/>
      <point x="50" y="447"/>
      <point x="60" y="396"/>
      <point x="91" y="337" type="curve" smooth="yes"/>
    </contour>
    <contour>
      <point x="133" y="-11" type="curve" smooth="yes"/>
      <point x="183" y="-11"/>
      <point x="217" y="18"/>
      <point x="238" y="77" type="curve"/>
      <point x="228" y="96" type="line"/>
      <point x="205" y="32"/>
      <point x="178" y="7"/>
      <point x="135" y="7" type="curve" smooth="yes"/>
      <point x="79" y="7"/>
      <point x="46" y="69"/>
      <point x="46" y="151" type="curve" smooth="yes"/>
      <point x="46" y="233"/>
      <point x="65" y="279"/>
      <point x="104" y="338" type="curve"/>
      <point x="97" y="352" type="line"/>
      <point x="50" y="297"/>
      <point x="27" y="240"/>
      <point x="27" y="151" type="curve" smooth="yes"/>
      <point x="27" y="50"/>
      <point x="66" y="-11"/>
    </contour>
    <contour>
      <point x="243" y="86" type="line"/>
      <point x="260" y="137"/>
      <point x="270" y="205"/>
      <point x="270" y="269" type="curve" smooth="yes"/>
      <point x="270" y="299"/>
      <point x="269" y="314"/>
      <point x="266" y="329" type="curve"/>
      <point x="248" y="327" type="line"/>
      <point x="251" y="311"/>
      <point x="252" y="297"/>
      <point x="252" y="267" type="curve" smooth="yes"/>
      <point x="252" y="209"/>
      <point x="244" y="147"/>
      <point x="231" y="105" type="curve"/>
    </contour>
  </outline>
</glyph>
<glyph name="b.sc" format="2">
  <advance width="263"/>
  <outline>
    <contour>
      <point x="43" y="-5" type="line"/>
      <point x="65" y="-8"/>
      <point x="85" y="-9"/>
      <point x="105" y="-9" type="curve" smooth="yes"/>
      <point x="196" y="-9"/>
      <point x="239" y="45"/>
      <point x="239" y="159" type="curve" smooth="yes"/>
      <point x="239" y="243"/>
      <point x="208" y="297"/>
      <point x="151" y="313" type="curve"/>
      <point x="151" y="314" type="line"/>
      <point x="195" y="333"/>
      <point x="224" y="396"/>
      <point x="224" y="469" type="curve" smooth="yes"/>
      <point x="224" y="575"/>
      <point x="187" y="624"/>
      <point x="105" y="624" type="curve" smooth="yes"/>
      <point x="86" y="624"/>
      <point x="64" y="622"/>
      <point x="43" y="619" type="curve"/>
    </contour>
    <contour>
      <point x="63" y="320" type="line"/>
      <point x="63" y="603" type="line"/>
      <point x="76" y="606"/>
      <point x="88" y="607"/>
      <point x="106" y="607" type="curve" smooth="yes"/>
      <point x="172" y="607"/>
      <point x="204" y="561"/>
      <point x="204" y="469" type="curve" smooth="yes"/>
      <point x="204" y="385"/>
      <point x="168" y="320"/>
      <point x="122" y="320" type="curve" smooth="yes"/>
    </contour>
    <contour>
      <point x="63" y="12" type="curve"/>
      <point x="63" y="302" type="line"/>
      <point x="125" y="302" type="line" smooth="yes"/>
      <point x="181" y="302"/>
      <point x="219" y="245"/>
      <point x="219" y="160" type="curve" smooth="yes"/>
      <point x="219" y="54"/>
      <point x="185" y="9"/>
      <point x="103" y="9" type="curve" smooth="yes"/>
      <point x="93" y="9"/>
      <point x="86" y="10"/>
    </contour>
  </outline>
</glyph>
<glyph name="b.superior" format="2">
  <advance width="181"/>
  <outline>
    <contour>
      <point x="40" y="373" type="line"/>
      <point x="59" y="367"/>
      <point x="73" y="364"/>
      <point x="86" y="364" type="curve" smooth="yes"/>
      <point x="137" y="364"/>
      <point x="156" y="407"/>
      <point x="156" y="524" type="curve" smooth="yes"/>
      <point x="156" y="623"/>
      <point x="136" y="675"/>
      <point x="97" y="675" type="curve" smooth="yes"/>
      <point x="83" y="675"/>
      <point x="67" y="668"/>
      <point x="59" y="663" type="curve"/>
      <point x="59" y="788" type="line"/>
      <point x="40" y="788" type="line"/>
    </contour>
    <contour>
      <point x="59" y="385" type="curve"/>
      <point x="59" y="648" type="line"/>
      <point x="73" y="656"/>
      <point x="83" y="659"/>
      <point x="95" y="659" type="curve" smooth="yes"/>
      <point x="123" y="659"/>
      <point x="137" y="615"/>
      <point x="137" y="524" type="curve" smooth="yes"/>
      <point x="137" y="411"/>
      <point x="125" y="380"/>
      <point x="83" y="380" type="curve" smooth="yes"/>
      <point x="75" y="380"/>
      <point x="69" y="381"/>
    </contour>
  </outline>
</glyph>
<glyph name="blacktriangle" format="2">
  <advance width="347"/>
  <outline>
    <contour>
      <point x="85" y="182" type="line"/>
      <point x="288" y="299" type="line"/>
      <point x="85" y="417" type="line"/>
    </contour>
  </outline>
</glyph>
<glyph name="braceright.sc" format="2">
  <advance width="172"/>
  <outline>
    <contour>
      <point x="18" y="-105" type="line"/>
      <point x="18" y="-125" type="line"/>
      <point x="36" y="-125" type="line" smooth="yes"/>
      <point x="85" y="-125"/>
      <point x="105" y="-65"/>
      <point x="105" y="1" type="curve" smooth="yes"/>
      <point x="105" y="86"/>
      <point x="75" y="143"/>
      <point x="75" y="222" type="curve" smooth="yes"/>
      <point x="75" y="256"/>
      <point x="84" y="297"/>
      <point x="103" y="297" type="curve" smooth="yes"/>
      <point x="122" y="297" type="line"/>
      <point x="122" y="317" type="line"/>
      <point x="103" y="317" type="line" smooth="yes"/>
      <point x="84" y="317"/>
      <point x="75" y="360"/>
      <point x="75" y="393" type="curve" smooth="yes"/>
      <point x="75" y="469"/>
      <point x="105" y="523"/>
      <point x="105" y="614" type="curve" smooth="yes"/>
      <point x="105" y="680"/>
      <point x="85" y="740"/>
      <point x="36" y="740" type="curve" smooth="yes"/>
      <point x="18" y="740" type="line"/>
      <point x="18" y="720" type="line"/>
      <point x="36" y="720" type="line" smooth="yes"/>
      <point x="72" y="720"/>
      <point x="85" y="671"/>
      <point x="85" y="614" type="curve" smooth="yes"/>
      <point x="85" y="528"/>
      <point x="55" y="470"/>
      <point x="55" y="393" type="curve" smooth="yes"/>
      <point x="55" y="363"/>
      <point x="62" y="326"/>
      <point x="84" y="307" type="curve"/>
      <point x="62" y="293"/>
      <point x="55" y="252"/>
      <point x="55" y="222" type="curve" smooth="yes"/>
      <point x="55" y="138"/>
      <point x="85" y="80"/>
      <point x="85" y="1" type="curve" smooth="yes"/>
      <point x="85" y="-56"/>
      <point x="72" y="-105"/>
      <point x="36" y="-105" type="curve" smooth="yes"/>
    </contour>
  </outline>
</glyph>
<glyph name="bracketleft.sc" format="2">
  <advance width="172"/>
  <outline>
    <contour>
      <point x="50" y="-125" type="line"/>
      <point x="165" y="-125" type="line"/>
      <point x="165" y="-105" type="line"/>
      <point x="70" y="-105" type="line"/>
      <point x="70" y="720" type="line"/>
      <point x="165" y="720" type="line"/>
      <point x="165" y="740" type="line"/>
      <point x="50" y="740" type="line"/>
    </contour>
  </outline>
</glyph>
<glyph name="c.sc" format="2">
  <advance width="232"/>
  <anchor x="145" y="600" name="top"/>
  <anchor x="148" y="0" name="bottom"/>
  <outline>
    <contour>
      <point x="28" y="295" type="curve" smooth="yes"/>
      <point x="28" y="49"/>
      <point x="79" y="-9"/>
      <point x="155" y="-9" type="curve" smooth="yes"/>
      <point x="170" y="-9"/>
      <point x="201" y="-7"/>
      <point x="218" y="-2" type="curve"/>
      <point x="214" y="16" type="line"/>
      <point x="201" y="12"/>
      <point x="169" y="8"/>
      <point x="156" y="8" type="curve" smooth="yes"/>
      <point x="92" y="8"/>
      <point x="48" y="67"/>
      <point x="48" y="295" type="curve" smooth="yes"/>
      <point x="48" y="547"/>
      <point x="92" y="606"/>
      <point x="160" y="606" type="curve" smooth="yes"/>
      <point x="175" y="606"/>
      <point x="191" y="604"/>
      <point x="209" y="599" type="curve"/>
      <point x="213" y="616" type="line"/>
      <point x="194" y="622"/>
      <point x="174" y="624"/>
      <point x="159" y="624" type="curve" smooth="yes"/>
      <point x="72" y="624"/>
      <point x="28" y="547"/>
    </contour>
  </outline>
</glyph>
<glyph name="d.superior" format="2">
  <advance width="182"/>
  <outline>
    <contour>
      <point x="87" y="364" type="curve" smooth="yes"/>
      <point x="100" y="364"/>
      <point x="115" y="372"/>
      <point x="123" y="383" type="curve"/>
      <point x="124" y="370" type="line"/>
      <point x="142" y="370" type="line"/>
      <point x="142" y="788" type="line"/>
      <point x="123" y="788" type="line"/>
      <point x="123" y="671" type="line"/>
      <point x="112" y="673"/>
      <point x="104" y="675"/>
      <point x="95" y="675" type="curve" smooth="yes"/>
      <point x="44" y="675"/>
      <point x="25" y="630"/>
      <point x="25" y="511" type="curve" smooth="yes"/>
      <point x="25" y="411"/>
      <point x="45" y="364"/>
    </contour>
    <contour>
      <point x="88" y="380" type="curve" smooth="yes"/>
      <point x="60" y="380"/>
      <point x="44" y="426"/>
      <point x="44" y="509" type="curve" smooth="yes"/>
      <point x="44" y="623"/>
      <point x="57" y="659"/>
      <point x="98" y="659" type="curve" smooth="yes"/>
      <point x="106" y="659"/>
      <point x="113" y="658"/>
      <point x="123" y="655" type="curve"/>
      <point x="123" y="397" type="line"/>
      <point x="116" y="386"/>
      <point x="103" y="380"/>
    </contour>
  </outline>
</glyph>
<glyph name="dcroat.sc" format="2">
  <advance width="274"/>
  <outline>
    <contour>
      <point x="-1" y="307" type="line"/>
      <point x="40" y="307" type="line"/>
      <point x="40" y="-5" type="line"/>
      <point x="58" y="-8"/>
      <point x="85" y="-9"/>
      <point x="108" y="-9" type="curve" smooth="yes"/>
      <point x="209" y="-9"/>
      <point x="246" y="76"/>
      <point x="246" y="308" type="curve" smooth="yes"/>
      <point x="246" y="537"/>
      <point x="209" y="624"/>
      <point x="112" y="624" type="curve" smooth="yes"/>
      <point x="89" y="624"/>
      <point x="64" y="622"/>
      <point x="40" y="619" type="curve"/>
      <point x="40" y="326" type="line"/>
      <point x="-1" y="326" type="line"/>
    </contour>
    <contour>
      <point x="60" y="11" type="curve"/>
      <point x="60" y="307" type="line"/>
      <point x="157" y="307" type="line"/>
      <point x="157" y="326" type="line"/>
      <point x="60" y="326" type="line"/>
      <point x="60" y="603" type="line"/>
      <point x="73" y="605"/>
      <point x="90" y="606"/>
      <point x="102" y="606" type="curve" smooth="yes"/>
      <point x="195" y="606"/>
      <point x="225" y="533"/>
      <point x="225" y="308" type="curve" smooth="yes"/>
      <point x="225" y="80"/>
      <point x="194" y="8"/>
      <point x="97" y="8" type="curve" smooth="yes"/>
      <point x="87" y="8"/>
      <point x="76" y="9"/>
    </contour>
  </outline>
</glyph>
<glyph name="dollar.tosf" format="2">
  <advance width="250"/>
  <outline>
    <contour>
      <point x="109" y="-10" type="curve" smooth="yes"/>
      <point x="165" y="-10"/>
      <point x="199" y="35"/>
      <point x="199" y="110" type="curve" smooth="yes"/>
      <point x="199" y="181"/>
      <point x="168" y="227"/>
      <point x="138" y="273" type="curve" smooth="yes"/>
      <point x="108" y="318"/>
      <point x="79" y="362"/>
      <point x="79" y="429" type="curve" smooth="yes"/>
      <point x="79" y="484"/>
      <point x="103" y="520"/>
      <point x="139" y="520" type="curve" smooth="yes"/>
      <point x="150" y="520"/>
      <point x="159" y="517"/>
      <point x="173" y="510" type="curve"/>
      <point x="182" y="527" type="line"/>
      <point x="169" y="536"/>
      <point x="154" y="540"/>
      <point x="141" y="540" type="curve" smooth="yes"/>
      <point x="93" y="540"/>
      <point x="59" y="493"/>
      <point x="59" y="429" type="curve" smooth="yes"/>
      <point x="59" y="355"/>
      <point x="90" y="307"/>
      <point x="120" y="261" type="curve" smooth="yes"/>
      <point x="150" y="216"/>
      <point x="179" y="174"/>
      <point x="179" y="110" type="curve" smooth="yes"/>
      <point x="179" y="48"/>
      <point x="154" y="10"/>
      <point x="110" y="10" type="curve" smooth="yes"/>
      <point x="94" y="10"/>
      <point x="78" y="15"/>
      <point x="59" y="26" type="curve"/>
      <point x="51" y="9" type="line"/>
      <point x="69" y="-4"/>
      <point x="86" y="-10"/>
    </contour>
    <contour>
      <point x="121" y="-105" type="line"/>
      <point x="141" y="-105" type="line"/>
      <point x="141" y="1" type="line"/>
      <point x="121" y="-4" type="line"/>
    </contour>
    <contour>
      <point x="121" y="532" type="line"/>
      <point x="141" y="535" type="line"/>
      <point x="141" y="635" type="line"/>
      <point x="121" y="635" type="line"/>
    </contour>
  </outline>
</glyph>
<glyph name="dollarsuperior" format="2">
  <advance width="130"/>
  <outline>
    <contour>
      <point x="54" y="361" type="curve" smooth="yes"/>
      <point x="91" y="361"/>
      <point x="114" y="393"/>
      <point x="114" y="439" type="curve" smooth="yes"/>
      <point x="114" y="477"/>
      <point x="103" y="514"/>
      <point x="74" y="575" type="curve" smooth="yes"/>
      <point x="43" y="640"/>
      <point x="37" y="662"/>
      <point x="37" y="700" type="curve" smooth="yes"/>
      <point x="37" y="736"/>
      <point x="49" y="759"/>
      <point x="72" y="759" type="curve" smooth="yes"/>
      <point x="81" y="759"/>
      <point x="90" y="757"/>
      <point x="98" y="753" type="curve"/>
      <point x="105" y="767" type="line"/>
      <point x="96" y="773"/>
      <point x="83" y="777"/>
      <point x="71" y="777" type="curve" smooth="yes"/>
      <point x="39" y="777"/>
      <point x="19" y="746"/>
      <point x="19" y="700" type="curve" smooth="yes"/>
      <point x="19" y="657"/>
      <point x="26" y="635"/>
      <point x="59" y="565" type="curve" smooth="yes"/>
      <point x="90" y="500"/>
      <point x="97" y="475"/>
      <point x="97" y="437" type="curve" smooth="yes"/>
      <point x="97" y="402"/>
      <point x="80" y="378"/>
      <point x="56" y="378" type="curve" smooth="yes"/>
      <point x="45" y="378"/>
      <point x="35" y="381"/>
      <point x="22" y="388" type="curve"/>
      <point x="16" y="371" type="line"/>
      <point x="26" y="365"/>
      <point x="41" y="361"/>
    </contour>
    <contour>
      <point x="60" y="307" type="line"/>
      <point x="77" y="307" type="line"/>
      <point x="77" y="373" type="line"/>
      <point x="60" y="370" type="line"/>
    </contour>
    <contour>
      <point x="60" y="768" type="line"/>
      <point x="77" y="769" type="line"/>
      <point x="77" y="831" type="line"/>
      <point x="60" y="831" type="line"/>
    </contour>
  </outline>
</glyph>
<glyph name="eurosuperior" format="2">
  <advance width="150"/>
  <outline>
    <contour>
      <point x="38" y="567" type="curve" smooth="yes"/>
      <point x="38" y="414"/>
      <point x="57" y="361"/>
      <point x="112" y="361" type="curve" smooth="yes"/>
      <point x="122" y="361"/>
      <point x="134" y="362"/>
      <point x="148" y="367" type="curve"/>
      <point x="143" y="384" type="line"/>
      <point x="131" y="379"/>
      <point x="121" y="378"/>
      <point x="112" y="378" type="curve" smooth="yes"/>
      <point x="71" y="378"/>
      <point x="56" y="416"/>
      <point x="56" y="567" type="curve" smooth="yes"/>
      <point x="56" y="702"/>
      <point x="73" y="762"/>
      <point x="112" y="762" type="curve" smooth="yes"/>
      <point x="121" y="762"/>
      <point x="131" y="761"/>
      <point x="143" y="756" type="curve"/>
      <point x="148" y="772" type="line"/>
      <point x="134" y="777"/>
      <point x="122" y="778"/>
      <point x="112" y="778" type="curve" smooth="yes"/>
      <point x="55" y="778"/>
      <point x="38" y="704"/>
    </contour>
    <contour>
      <point x="118" y="606" type="line"/>
      <point x="118" y="624" type="line"/>
      <point x="21" y="624" type="line"/>
      <point x="21" y="606" type="line"/>
    </contour>
    <contour>
      <point x="118" y="517" type="line"/>
      <point x="118" y="533" type="line"/>
      <point x="21" y="533" type="line"/>
      <point x="21" y="517" type="line"/>
    </contour>
  </outline>
</glyph>
<glyph name="exclamdown.case" format="2">
  <advance width="114"/>
  <outline>
    <contour>
      <point x="67" y="476" type="line"/>
      <point x="47" y="476" type="line"/>
      <point x="47" y="0" type="line"/>
      <point x="67" y="0" type="line"/>
    </contour>
    <contour>
      <point x="71" y="683" type="curve" smooth="yes"/>
      <point x="71" y="699"/>
      <point x="71" y="700"/>
      <point x="57" y="700" type="curve" smooth="yes"/>
      <point x="44" y="700"/>
      <point x="43" y="699"/>
      <point x="43" y="683" type="curve" smooth="yes"/>
      <point x="43" y="667"/>
      <point x="43" y="666"/>
      <point x="57" y="666" type="curve" smooth="yes"/>
      <point x="71" y="666"/>
      <point x="71" y="667"/>
    </contour>
  </outline>
</glyph>
<glyph name="f.sc" format="2">
  <advance width="212"/>
  <outline>
    <contour>
      <point x="43" y="0" type="line"/>
      <point x="63" y="0" type="line"/>
      <point x="63" y="306" type="line"/>
      <point x="178" y="306" type="line"/>
      <point x="178" y="325" type="line"/>
      <point x="63" y="325" type="line"/>
      <point x="63" y="596" type="line"/>
      <point x="210" y="596" type="line"/>
      <point x="210" y="615" type="line"/>
      <point x="43" y="615" type="line"/>
    </contour>
  </outline>
</glyph>
<glyph name="f.superior" format="2">
  <advance width="113"/>
  <outline>
    <contour>
      <point x="44" y="370" type="line"/>
      <point x="62" y="370" type="line"/>
      <point x="62" y="627" type="line"/>
      <point x="111" y="627" type="line"/>
      <point x="111" y="643" type="line"/>
      <point x="62" y="643" type="line"/>
      <point x="62" y="646" type="line" smooth="yes"/>
      <point x="62" y="757"/>
      <point x="81" y="776"/>
      <point x="113" y="776" type="curve" smooth="yes"/>
      <point x="120" y="776"/>
      <point x="126" y="776"/>
      <point x="135" y="773" type="curve"/>
      <point x="138" y="788" type="line"/>
      <point x="129" y="791"/>
      <point x="119" y="792"/>
      <point x="112" y="792" type="curve" smooth="yes"/>
      <point x="54" y="792"/>
      <point x="44" y="734"/>
      <point x="44" y="646" type="curve" smooth="yes"/>
      <point x="44" y="644" type="line"/>
      <point x="10" y="639" type="line"/>
      <point x="10" y="627" type="line"/>
      <point x="44" y="627" type="line"/>
    </contour>
  </outline>
</glyph>
<glyph name="f_b.liga" format="2">
  <advance width="438"/>
  <outline>
    <contour>
      <point x="294" y="-10" type="curve" smooth="yes"/>
      <point x="378" y="-10"/>
      <point x="409" y="67"/>
      <point x="409" y="276" type="curve" smooth="yes"/>
      <point x="409" y="447"/>
      <point x="376" y="540"/>
      <point x="314" y="540" type="curve" smooth="yes"/>
      <point x="291" y="540"/>
      <point x="262" y="531"/>
      <point x="246" y="520" type="curve"/>
      <point x="246" y="734" type="line"/>
      <point x="228" y="744"/>
      <point x="206" y="750"/>
      <point x="182" y="750" type="curve" smooth="yes"/>
      <point x="106" y="750"/>
      <point x="71" y="680"/>
      <point x="71" y="515" type="curve" smooth="yes"/>
      <point x="71" y="484" type="line"/>
      <point x="11" y="478" type="line"/>
      <point x="11" y="465" type="line"/>
      <point x="71" y="465" type="line"/>
      <point x="71" y="0" type="line"/>
      <point x="91" y="0" type="line"/>
      <point x="91" y="465" type="line"/>
      <point x="167" y="465" type="line"/>
      <point x="167" y="484" type="line"/>
      <point x="91" y="484" type="line"/>
      <point x="91" y="515" type="line" smooth="yes"/>
      <point x="91" y="667"/>
      <point x="118" y="731"/>
      <point x="182" y="731" type="curve" smooth="yes"/>
      <point x="196" y="731"/>
      <point x="210" y="729"/>
      <point x="226" y="723" type="curve"/>
      <point x="226" y="4" type="line"/>
      <point x="256" y="-6"/>
      <point x="275" y="-10"/>
    </contour>
    <contour>
      <point x="289" y="7" type="curve" smooth="yes"/>
      <point x="277" y="7"/>
      <point x="268" y="9"/>
      <point x="246" y="15" type="curve"/>
      <point x="246" y="500" type="line"/>
      <point x="271" y="517"/>
      <point x="286" y="522"/>
      <point x="309" y="522" type="curve" smooth="yes"/>
      <point x="361" y="522"/>
      <point x="389" y="435"/>
      <point x="389" y="276" type="curve" smooth="yes"/>
      <point x="389" y="74"/>
      <point x="364" y="7"/>
    </contour>
  </outline>
</glyph>
<glyph name="f_f.liga" format="2">
  <advance width="345"/>
  <outline>
    <contour>
      <point x="71" y="0" type="line"/>
      <point x="91" y="0" type="line"/>
      <point x="91" y="465" type="line"/>
      <point x="226" y="465" type="line"/>
      <point x="226" y="0" type="line"/>
      <point x="246" y="0" type="line"/>
      <point x="246" y="465" type="line"/>
      <point x="332" y="465" type="line"/>
      <point x="332" y="484" type="line"/>
      <point x="246" y="484" type="line"/>
      <point x="246" y="515" type="line" smooth="yes"/>
      <point x="246" y="667"/>
      <point x="274" y="731"/>
      <point x="337" y="731" type="curve" smooth="yes"/>
      <point x="350" y="731"/>
      <point x="363" y="730"/>
      <point x="378" y="725" type="curve"/>
      <point x="382" y="743" type="line"/>
      <point x="365" y="748"/>
      <point x="350" y="750"/>
      <point x="337" y="750" type="curve" smooth="yes"/>
      <point x="308" y="750"/>
      <point x="284" y="740"/>
      <point x="267" y="717" type="curve"/>
      <point x="248" y="729"/>
      <point x="222" y="740"/>
      <point x="190" y="740" type="curve" smooth="yes"/>
      <point x="125" y="740"/>
      <point x="71" y="688"/>
      <point x="71" y="486" type="curve" smooth="yes"/>
      <point x="71" y="484" type="line"/>
      <point x="11" y="478" type="line"/>
      <point x="11" y="465" type="line"/>
      <point x="71" y="465" type="line"/>
    </contour>
    <contour>
      <point x="91" y="484" type="line"/>
      <point x="91" y="486" type="line" smooth="yes"/>
      <point x="91" y="673"/>
      <point x="136" y="721"/>
      <point x="191" y="721" type="curve" smooth="yes"/>
      <point x="218" y="721"/>
      <point x="240" y="712"/>
      <point x="257" y="703" type="curve"/>
      <point x="236" y="665"/>
      <point x="226" y="604"/>
      <point x="226" y="515" type="curve" smooth="yes"/>
      <point x="226" y="484" type="line"/>
    </contour>
  </outline>
</glyph>
<glyph name="f_f_b.liga" format="2">
  <advance width="593"/>
  <outline>
    <contour>
      <point x="449" y="-10" type="curve" smooth="yes"/>
      <point x="533" y="-10"/>
      <point x="564" y="67"/>
      <point x="564" y="276" type="curve" smooth="yes"/>
      <point x="564" y="447"/>
      <point x="531" y="540"/>
      <point x="469" y="540" type="curve" smooth="yes"/>
      <point x="446" y="540"/>
      <point x="417" y="531"/>
      <point x="401" y="520" type="curve"/>
      <point x="401" y="734" type="line"/>
      <point x="383" y="745"/>
      <point x="360" y="750"/>
      <point x="337" y="750" type="curve" smooth="yes"/>
      <point x="305" y="750"/>
      <point x="283" y="738"/>
      <point x="266" y="718" type="curve"/>
      <point x="247" y="729"/>
      <point x="221" y="740"/>
      <point x="190" y="740" type="curve" smooth="yes"/>
      <point x="125" y="740"/>
      <point x="71" y="688"/>
      <point x="71" y="486" type="curve" smooth="yes"/>
      <point x="71" y="484" type="line"/>
      <point x="11" y="478" type="line"/>
      <point x="11" y="465" type="line"/>
      <point x="71" y="465" type="line"/>
      <point x="71" y="0" type="line"/>
      <point x="91" y="0" type="line"/>
      <point x="91" y="465" type="line"/>
      <point x="226" y="465" type="line"/>
      <point x="226" y="0" type="line"/>
      <point x="246" y="0" type="line"/>
      <point x="246" y="465" type="line"/>
      <point x="322" y="465" type="line"/>
      <point x="322" y="484" type="line"/>
      <point x="246" y="484" type="line"/>
      <point x="246" y="486" type="line" smooth="yes"/>
      <point x="246" y="696"/>
      <point x="283" y="731"/>
      <point x="337" y="731" type="curve" smooth="yes"/>
      <point x="353" y="731"/>
      <point x="367" y="728"/>
      <point x="381" y="723" type="curve"/>
      <point x="381" y="4" type="line"/>
      <point x="411" y="-6"/>
      <point x="430" y="-10"/>
    </contour>
    <contour>
      <point x="91" y="484" type="line"/>
      <point x="91" y="486" type="line" smooth="yes"/>
      <point x="91" y="673"/>
      <point x="136" y="721"/>
      <point x="191" y="721" type="curve" smooth="yes"/>
      <point x="217" y="721"/>
      <point x="239" y="712"/>
      <point x="257" y="703" type="curve"/>
      <point x="231" y="657"/>
      <point x="226" y="580"/>
      <point x="226" y="486" type="curve" smooth="yes"/>
      <point x="226" y="484" type="line"/>
    </contour>
    <contour>
      <point x="444" y="7" type="curve" smooth="yes"/>
      <point x="432" y="7"/>
      <point x="423" y="9"/>
      <point x="401" y="15" type="curve"/>
      <point x="401" y="500" type="line"/>
      <point x="426" y="517"/>
      <point x="441" y="522"/>
      <point x="464" y="522" type="curve" smooth="yes"/>
      <point x="516" y="522"/>
      <point x="544" y="435"/>
      <point x="544" y="276" type="curve" smooth="yes"/>
      <point x="544" y="74"/>
      <point x="519" y="7"/>
    </contour>
  </outline>
</glyph>
<glyph name="f_f_i.liga" format="2">
  <advance width="445"/>
  <outline>
    <contour>
      <point x="71" y="0" type="line"/>
      <point x="91" y="0" type="line"/>
      <point x="91" y="511" type="line"/>
      <point x="226" y="511" type="line"/>
      <point x="226" y="0" type="line"/>
      <point x="246" y="0" type="line"/>
      <point x="246" y="511" type="line"/>
      <point x="381" y="511" type="line"/>
      <point x="381" y="0" type="line"/>
      <point x="401" y="0" type="line"/>
      <point x="401" y="530" type="line"/>
      <point x="246" y="530" type="line"/>
      <point x="246" y="532" type="line" smooth="yes"/>
      <point x="246" y="692"/>
      <point x="289" y="731"/>
      <point x="337" y="731" type="curve" smooth="yes"/>
      <point x="360" y="731"/>
      <point x="378" y="727"/>
      <point x="397" y="716" type="curve"/>
      <point x="405" y="731" type="line"/>
      <point x="387" y="744"/>
      <point x="363" y="750"/>
      <point x="337" y="750" type="curve" smooth="yes"/>
      <point x="306" y="750"/>
      <point x="284" y="737"/>
      <point x="267" y="717" type="curve"/>
      <point x="247" y="728"/>
      <point x="221" y="740"/>
      <point x="190" y="740" type="curve" smooth="yes"/>
      <point x="125" y="740"/>
      <point x="71" y="688"/>
      <point x="71" y="532" type="curve" smooth="yes"/>
      <point x="71" y="530" type="line"/>
      <point x="11" y="524" type="line"/>
      <point x="11" y="511" type="line"/>
      <point x="71" y="511" type="line"/>
    </contour>
    <contour>
      <point x="91" y="530" type="line"/>
      <point x="91" y="532" type="line" smooth="yes"/>
      <point x="91" y="673"/>
      <point x="136" y="721"/>
      <point x="191" y="721" type="curve" smooth="yes"/>
      <point x="217" y="721"/>
      <point x="239" y="712"/>
      <point x="257" y="703" type="curve"/>
      <point x="232" y="661"/>
      <point x="226" y="596"/>
      <point x="226" y="532" type="curve" smooth="yes"/>
      <point x="226" y="530" type="line"/>
    </contour>
  </outline>
</glyph>
<glyph name="f_f_j.liga" format="2">
  <advance width="445"/>
  <outline>
    <contour>
      <point x="397" y="716" type="curve"/>
      <point x="405" y="731" type="line"/>
      <point x="387" y="744"/>
      <point x="363" y="750"/>
      <point x="337" y="750" type="curve" smooth="yes"/>
      <point x="306" y="750"/>
      <point x="284" y="737"/>
      <point x="267" y="717" type="curve"/>
      <point x="247" y="728"/>
      <point x="221" y="740"/>
      <point x="190" y="740" type="curve" smooth="yes"/>
      <point x="125" y="740"/>
      <point x="71" y="688"/>
      <point x="71" y="532" type="curve" smooth="yes"/>
      <point x="71" y="530" type="line"/>
      <point x="11" y="524" type="line"/>
      <point x="11" y="511" type="line"/>
      <point x="71" y="511" type="line"/>
      <point x="71" y="0" type="line"/>
      <point x="91" y="0" type="line"/>
      <point x="91" y="511" type="line"/>
      <point x="226" y="511" type="line"/>
      <point x="226" y="0" type="line"/>
      <point x="246" y="0" type="line"/>
      <point x="246" y="511" type="line"/>
      <point x="381" y="511" type="line"/>
      <point x="381" y="14" type="line" smooth="yes"/>
      <point x="381" y="-84"/>
      <point x="362" y="-148"/>
      <point x="328" y="-180" type="curve" smooth="yes"/>
      <point x="323" y="-185"/>
      <point x="318" y="-189"/>
      <point x="312" y="-192" type="curve"/>
      <point x="321" y="-209" type="line"/>
      <point x="329" y="-204"/>
      <point x="336" y="-198"/>
      <point x="343" y="-192" type="curve" smooth="yes"/>
      <point x="381" y="-155"/>
      <point x="401" y="-90"/>
      <point x="401" y="14" type="curve" smooth="yes"/>
      <point x="401" y="530" type="line"/>
      <point x="246" y="530" type="line"/>
      <point x="246" y="532" type="line" smooth="yes"/>
      <point x="246" y="692"/>
      <point x="289" y="731"/>
      <point x="337" y="731" type="curve" smooth="yes"/>
      <point x="360" y="731"/>
      <point x="378" y="727"/>
    </contour>
    <contour>
      <point x="226" y="532" type="curve"/>
      <point x="226" y="530" type="line"/>
      <point x="91" y="530" type="line"/>
      <point x="91" y="532" type="line" smooth="yes"/>
      <point x="91" y="673"/>
      <point x="136" y="721"/>
      <point x="191" y="721" type="curve" smooth="yes"/>
      <point x="217" y="721"/>
      <point x="239" y="712"/>
      <point x="257" y="703" type="curve"/>
      <point x="232" y="661"/>
      <point x="226" y="596"/>
    </contour>
  </outline>
</glyph>
<glyph name="f_f_k.liga" format="2">
  <advance width="577"/>
  <outline>
    <contour>
      <point x="575" y="-6" type="curve" smooth="yes"/>
      <point x="581" y="-6"/>
      <point x="587" y="-4"/>
      <point x="591" y="-2" type="curve"/>
      <point x="589" y="17" type="line"/>
      <point x="585" y="16"/>
      <point x="580" y="15"/>
      <point x="576" y="15" type="curve" smooth="yes"/>
      <point x="561" y="15"/>
      <point x="557" y="19"/>
      <point x="500" y="132" type="curve" smooth="yes"/>
      <point x="401" y="327" type="line"/>
      <point x="401" y="734" type="line"/>
      <point x="383" y="745"/>
      <point x="360" y="750"/>
      <point x="337" y="750" type="curve" smooth="yes"/>
      <point x="305" y="750"/>
      <point x="283" y="738"/>
      <point x="266" y="718" type="curve"/>
      <point x="247" y="729"/>
      <point x="221" y="740"/>
      <point x="190" y="740" type="curve" smooth="yes"/>
      <point x="125" y="740"/>
      <point x="71" y="688"/>
      <point x="71" y="486" type="curve" smooth="yes"/>
      <point x="71" y="484" type="line"/>
      <point x="11" y="478" type="line"/>
      <point x="11" y="465" type="line"/>
      <point x="71" y="465" type="line"/>
      <point x="71" y="0" type="line"/>
      <point x="91" y="0" type="line"/>
      <point x="91" y="465" type="line"/>
      <point x="226" y="465" type="line"/>
      <point x="226" y="0" type="line"/>
      <point x="246" y="0" type="line"/>
      <point x="246" y="465" type="line"/>
      <point x="322" y="465" type="line"/>
      <point x="322" y="484" type="line"/>
      <point x="246" y="484" type="line"/>
      <point x="246" y="486" type="line" smooth="yes"/>
      <point x="246" y="696"/>
      <point x="283" y="731"/>
      <point x="337" y="731" type="curve" smooth="yes"/>
      <point x="353" y="731"/>
      <point x="367" y="728"/>
      <point x="381" y="723" type="curve"/>
      <point x="381" y="0" type="line"/>
      <point x="401" y="0" type="line"/>
      <point x="401" y="286" type="line"/>
      <point x="486" y="119" type="line" smooth="yes"/>
      <point x="545" y="3"/>
      <point x="551" y="-6"/>
    </contour>
    <contour>
      <point x="91" y="484" type="line"/>
      <point x="91" y="486" type="line" smooth="yes"/>
      <point x="91" y="673"/>
      <point x="136" y="721"/>
      <point x="191" y="721" type="curve" smooth="yes"/>
      <point x="217" y="721"/>
      <point x="239" y="712"/>
      <point x="257" y="703" type="curve"/>
      <point x="231" y="657"/>
      <point x="226" y="580"/>
      <point x="226" y="486" type="curve" smooth="yes"/>
      <point x="226" y="484" type="line"/>
    </contour>
    <contour>
      <point x="436" y="235" type="line"/>
      <point x="480" y="309"/>
      <point x="540" y="404"/>
      <point x="561" y="532" type="curve"/>
      <point x="543" y="539" type="line"/>
      <point x="521" y="405"/>
      <point x="465" y="322"/>
      <point x="426" y="255" type="curve"/>
    </contour>
  </outline>
</glyph>
<glyph name="f_k.liga" format="2">
  <advance width="422"/>
  <outline>
    <contour>
      <point x="420" y="-6" type="curve" smooth="yes"/>
      <point x="426" y="-6"/>
      <point x="432" y="-4"/>
      <point x="436" y="-2" type="curve"/>
      <point x="434" y="17" type="line"/>
      <point x="430" y="16"/>
      <point x="425" y="15"/>
      <point x="421" y="15" type="curve" smooth="yes"/>
      <point x="406" y="15"/>
      <point x="402" y="19"/>
      <point x="345" y="132" type="curve" smooth="yes"/>
      <point x="246" y="327" type="line"/>
      <point x="246" y="734" type="line"/>
      <point x="228" y="745"/>
      <point x="205" y="750"/>
      <point x="182" y="750" type="curve" smooth="yes"/>
      <point x="84" y="750"/>
      <point x="71" y="640"/>
      <point x="71" y="486" type="curve" smooth="yes"/>
      <point x="71" y="484" type="line"/>
      <point x="11" y="478" type="line"/>
      <point x="11" y="465" type="line"/>
      <point x="71" y="465" type="line"/>
      <point x="71" y="0" type="line"/>
      <point x="91" y="0" type="line"/>
      <point x="91" y="465" type="line"/>
      <point x="167" y="465" type="line"/>
      <point x="167" y="484" type="line"/>
      <point x="91" y="484" type="line"/>
      <point x="91" y="486" type="line" smooth="yes"/>
      <point x="91" y="696"/>
      <point x="128" y="731"/>
      <point x="182" y="731" type="curve" smooth="yes"/>
      <point x="198" y="731"/>
      <point x="212" y="728"/>
      <point x="226" y="723" type="curve"/>
      <point x="226" y="0" type="line"/>
      <point x="246" y="0" type="line"/>
      <point x="246" y="286" type="line"/>
      <point x="331" y="119" type="line" smooth="yes"/>
      <point x="390" y="3"/>
      <point x="396" y="-6"/>
    </contour>
    <contour>
      <point x="281" y="235" type="line"/>
      <point x="325" y="309"/>
      <point x="385" y="404"/>
      <point x="406" y="532" type="curve"/>
      <point x="388" y="539" type="line"/>
      <point x="366" y="405"/>
      <point x="310" y="322"/>
      <point x="271" y="255" type="curve"/>
    </contour>
  </outline>
</glyph>
<glyph name="f_t.liga" format="2">
  <advance width="355"/>
  <outline>
    <contour>
      <point x="313" y="-10" type="curve" smooth="yes"/>
      <point x="326" y="-10"/>
      <point x="341" y="-8"/>
      <point x="358" y="-3" type="curve"/>
      <point x="354" y="15" type="line"/>
      <point x="339" y="10"/>
      <point x="326" y="9"/>
      <point x="313" y="9" type="curve" smooth="yes"/>
      <point x="264" y="9"/>
      <point x="246" y="38"/>
      <point x="246" y="108" type="curve" smooth="yes"/>
      <point x="246" y="511" type="line"/>
      <point x="353" y="511" type="line"/>
      <point x="353" y="530" type="line"/>
      <point x="246" y="530" type="line"/>
      <point x="246" y="734" type="line"/>
      <point x="229" y="745"/>
      <point x="206" y="750"/>
      <point x="182" y="750" type="curve" smooth="yes"/>
      <point x="109" y="750"/>
      <point x="71" y="676"/>
      <point x="71" y="532" type="curve" smooth="yes"/>
      <point x="71" y="530" type="line"/>
      <point x="11" y="524" type="line"/>
      <point x="11" y="511" type="line"/>
      <point x="71" y="511" type="line"/>
      <point x="71" y="0" type="line"/>
      <point x="91" y="0" type="line"/>
      <point x="91" y="511" type="line"/>
      <point x="226" y="511" type="line"/>
      <point x="226" y="108" type="line" smooth="yes"/>
      <point x="226" y="43"/>
      <point x="238" y="-10"/>
    </contour>
    <contour>
      <point x="91" y="530" type="line"/>
      <point x="91" y="532" type="line" smooth="yes"/>
      <point x="91" y="665"/>
      <point x="121" y="731"/>
      <point x="182" y="731" type="curve" smooth="yes"/>
      <point x="199" y="731"/>
      <point x="212" y="729"/>
      <point x="226" y="723" type="curve"/>
      <point x="226" y="530" type="line"/>
    </contour>
  </outline>
</glyph>
<glyph name="i.sc" format="2">
  <advance width="106"/>
  <anchor x="62" y="0" name="ogonek"/>
  <anchor x="53" y="0" name="bottom"/>
  <anchor x="53" y="600" name="top"/>
  <outline>
    <contour>
      <point x="43" y="0" type="line"/>
      <point x="63" y="0" type="line"/>
      <point x="63" y="615" type="line"/>
      <point x="43" y="615" type="line"/>
    </contour>
  </outline>
</glyph>
<glyph name="i.sc.loclTRK" format="2">
  <advance width="106"/>
  <outline>
    <contour>
      <point x="53" y="747" type="curve" smooth="yes"/>
      <point x="67" y="747"/>
      <point x="67" y="748"/>
      <point x="67" y="764" type="curve" smooth="yes"/>
      <point x="67" y="780"/>
      <point x="67" y="781"/>
      <point x="53" y="781" type="curve" smooth="yes"/>
      <point x="39" y="781"/>
      <point x="39" y="780"/>
      <point x="39" y="764" type="curve" smooth="yes"/>
      <point x="39" y="748"/>
      <point x="40" y="747"/>
    </contour>
    <component base="i.sc"/>
  </outline>
</glyph>
<glyph name="j.superior" format="2">
  <advance width="107"/>
  <outline>
    <contour>
      <point x="75" y="367" type="curve" smooth="yes"/>
      <point x="75" y="670" type="line"/>
      <point x="56" y="670" type="line"/>
      <point x="56" y="367" type="line"/>
      <point x="56" y="312"/>
      <point x="45" y="276"/>
      <point x="26" y="258" type="curve" smooth="yes"/>
      <point x="22" y="255"/>
      <point x="20" y="253"/>
      <point x="15" y="251" type="curve"/>
      <point x="20" y="237" type="line"/>
      <point x="25" y="239"/>
      <point x="31" y="242"/>
      <point x="36" y="246" type="curve" smooth="yes"/>
      <point x="62" y="266"/>
      <point x="75" y="305"/>
    </contour>
    <contour>
      <point x="66" y="747" type="curve" smooth="yes"/>
      <point x="78" y="747"/>
      <point x="79" y="748"/>
      <point x="79" y="762" type="curve" smooth="yes"/>
      <point x="79" y="776"/>
      <point x="78" y="777"/>
      <point x="66" y="777" type="curve" smooth="yes"/>
      <point x="53" y="777"/>
      <point x="53" y="776"/>
      <point x="53" y="762" type="curve" smooth="yes"/>
      <point x="53" y="748"/>
      <point x="54" y="747"/>
    </contour>
  </outline>
</glyph>
<glyph name="k.sc" format="2">
  <advance width="249"/>
  <anchor x="125" y="600" name="top"/>
  <anchor x="137" y="0" name="bottom"/>
  <outline>
    <contour>
      <point x="238" y="-9" type="curve" smooth="yes"/>
      <point x="241" y="-9"/>
      <point x="245" y="-9"/>
      <point x="251" y="-7" type="curve"/>
      <point x="251" y="13" type="line"/>
      <point x="249" y="12"/>
      <point x="246" y="12"/>
      <point x="244" y="12" type="curve" smooth="yes"/>
      <point x="231" y="12"/>
      <point x="222" y="22"/>
      <point x="185" y="101" type="curve" smooth="yes"/>
      <point x="63" y="359" type="line"/>
      <point x="63" y="615" type="line"/>
      <point x="43" y="615" type="line"/>
      <point x="43" y="0" type="line"/>
      <point x="63" y="0" type="line"/>
      <point x="63" y="317" type="line"/>
      <point x="169" y="91" type="line" smooth="yes"/>
      <point x="201" y="22"/>
      <point x="216" y="-9"/>
    </contour>
    <contour>
      <point x="98" y="262" type="line"/>
      <point x="139" y="329"/>
      <point x="197" y="445"/>
      <point x="226" y="613" type="curve"/>
      <point x="207" y="617" type="line"/>
      <point x="180" y="455"/>
      <point x="129" y="348"/>
      <point x="89" y="281" type="curve"/>
    </contour>
  </outline>
</glyph>
<glyph name="l.sc" format="2">
  <advance width="203"/>
  <anchor x="102" y="275" name="center"/>
  <anchor x="53" y="600" name="top"/>
  <anchor x="133" y="615" name="topright"/>
  <anchor x="118" y="0" name="bottom"/>
  <outline>
    <contour>
      <point x="43" y="0" type="line"/>
      <point x="197" y="0" type="line"/>
      <point x="197" y="18" type="line"/>
      <point x="63" y="18" type="line"/>
      <point x="63" y="615" type="line"/>
      <point x="43" y="615" type="line"/>
    </contour>
  </outline>
</glyph>
<glyph name="l.superior" format="2">
  <advance width="97"/>
  <outline>
    <contour>
      <point x="59" y="788" type="line"/>
      <point x="40" y="788" type="line"/>
      <point x="40" y="438" type="line" smooth="yes"/>
      <point x="40" y="373"/>
      <point x="50" y="364"/>
      <point x="75" y="364" type="curve" smooth="yes"/>
      <point x="81" y="364"/>
      <point x="89" y="366"/>
      <point x="96" y="369" type="curve"/>
      <point x="94" y="384" type="line"/>
      <point x="86" y="381"/>
      <point x="81" y="380"/>
      <point x="78" y="380" type="curve" smooth="yes"/>
      <point x="64" y="380"/>
      <point x="59" y="387"/>
      <point x="59" y="439" type="curve" smooth="yes"/>
    </contour>
  </outline>
</glyph>
<glyph name="ldot.sc" format="2">
  <advance width="203"/>
  <outline>
    <contour>
      <point x="154" y="300" type="curve" smooth="yes"/>
      <point x="168" y="300"/>
      <point x="168" y="301"/>
      <point x="168" y="317" type="curve" smooth="yes"/>
      <point x="168" y="333"/>
      <point x="168" y="334"/>
      <point x="154" y="334" type="curve" smooth="yes"/>
      <point x="140" y="334"/>
      <point x="140" y="333"/>
      <point x="140" y="317" type="curve" smooth="yes"/>
      <point x="140" y="301"/>
      <point x="141" y="300"/>
    </contour>
    <component base="l.sc"/>
  </outline>
</glyph>
<glyph name="m.superior" format="2">
  <advance width="276"/>
  <outline>
    <contour>
      <point x="40" y="370" type="line"/>
      <point x="59" y="370" type="line"/>
      <point x="59" y="646" type="line"/>
      <point x="70" y="653"/>
      <point x="85" y="659"/>
      <point x="96" y="659" type="curve" smooth="yes"/>
      <point x="120" y="659"/>
      <point x="130" y="643"/>
      <point x="130" y="615" type="curve" smooth="yes"/>
      <point x="130" y="370" type="line"/>
      <point x="148" y="370" type="line"/>
      <point x="148" y="618" type="line" smooth="yes"/>
      <point x="148" y="630"/>
      <point x="146" y="639"/>
      <point x="144" y="646" type="curve"/>
      <point x="157" y="656"/>
      <point x="173" y="659"/>
      <point x="184" y="659" type="curve" smooth="yes"/>
      <point x="207" y="659"/>
      <point x="219" y="645"/>
      <point x="219" y="615" type="curve" smooth="yes"/>
      <point x="219" y="370" type="line"/>
      <point x="238" y="370" type="line"/>
      <point x="238" y="620" type="line" smooth="yes"/>
      <point x="238" y="662"/>
      <point x="217" y="675"/>
      <point x="193" y="675" type="curve" smooth="yes"/>
      <point x="170" y="675"/>
      <point x="150" y="666"/>
      <point x="139" y="658" type="curve"/>
      <point x="131" y="670"/>
      <point x="118" y="675"/>
      <point x="103" y="675" type="curve" smooth="yes"/>
      <point x="88" y="675"/>
      <point x="71" y="670"/>
      <point x="58" y="663" type="curve"/>
      <point x="58" y="670" type="line"/>
      <point x="40" y="670" type="line"/>
    </contour>
  </outline>
</glyph>
<glyph name="numbersign.tosf" format="2">
  <advance width="250"/>
  <outline>
    <contour>
      <point x="-3" y="138" type="line"/>
      <point x="47" y="138" type="line"/>
      <point x="25" y="0" type="line"/>
      <point x="45" y="0" type="line"/>
      <point x="67" y="138" type="line"/>
      <point x="143" y="138" type="line"/>
      <point x="121" y="0" type="line"/>
      <point x="141" y="0" type="line"/>
      <point x="163" y="138" type="line"/>
      <point x="228" y="138" type="line"/>
      <point x="228" y="158" type="line"/>
      <point x="166" y="158" type="line"/>
      <point x="201" y="372" type="line"/>
      <point x="253" y="372" type="line"/>
      <point x="253" y="392" type="line"/>
      <point x="204" y="392" type="line"/>
      <point x="226" y="530" type="line"/>
      <point x="206" y="530" type="line"/>
      <point x="183" y="392" type="line"/>
      <point x="108" y="392" type="line"/>
      <point x="130" y="530" type="line"/>
      <point x="110" y="530" type="line"/>
      <point x="87" y="392" type="line"/>
      <point x="22" y="392" type="line"/>
      <point x="22" y="372" type="line"/>
      <point x="84" y="372" type="line"/>
      <point x="50" y="158" type="line"/>
      <point x="-3" y="158" type="line"/>
    </contour>
    <contour>
      <point x="70" y="158" type="line"/>
      <point x="105" y="372" type="line"/>
      <point x="180" y="372" type="line"/>
      <point x="146" y="158" type="line"/>
    </contour>
  </outline>
</glyph>
<glyph name="o.sc" format="2">
  <advance width="288"/>
  <anchor x="144" y="275" name="center"/>
  <anchor x="172" y="0" name="ogonek"/>
  <anchor x="144" y="600" name="top"/>
  <anchor x="211" y="600" name="topright"/>
  <anchor x="80" y="600" name="topleft"/>
  <anchor x="144" y="0" name="bottom"/>
  <outline>
    <contour>
      <point x="144" y="8" type="curve" smooth="yes"/>
      <point x="77" y="8"/>
      <point x="48" y="68"/>
      <point x="48" y="307" type="curve" smooth="yes"/>
      <point x="48" y="547"/>
      <point x="77" y="607"/>
      <point x="144" y="607" type="curve" smooth="yes"/>
      <point x="211" y="607"/>
      <point x="240" y="547"/>
      <point x="240" y="307" type="curve" smooth="yes"/>
      <point x="240" y="68"/>
      <point x="211" y="8"/>
    </contour>
    <contour>
      <point x="144" y="-9" type="curve" smooth="yes"/>
      <point x="226" y="-9"/>
      <point x="260" y="55"/>
      <point x="260" y="307" type="curve" smooth="yes"/>
      <point x="260" y="560"/>
      <point x="226" y="624"/>
      <point x="144" y="624" type="curve" smooth="yes"/>
      <point x="62" y="624"/>
      <point x="28" y="560"/>
      <point x="28" y="307" type="curve" smooth="yes"/>
      <point x="28" y="55"/>
      <point x="62" y="-9"/>
    </contour>
  </outline>
</glyph>
<glyph name="o.superior" format="2">
  <advance width="172"/>
  <outline>
    <contour>
      <point x="25" y="521" type="curve" smooth="yes"/>
      <point x="25" y="396"/>
      <point x="42" y="364"/>
      <point x="86" y="364" type="curve" smooth="yes"/>
      <point x="130" y="364"/>
      <point x="147" y="396"/>
      <point x="147" y="521" type="curve" smooth="yes"/>
      <point x="147" y="647"/>
      <point x="130" y="675"/>
      <point x="86" y="675" type="curve" smooth="yes"/>
      <point x="42" y="675"/>
      <point x="25" y="647"/>
    </contour>
    <contour>
      <point x="44" y="521" type="curve" smooth="yes"/>
      <point x="44" y="637"/>
      <point x="56" y="659"/>
      <point x="86" y="659" type="curve" smooth="yes"/>
      <point x="116" y="659"/>
      <point x="128" y="637"/>
      <point x="128" y="521" type="curve" smooth="yes"/>
      <point x="128" y="406"/>
      <point x="116" y="380"/>
      <point x="86" y="380" type="curve" smooth="yes"/>
      <point x="56" y="380"/>
      <point x="44" y="406"/>
    </contour>
  </outline>
</glyph>
<glyph name="one.tosf" format="2">
  <advance width="250"/>
  <outline>
    <contour>
      <point x="29" y="0" type="line"/>
      <point x="221" y="0" type="line"/>
      <point x="221" y="20" type="line"/>
      <point x="135" y="20" type="line"/>
      <point x="135" y="510" type="line"/>
      <point x="221" y="510" type="line"/>
      <point x="221" y="530" type="line"/>
      <point x="29" y="530" type="line"/>
      <point x="29" y="510" type="line"/>
      <point x="115" y="510" type="line"/>
      <point x="115" y="20" type="line"/>
      <point x="29" y="20" type="line"/>
    </contour>
  </outline>
</glyph>
<glyph name="oslash.sc" format="2">
  <advance width="288"/>
  <anchor x="144" y="600" name="top"/>
  <anchor x="144" y="0" name="bottom"/>
  <outline>
    <contour>
      <point x="47" y="-9" type="line"/>
      <point x="260" y="624" type="line"/>
      <point x="241" y="624" type="line"/>
      <point x="28" y="-9" type="line"/>
    </contour>
    <contour>
      <point x="144" y="8" type="curve" smooth="yes"/>
      <point x="77" y="8"/>
      <point x="48" y="68"/>
      <point x="48" y="307" type="curve" smooth="yes"/>
      <point x="48" y="547"/>
      <point x="77" y="607"/>
      <point x="144" y="607" type="curve" smooth="yes"/>
      <point x="212" y="607"/>
      <point x="240" y="545"/>
      <point x="240" y="307" type="curve" smooth="yes"/>
      <point x="240" y="68"/>
      <point x="211" y="8"/>
    </contour>
    <contour>
      <point x="144" y="-9" type="curve" smooth="yes"/>
      <point x="226" y="-9"/>
      <point x="260" y="55"/>
      <point x="260" y="307" type="curve" smooth="yes"/>
      <point x="260" y="560"/>
      <point x="226" y="624"/>
      <point x="144" y="624" type="curve" smooth="yes"/>
      <point x="62" y="624"/>
      <point x="28" y="560"/>
      <point x="28" y="307" type="curve" smooth="yes"/>
      <point x="28" y="55"/>
      <point x="62" y="-9"/>
    </contour>
  </outline>
</glyph>
<glyph name="p.superior" format="2">
  <advance width="180"/>
  <outline>
    <contour>
      <point x="40" y="253" type="line"/>
      <point x="59" y="253" type="line"/>
      <point x="59" y="367" type="line"/>
      <point x="69" y="365"/>
      <point x="78" y="364"/>
      <point x="86" y="364" type="curve" smooth="yes"/>
      <point x="137" y="364"/>
      <point x="155" y="406"/>
      <point x="155" y="524" type="curve" smooth="yes"/>
      <point x="155" y="623"/>
      <point x="133" y="675"/>
      <point x="94" y="675" type="curve" smooth="yes"/>
      <point x="80" y="675"/>
      <point x="68" y="671"/>
      <point x="59" y="663" type="curve"/>
      <point x="59" y="675" type="line"/>
      <point x="40" y="675" type="line"/>
    </contour>
    <contour>
      <point x="83" y="379" type="curve" smooth="yes"/>
      <point x="76" y="379"/>
      <point x="71" y="380"/>
      <point x="59" y="382" type="curve"/>
      <point x="59" y="647" type="line"/>
      <point x="71" y="657"/>
      <point x="80" y="660"/>
      <point x="92" y="660" type="curve" smooth="yes"/>
      <point x="120" y="660"/>
      <point x="136" y="618"/>
      <point x="136" y="524" type="curve" smooth="yes"/>
      <point x="136" y="412"/>
      <point x="125" y="379"/>
    </contour>
  </outline>
</glyph>
<glyph name="parenleft.sc" format="2">
  <advance width="172"/>
  <outline>
    <contour>
      <point x="50" y="307" type="curve" smooth="yes"/>
      <point x="50" y="57"/>
      <point x="98" y="-110"/>
      <point x="167" y="-134" type="curve"/>
      <point x="167" y="-112" type="line"/>
      <point x="110" y="-81"/>
      <point x="73" y="68"/>
      <point x="73" y="307" type="curve" smooth="yes"/>
      <point x="73" y="547"/>
      <point x="110" y="696"/>
      <point x="167" y="727" type="curve"/>
      <point x="167" y="749" type="line"/>
      <point x="98" y="725"/>
      <point x="50" y="558"/>
    </contour>
  </outline>
</glyph>
<glyph name="parenright.sc" format="2">
  <advance width="172"/>
  <outline>
    <contour>
      <point x="5" y="-112" type="curve"/>
      <point x="5" y="-134" type="line"/>
      <point x="74" y="-110"/>
      <point x="122" y="57"/>
      <point x="122" y="307" type="curve" smooth="yes"/>
      <point x="122" y="558"/>
      <point x="74" y="725"/>
      <point x="5" y="749" type="curve"/>
      <point x="5" y="727" type="line"/>
      <point x="62" y="696"/>
      <point x="99" y="547"/>
      <point x="99" y="307" type="curve" smooth="yes"/>
      <point x="99" y="68"/>
      <point x="62" y="-81"/>
    </contour>
  </outline>
</glyph>
<glyph name="q.sc" format="2">
  <advance width="288"/>
  <outline>
    <contour>
      <point x="173" y="4" type="curve"/>
      <point x="155" y="0" type="line"/>
      <point x="170" y="-141"/>
      <point x="187" y="-184"/>
      <point x="227" y="-184" type="curve" smooth="yes"/>
      <point x="238" y="-184"/>
      <point x="255" y="-180"/>
      <point x="273" y="-174" type="curve"/>
      <point x="267" y="-157" type="line"/>
      <point x="254" y="-163"/>
      <point x="241" y="-167"/>
      <point x="231" y="-167" type="curve" smooth="yes"/>
      <point x="201" y="-167"/>
      <point x="188" y="-129"/>
    </contour>
    <contour>
      <point x="144" y="8" type="curve" smooth="yes"/>
      <point x="77" y="8"/>
      <point x="48" y="68"/>
      <point x="48" y="307" type="curve" smooth="yes"/>
      <point x="48" y="547"/>
      <point x="77" y="607"/>
      <point x="144" y="607" type="curve" smooth="yes"/>
      <point x="211" y="607"/>
      <point x="240" y="547"/>
      <point x="240" y="307" type="curve" smooth="yes"/>
      <point x="240" y="68"/>
      <point x="211" y="8"/>
    </contour>
    <contour>
      <point x="144" y="-9" type="curve" smooth="yes"/>
      <point x="226" y="-9"/>
      <point x="260" y="55"/>
      <point x="260" y="307" type="curve" smooth="yes"/>
      <point x="260" y="560"/>
      <point x="226" y="624"/>
      <point x="144" y="624" type="curve" smooth="yes"/>
      <point x="62" y="624"/>
      <point x="28" y="560"/>
      <point x="28" y="307" type="curve" smooth="yes"/>
      <point x="28" y="55"/>
      <point x="62" y="-9"/>
    </contour>
  </outline>
</glyph>
<glyph name="r.sc" format="2">
  <advance width="255"/>
  <anchor x="113" y="600" name="top"/>
  <anchor x="138" y="0" name="bottom"/>
  <outline>
    <contour>
      <point x="240" y="-9" type="curve" smooth="yes"/>
      <point x="245" y="-9"/>
      <point x="251" y="-6"/>
      <point x="253" y="-4" type="curve"/>
      <point x="250" y="12" type="line"/>
      <point x="245" y="11"/>
      <point x="243" y="10"/>
      <point x="240" y="10" type="curve" smooth="yes"/>
      <point x="227" y="10"/>
      <point x="215" y="20"/>
      <point x="150" y="275" type="curve"/>
      <point x="198" y="294"/>
      <point x="224" y="350"/>
      <point x="224" y="454" type="curve" smooth="yes"/>
      <point x="224" y="583"/>
      <point x="189" y="624"/>
      <point x="105" y="624" type="curve" smooth="yes"/>
      <point x="85" y="624"/>
      <point x="64" y="622"/>
      <point x="43" y="619" type="curve"/>
      <point x="43" y="0" type="line"/>
      <point x="63" y="0" type="line"/>
      <point x="63" y="267" type="line"/>
      <point x="73" y="266"/>
      <point x="87" y="266"/>
      <point x="102" y="266" type="curve" smooth="yes"/>
      <point x="111" y="266"/>
      <point x="121" y="267"/>
      <point x="131" y="269" type="curve"/>
      <point x="199" y="6"/>
      <point x="204" y="-9"/>
    </contour>
    <contour>
      <point x="103" y="285" type="curve" smooth="yes"/>
      <point x="88" y="285"/>
      <point x="76" y="285"/>
      <point x="63" y="286" type="curve"/>
      <point x="63" y="603" type="line"/>
      <point x="78" y="606"/>
      <point x="93" y="607"/>
      <point x="106" y="607" type="curve" smooth="yes"/>
      <point x="186" y="607"/>
      <point x="204" y="562"/>
      <point x="204" y="451" type="curve" smooth="yes"/>
      <point x="204" y="328"/>
      <point x="166" y="285"/>
    </contour>
  </outline>
</glyph>
<glyph name="s.sc" format="2">
  <advance width="238"/>
  <anchor x="123" y="600" name="top"/>
  <anchor x="115" y="0" name="bottom"/>
  <outline>
    <contour>
      <point x="197" y="612" type="line"/>
      <point x="181" y="619"/>
      <point x="159" y="624"/>
      <point x="134" y="624" type="curve" smooth="yes"/>
      <point x="80" y="624"/>
      <point x="35" y="581"/>
      <point x="35" y="507" type="curve" smooth="yes"/>
      <point x="35" y="427"/>
      <point x="75" y="364"/>
      <point x="115" y="304" type="curve" smooth="yes"/>
      <point x="152" y="248"/>
      <point x="194" y="186"/>
      <point x="194" y="107" type="curve" smooth="yes"/>
      <point x="194" y="38"/>
      <point x="145" y="10"/>
      <point x="103" y="10" type="curve" smooth="yes"/>
      <point x="77" y="10"/>
      <point x="57" y="13"/>
      <point x="34" y="23" type="curve"/>
      <point x="26" y="6" type="line"/>
      <point x="42" y="-3"/>
      <point x="74" y="-9"/>
      <point x="103" y="-9" type="curve" smooth="yes"/>
      <point x="157" y="-9"/>
      <point x="215" y="29"/>
      <point x="215" y="110" type="curve" smooth="yes"/>
      <point x="215" y="192"/>
      <point x="173" y="252"/>
      <point x="133" y="313" type="curve" smooth="yes"/>
      <point x="94" y="373"/>
      <point x="56" y="429"/>
      <point x="56" y="506" type="curve" smooth="yes"/>
      <point x="56" y="568"/>
      <point x="88" y="607"/>
      <point x="134" y="607" type="curve" smooth="yes"/>
      <point x="161" y="607"/>
      <point x="173" y="603"/>
      <point x="189" y="596" type="curve"/>
    </contour>
  </outline>
</glyph>
<glyph name="s.superior" format="2">
  <advance width="130"/>
  <outline>
    <contour>
      <point x="5" y="375" type="line"/>
      <point x="18" y="367"/>
      <point x="37" y="364"/>
      <point x="54" y="364" type="curve" smooth="yes"/>
      <point x="93" y="364"/>
      <point x="120" y="388"/>
      <point x="120" y="436" type="curve" smooth="yes"/>
      <point x="120" y="476"/>
      <point x="100" y="498"/>
      <point x="81" y="524" type="curve" smooth="yes"/>
      <point x="63" y="549"/>
      <point x="32" y="577"/>
      <point x="32" y="608" type="curve" smooth="yes"/>
      <point x="32" y="639"/>
      <point x="49" y="659"/>
      <point x="74" y="659" type="curve" smooth="yes"/>
      <point x="86" y="659"/>
      <point x="96" y="656"/>
      <point x="105" y="652" type="curve"/>
      <point x="110" y="667" type="line"/>
      <point x="99" y="672"/>
      <point x="87" y="675"/>
      <point x="74" y="675" type="curve" smooth="yes"/>
      <point x="37" y="675"/>
      <point x="14" y="648"/>
      <point x="14" y="607" type="curve" smooth="yes"/>
      <point x="14" y="572"/>
      <point x="32" y="554"/>
      <point x="61" y="517" type="curve" smooth="yes"/>
      <point x="80" y="493"/>
      <point x="102" y="470"/>
      <point x="102" y="435" type="curve" smooth="yes"/>
      <point x="102" y="399"/>
      <point x="81" y="379"/>
      <point x="54" y="379" type="curve" smooth="yes"/>
      <point x="40" y="379"/>
      <point x="23" y="383"/>
      <point x="12" y="389" type="curve"/>
    </contour>
  </outline>
</glyph>
